<svg width="123" height="45" viewBox="0 0 123 45" fill="none" xmlns="http://www.w3.org/2000/svg">
<g clip-path="url(#clip0_1331_2759)">
<path d="M-3.05176e-05 45V0H114.823V45H-3.05176e-05ZM111.42 41.6648V3.35487H3.40164V41.6648H111.42Z" fill="#7F7B9F"/>
<path d="M122.993 3.39101H122.378V1.55914C122.3 1.63402 122.226 1.71357 122.157 1.79737C121.984 2.04545 121.828 2.30174 121.646 2.5449C121.464 2.78805 121.216 2.78148 121.041 2.53504C120.865 2.2886 120.734 2.07666 120.58 1.8483C120.526 1.7618 120.444 1.6967 120.348 1.66429V3.38937H119.712V0.067349L120.097 0.0361328L121.341 1.89594C121.425 1.79408 121.492 1.72343 121.546 1.64293C121.846 1.19605 122.152 0.754092 122.437 0.298999C122.575 0.0804881 122.726 -0.0295866 123.002 0.0854189L122.993 3.39101Z" fill="#7F7B9F"/>
<path d="M117.705 0.647344H116.835V0.0673828H119.19V0.625985L118.348 0.670337V3.38283H117.705V0.647344Z" fill="#7F7B9F"/>
<path d="M10.6349 10.2289H13.9907V18.8214C16.5226 16.6856 19.3188 16.1073 22.3923 17.0142C24.3912 17.6016 26.1157 18.8831 27.256 20.6287C28.4074 22.3359 28.9399 24.3864 28.7649 26.4389C28.59 28.4914 27.7181 30.4219 26.2944 31.9091C24.7361 33.5818 22.5898 34.5832 20.3083 34.702C17.9502 34.8663 15.8646 34.1533 14.0169 32.5432V34.4375C13.6887 34.5345 11.0928 34.5509 10.6349 34.4671V10.2289ZM25.3722 25.523C25.2492 22.2749 22.5974 19.8483 19.5239 19.9468C18.758 19.9724 18.005 20.1515 17.3094 20.4737C16.6139 20.7958 15.99 21.2544 15.4747 21.8223C14.9593 22.3902 14.563 23.0558 14.3093 23.7798C14.0555 24.5038 13.9494 25.2714 13.9972 26.0372C14.0406 26.7903 14.2328 27.5273 14.5627 28.2055C14.8926 28.8837 15.3537 29.4896 15.9192 29.9881C16.4847 30.4866 17.1433 30.8678 17.857 31.1095C18.5707 31.3513 19.3253 31.4488 20.0769 31.3965C21.5473 31.2943 22.9208 30.6251 23.9085 29.5297C24.8961 28.4342 25.4208 26.9979 25.3722 25.523Z" fill="#7F7B9F"/>
<path d="M49.1002 34.4951H45.738V32.5564C43.393 34.5526 40.7659 35.1457 37.8614 34.4622C35.7666 33.9801 33.9218 32.7441 32.6777 30.9891C31.415 29.2455 30.8145 27.1082 30.9841 24.9612C31.1538 22.8142 32.0824 20.7981 33.6032 19.2749C36.6324 16.2256 41.9342 15.4617 45.7166 18.782C45.7166 18.4321 45.7281 18.1249 45.7297 17.8242C45.7314 17.5236 45.7297 17.1983 45.7297 16.8598H49.0592L49.0838 16.8795C49.093 16.8881 49.0998 16.8988 49.1035 16.9107C49.1146 16.9621 49.1218 17.0143 49.1249 17.0668V34.3177C49.1209 34.3773 49.1127 34.4366 49.1002 34.4951ZM40.0488 19.937C36.931 19.937 34.3777 22.5345 34.381 25.7005C34.3805 27.2091 34.9767 28.6565 36.0391 29.7264C37.1014 30.7962 38.5437 31.4014 40.0504 31.4097C40.801 31.4103 41.5442 31.2627 42.2377 30.9753C42.9311 30.6879 43.5611 30.2663 44.0916 29.7348C44.622 29.2032 45.0425 28.5721 45.329 27.8775C45.6154 27.183 45.7622 26.4387 45.7609 25.6873C45.7609 24.1676 45.1601 22.7097 44.0898 21.6322C43.0194 20.5547 41.5666 19.9453 40.0488 19.937Z" fill="#7F7B9F"/>
<path d="M64.74 24.2991C64.9255 24.4092 65.0502 24.4798 65.1716 24.5537C67.3262 25.8796 68.5962 27.7887 68.9605 30.2958C69.0062 30.6071 69.0314 30.921 69.036 31.2356C69.036 32.3117 69.036 33.3862 69.036 34.4541C68.7177 34.5395 66.0725 34.551 65.6639 34.4689C65.6639 34.3489 65.6475 34.2208 65.6475 34.0926C65.6475 33.2712 65.6475 32.4398 65.6475 31.6118C65.6585 30.9438 65.5632 30.2783 65.3652 29.6403C64.6908 27.5554 63.232 26.4004 61.0988 26.0603C60.6308 26.0005 60.1593 25.9736 59.6876 25.9798C58.8671 25.9667 58.0631 25.9798 57.1966 25.9798C57.1622 26.4645 57.1835 26.9311 57.1802 27.396C57.1769 27.861 57.1802 28.3407 57.1802 28.8139V34.5034H53.8015V10.2438H57.1917V22.6463H60.1027C62.9842 22.6463 65.1897 20.706 65.5851 17.8522C65.6278 17.5401 65.6524 17.2263 65.6852 16.9125C65.9494 16.8287 68.3928 16.8024 69.0524 16.8845C69.0334 18.3791 68.6214 19.8422 67.8578 21.1266C67.1382 22.4573 66.0574 23.5572 64.74 24.2991Z" fill="#7F7B9F"/>
<path d="M73.2893 10.2289H76.6631V22.6183C76.8272 22.6183 76.9601 22.638 77.0865 22.638C77.9135 22.638 78.7405 22.638 79.5676 22.638C82.9118 22.6265 84.9203 20.1736 85.1107 17.3806C85.1222 17.2163 85.1369 17.0438 85.1517 16.8548H88.5205C88.5304 18.3844 88.089 19.7875 87.3473 21.1035C86.6336 22.433 85.559 23.5333 84.2475 24.2776C84.346 24.3483 84.4116 24.4107 84.5002 24.4583C86.5809 25.6659 87.8806 27.4436 88.363 29.8012C88.4653 30.3552 88.5202 30.9169 88.5271 31.4803C88.555 32.3855 88.5271 33.2875 88.5271 34.1977C88.5271 34.2864 88.5107 34.3751 88.5008 34.4885H85.1468C85.1468 34.3521 85.1287 34.2141 85.1271 34.0761C85.1139 33.0263 85.1517 31.9731 85.0795 30.9282C84.9663 29.3231 84.3181 27.9709 82.9889 26.9852C82.1575 26.3745 81.1625 26.0271 80.1321 25.9879C78.9949 25.9353 77.8528 25.9748 76.6565 25.9748C76.6565 26.9178 76.6565 27.8559 76.6565 28.794V34.4803H73.2893V10.2289Z" fill="#7F7B9F"/>
<path d="M104.196 16.8844V20.1703C103.747 20.1703 103.307 20.1802 102.866 20.1818H98.9028C98.8861 20.2907 98.8751 20.4004 98.87 20.5104C98.87 22.9666 98.87 25.4211 98.87 27.8757C98.8732 28.269 98.9228 28.6605 99.0177 29.0421C99.3081 30.2086 100.089 30.879 101.256 31.086C101.684 31.1458 102.115 31.1744 102.547 31.1714C103.004 31.1845 103.461 31.1714 103.945 31.1714V34.4573C103.913 34.4737 103.878 34.5066 103.844 34.5066C102.638 34.5197 101.431 34.5772 100.234 34.3308C97.6196 33.7952 95.9491 32.0044 95.5684 29.2623C95.5049 28.7814 95.4742 28.2967 95.4765 27.8116C95.4765 25.4096 95.4765 23.006 95.4765 20.604V20.213C95.3124 20.2015 95.1746 20.1851 95.0367 20.1851C93.9734 20.1851 92.9035 20.1851 91.8484 20.1851H91.4168V16.8384C91.6334 16.8384 91.8287 16.8532 92.0207 16.8384C92.5038 16.8163 92.9844 16.7565 93.4581 16.6593C94.1812 16.4715 94.8303 16.0682 95.3193 15.5029C95.8084 14.9375 96.1144 14.2368 96.1969 13.4934C96.2445 13.104 96.2494 12.7097 96.2609 12.3171C96.2724 12.0016 96.2609 11.6878 96.2609 11.3789C96.5497 11.2935 99.1243 11.2722 99.6199 11.351C99.6332 11.4496 99.6415 11.5489 99.6445 11.6484C99.6445 12.2382 99.6642 12.8313 99.6248 13.4195C99.5378 14.6862 99.1194 15.8264 98.2366 16.7563C98.241 16.7745 98.2476 16.7922 98.2563 16.8089C98.2632 16.8183 98.273 16.8252 98.2841 16.8286C98.3227 16.8348 98.3616 16.8386 98.4007 16.8401L104.109 16.8565C104.139 16.8631 104.168 16.8724 104.196 16.8844Z" fill="#7F7B9F"/>
</g>
<defs>
<clipPath id="clip0_1331_2759">
<rect width="123" height="45" fill="white"/>
</clipPath>
</defs>
</svg>
