<svg width="148" height="27" viewBox="0 0 148 27" fill="none" xmlns="http://www.w3.org/2000/svg">
<g clip-path="url(#clip0_1331_2741)">
<path d="M29.8086 7.36397C24.4433 7.36397 20.251 11.3703 20.251 16.7335C20.251 22.0967 24.3373 26.0687 29.8086 26.0687C35.2799 26.0687 39.4374 22.0281 39.4374 16.6992C39.4374 11.4045 35.351 7.36397 29.8086 7.36397ZM29.8448 22.2036C26.7894 22.2036 24.5505 19.8694 24.5505 16.7348C24.5505 13.5646 26.7532 11.2318 29.8086 11.2318C32.9002 11.2318 35.1378 13.6002 35.1378 16.7348C35.1378 19.8694 32.9002 22.2036 29.8448 22.2036ZM40.6091 11.4401H43.2742V25.7219H47.5376V7.71212H40.6091V11.4401ZM9.52149 11.2304C11.7604 11.2304 13.5368 12.5887 14.2112 14.609H18.7239C17.9061 10.2902 14.2823 7.36397 9.55768 7.36397C4.19229 7.36397 0 11.3703 0 16.7348C0 22.0994 4.08639 26.07 9.55768 26.07C14.1763 26.07 17.8712 23.1438 18.689 18.7894H14.2112C13.5717 20.8097 11.7953 22.2036 9.55637 22.2036C6.46475 22.2036 4.29819 19.8694 4.29819 16.7348C4.29955 13.5646 6.43123 11.2304 9.52149 11.2304ZM121.615 14.9928L118.489 14.5404C116.997 14.3321 115.931 13.8442 115.931 12.6943C115.931 11.4401 117.317 10.8137 119.2 10.8137C121.26 10.8137 122.576 11.6841 122.86 13.1123H126.981C126.519 9.48973 123.676 7.36527 119.307 7.36527C114.794 7.36527 111.81 9.62954 111.81 12.834C111.81 15.8987 113.764 17.6764 117.707 18.2329L120.834 18.6852C122.362 18.8935 123.215 19.487 123.215 20.6013C123.215 22.0295 121.723 22.6216 119.662 22.6216C117.139 22.6216 115.718 21.6114 115.505 20.0791H111.312C111.704 23.5974 114.51 26.07 119.626 26.07C124.281 26.07 127.371 23.9799 127.371 20.3916C127.371 17.1871 125.133 15.515 121.615 14.9928ZM45.4059 0.292968C43.8427 0.292968 42.6699 1.40729 42.6699 2.93964C42.6699 4.472 43.8415 5.58632 45.4059 5.58632C46.9691 5.58632 48.1423 4.472 48.1423 2.93964C48.1423 1.40729 46.9691 0.292968 45.4059 0.292968ZM107.973 13.8784C107.973 9.97765 105.557 7.36527 100.441 7.36527C95.609 7.36527 92.9088 9.76932 92.3754 13.4617H96.6037C96.8168 12.0336 97.9538 10.8493 100.37 10.8493C102.538 10.8493 103.604 11.7896 103.604 12.9395C103.604 14.4376 101.649 14.82 99.233 15.064C95.9643 15.4121 91.9141 16.5264 91.9141 20.7068C91.9141 23.9469 94.3661 26.0357 98.2745 26.0357C101.33 26.0357 103.248 24.7816 104.208 22.7957C104.351 24.572 105.701 25.7219 107.584 25.7219H110.071V21.9952H107.974V13.8784H107.973ZM103.78 18.4069C103.78 20.811 101.649 22.5873 99.0545 22.5873C97.4554 22.5873 96.1053 21.9253 96.1053 20.5327C96.1053 18.7564 98.2729 18.2685 100.263 18.0601C102.181 17.8861 103.247 17.468 103.78 16.6662V18.4069ZM81.1485 7.36397C78.7675 7.36397 76.778 8.33981 75.357 9.97636V0.118896H71.0937V25.7219H75.2857V23.3535C76.7067 25.0599 78.7328 26.07 81.1485 26.07C86.2644 26.07 90.1378 22.0994 90.1378 16.7348C90.1378 11.3703 86.1935 7.36397 81.1485 7.36397ZM80.5092 22.2036C77.4537 22.2036 75.2148 19.8694 75.2148 16.7348C75.2148 13.6002 77.4887 11.2318 80.5438 11.2318C83.6356 11.2318 85.8019 13.5659 85.8019 16.7348C85.8019 19.8694 83.5642 22.2036 80.5092 22.2036ZM60.8961 7.36397C58.1251 7.36397 56.3125 8.47829 55.2468 10.0462V7.71212H51.0181V25.7206H55.2815V15.933C55.2815 13.1808 57.0578 11.2304 59.687 11.2304C62.139 11.2304 63.666 12.9369 63.666 15.4108V25.7219H67.9293V15.0983C67.931 10.5684 65.5511 7.36397 60.8961 7.36397ZM147.694 16.1427C147.694 10.9878 143.857 7.36527 138.705 7.36527C133.234 7.36527 129.219 11.4059 129.219 16.7348C129.219 22.3433 133.518 26.07 138.776 26.07C143.218 26.07 146.7 23.492 147.587 19.8351H143.145C142.506 21.4374 140.943 22.3433 138.846 22.3433C136.11 22.3433 134.049 20.6712 133.588 17.745H147.693V16.1427H147.694ZM133.837 14.7488C134.513 12.2406 136.431 11.0221 138.634 11.0221C141.05 11.0221 142.898 12.3804 143.324 14.7488H133.837Z" fill="#7F7B9F"/>
</g>
<defs>
<clipPath id="clip0_1331_2741">
<rect width="147.993" height="25.9511" fill="white" transform="translate(0 0.118896)"/>
</clipPath>
</defs>
</svg>
