<svg width="157" height="33" viewBox="0 0 157 33" fill="none" xmlns="http://www.w3.org/2000/svg">
<g clip-path="url(#clip0_1331_2745)">
<path d="M121.123 13.9561C121.579 13.6119 121.917 13.3112 122.293 13.0725C124.603 11.6268 127.588 12.3841 129.135 14.7914C130.66 17.1552 130.373 20.6457 128.478 22.7203C126.637 24.7375 123.445 24.7857 121.787 23.2504C121.642 23.1359 121.49 23.0317 121.331 22.9383C121.301 23.2344 121.262 23.4455 121.262 23.6589C121.262 25.3549 121.262 27.0508 121.262 28.7467C121.262 29.4559 121.242 29.4742 120.519 29.4788C119.739 29.4788 118.961 29.4627 118.183 29.4788C117.778 29.4903 117.6 29.3595 117.602 28.928C117.602 23.6865 117.602 18.4457 117.602 13.2056C117.602 12.7696 117.791 12.6457 118.19 12.6549C118.911 12.6732 119.634 12.6847 120.352 12.6549C120.888 12.6296 121.141 12.8109 121.075 13.3709C121.074 13.567 121.09 13.7628 121.123 13.9561V13.9561ZM126.544 18.2797C126.544 16.5998 125.372 15.3284 123.846 15.3491C122.32 15.3697 121.084 16.726 121.109 18.3485C121.134 19.971 122.339 21.2493 123.862 21.2539C125.433 21.2608 126.546 20.0284 126.544 18.2797Z" fill="#7F7B9F"/>
<path d="M56.4862 7.4707C58.189 7.45746 59.8521 7.98773 61.2365 8.98533C61.6493 9.27449 61.7497 9.52234 61.3278 9.91706C60.7736 10.4357 60.2628 11.0026 59.761 11.5717C59.4965 11.87 59.3049 11.9435 58.972 11.6405C58.5309 11.2444 58.0059 10.9545 57.4369 10.7931C56.8679 10.6316 56.2698 10.6028 55.688 10.7088C54.9514 10.8144 54.3197 11.3789 54.2285 12.033C54.1213 12.7605 54.4155 13.3204 55.2091 13.6394C56.2969 14.0984 57.4167 14.4518 58.5159 14.8649C59.5636 15.2326 60.4652 15.9313 61.086 16.8569C62.11 18.4082 61.891 21.7404 59.5832 23.2596C58.2648 24.116 56.7059 24.5186 55.1407 24.4071C53.2798 24.3153 51.5671 23.776 50.0825 22.5895C49.688 22.2751 49.5922 22.0204 50.0073 21.6348C50.5637 21.1162 51.0837 20.5562 51.6036 19.9986C51.9046 19.6727 52.1418 19.6268 52.4953 19.9596C52.9137 20.3784 53.4127 20.7068 53.9617 20.9246C54.5107 21.1424 55.0982 21.2451 55.688 21.2264C56.0086 21.212 56.326 21.1557 56.6322 21.0588C56.9314 20.9872 57.2014 20.8245 57.4055 20.5929C57.6095 20.3613 57.7376 20.072 57.7724 19.7645C57.8728 19.0646 57.6584 18.4656 57.0267 18.1764C55.9777 17.6968 54.8876 17.3089 53.8112 16.8936C52.7348 16.4782 51.6766 15.9756 51.0244 14.9245C50.6593 14.3204 50.434 13.6413 50.3653 12.9376C50.2965 12.2339 50.3861 11.5237 50.6272 10.8596C50.8684 10.1955 51.255 9.59449 51.7584 9.1012C52.2618 8.60791 52.8691 8.23495 53.5352 8.01C54.0548 7.82264 54.5887 7.67835 55.1316 7.57855C55.5809 7.51848 56.0331 7.48249 56.4862 7.4707V7.4707Z" fill="#7F7B9F"/>
<path d="M67.8386 13.9676C68.0667 13.7679 68.1944 13.6715 68.2947 13.5568C69.4647 12.3474 70.8923 12.1087 72.4385 12.5447C73.8204 12.9349 74.6255 13.9469 74.9812 15.2986C75.1254 15.8525 75.202 16.422 75.2093 16.9945C75.2344 19.0921 75.2093 21.1896 75.2298 23.2872C75.2298 23.7943 75.0998 24.0169 74.5571 23.994C73.7429 23.9596 72.9242 23.9665 72.1078 23.994C71.6517 24.0078 71.5126 23.8219 71.5171 23.3858C71.5308 21.7029 71.5308 20.0246 71.5171 18.3508C71.5165 17.8175 71.4746 17.285 71.3917 16.7582C71.2822 16.1087 70.9196 15.6245 70.24 15.4937C69.5604 15.3629 68.8717 15.4937 68.386 16.0812C67.9689 16.6095 67.7529 17.2703 67.7771 17.9446C67.7771 19.6796 67.7771 21.4153 67.7771 23.1518C67.7771 23.9871 67.7771 23.9871 66.9196 23.9871C66.2172 23.9871 65.5125 23.9573 64.8124 23.9871C64.2537 24.0192 64.1032 23.7943 64.1054 23.2573C64.1214 18.2407 64.1054 13.224 64.1054 8.20737C64.1054 6.78912 64.1054 6.78912 65.5285 6.78912C66.0781 6.78912 66.63 6.81207 67.1796 6.78912C67.6357 6.76617 67.7794 6.93828 67.7748 7.38579C67.7588 9.31121 67.7748 11.2389 67.7748 13.1644C67.7885 13.3893 67.8113 13.6073 67.8386 13.9676Z" fill="#7F7B9F"/>
<path d="M94.9495 17.2034C95.0562 17.0054 95.1742 16.8139 95.3029 16.6297C96.1878 15.4822 97.0909 14.3577 97.9597 13.2034C98.0793 13.0215 98.2447 12.8749 98.439 12.7785C98.6334 12.6821 98.8497 12.6395 99.0658 12.6549C100.033 12.6847 101.002 12.6549 101.971 12.6549C102.167 12.6549 102.366 12.6916 102.696 12.7237C102.514 12.9899 102.414 13.1621 102.288 13.3112C101.184 14.617 100.094 15.9389 98.9563 17.2126C98.5641 17.6555 98.6143 17.963 98.9381 18.3967C100.165 20.0445 101.362 21.7129 102.569 23.3744C102.674 23.519 102.751 23.6819 102.927 23.9779H101.786C100.895 23.9779 100.001 23.9527 99.1114 23.9779C98.9048 23.9947 98.6979 23.9507 98.5157 23.8513C98.3335 23.7519 98.1839 23.6013 98.0852 23.418C97.173 22.041 96.2402 20.6641 95.3143 19.2872C95.1667 19.0623 94.9651 18.8784 94.7283 18.7524C94.6908 18.9573 94.6657 19.1642 94.653 19.3721C94.653 20.6893 94.6302 22.0043 94.653 23.3193C94.653 23.8265 94.4888 23.9871 93.9939 23.9665C93.1775 23.932 92.3611 23.9435 91.5447 23.9665C91.1273 23.9665 90.9745 23.8127 90.9768 23.395C90.9768 18.0403 90.9768 12.6855 90.9768 7.33072C90.9768 6.89239 91.1547 6.77076 91.5561 6.77764C92.3725 6.796 93.1889 6.80747 94.003 6.77764C94.5048 6.75699 94.6576 6.92911 94.6553 7.4317C94.6348 10.4151 94.6439 13.3801 94.6553 16.3543C94.6553 16.5838 94.6758 16.7949 94.6849 17.0152L94.9495 17.2034Z" fill="#7F7B9F"/>
<path d="M150.667 19.7277C150.975 18.7547 151.285 17.7816 151.579 16.8086C151.965 15.5716 152.33 14.3278 152.74 13.1023C152.786 12.9981 152.855 12.9063 152.943 12.8345C153.03 12.7626 153.134 12.7129 153.244 12.6892C154.229 12.6479 155.219 12.664 156.209 12.6686C156.711 12.6686 156.635 12.96 156.505 13.2882C155.589 15.6634 154.676 18.0455 153.737 20.4208C152.902 22.5459 152.127 24.6985 151.192 26.7777C150.024 29.3709 147.81 29.7909 145.132 29.3021C145.043 29.2572 144.966 29.19 144.909 29.1068C144.853 29.0237 144.818 28.9274 144.809 28.827C144.854 28.0848 144.944 27.346 145.078 26.6147C145.105 26.4655 145.39 26.2888 145.577 26.2613C145.898 26.2554 146.218 26.27 146.537 26.3049C146.816 26.3119 147.091 26.2412 147.333 26.1007C147.574 25.9601 147.772 25.7552 147.905 25.5086C148.48 24.5677 148.635 23.6887 148.134 22.5734C146.733 19.5097 145.484 16.3772 144.179 13.2699C143.965 12.7581 144.024 12.6709 144.581 12.664C145.511 12.664 146.441 12.6801 147.372 12.664C147.559 12.637 147.749 12.6834 147.902 12.7937C148.056 12.9039 148.162 13.0695 148.197 13.2561C148.854 15.2251 149.543 17.1827 150.225 19.1425C150.308 19.3471 150.401 19.547 150.505 19.7415L150.667 19.7277Z" fill="#7F7B9F"/>
<path d="M111.137 19.3744C109.978 19.3744 108.82 19.3744 107.663 19.3744C107.052 19.3744 106.959 19.535 107.207 20.095C107.72 21.2425 109.463 21.8758 110.815 21.3687C111.203 21.2192 111.561 21.0016 111.873 20.7261C111.98 20.6046 112.13 20.5301 112.291 20.5185C112.451 20.5069 112.61 20.5592 112.733 20.6641C113.255 21.0107 113.771 21.371 114.313 21.6831C114.77 21.9378 114.674 22.1627 114.386 22.4794C113.328 23.6406 111.983 24.1662 110.464 24.3429C107.782 24.6573 105.219 23.4777 104.156 21.2815C103.057 19.0164 103.175 16.7307 104.66 14.679C106.145 12.6274 108.348 11.9963 110.781 12.4415C113.49 12.9372 115.089 15.0508 115.214 18.0916C115.267 19.3721 115.267 19.3721 113.98 19.3721L111.137 19.3744ZM109.419 17.0795C110.024 17.0795 110.63 17.0795 111.244 17.0795C111.741 17.0933 111.876 16.8775 111.761 16.4048C111.52 15.3904 110.69 14.7984 109.481 14.8443C108.341 14.8764 107.246 15.6934 107.091 16.6044C107.025 16.9923 107.232 17.0634 107.547 17.0634L109.419 17.0795Z" fill="#7F7B9F"/>
<path d="M84.7374 23.0784C84.0236 23.441 83.4056 23.861 82.7214 24.0859C81.2437 24.5747 78.8445 24.1111 77.9073 22.6355C77.027 21.2585 77.3006 19.2528 78.5914 18.2752C79.4831 17.5867 80.5207 17.2998 81.5994 17.1506C82.425 17.0382 83.2619 16.9969 84.0943 16.9326C84.5892 16.8936 84.7146 16.7215 84.5846 16.2281C84.4341 15.6452 83.7773 15.1701 83.0202 15.0806C82.0453 14.9624 81.0631 15.2325 80.2836 15.8334C79.8822 16.1317 79.6359 16.0881 79.3371 15.7209C79.0384 15.3537 78.6393 14.9682 78.2881 14.5918C78.06 14.3371 78.0258 14.1007 78.3314 13.8712C80.4865 12.251 82.8765 11.9229 85.401 12.7238C87.132 13.2677 87.8366 14.7502 87.9621 16.3956C88.1422 18.7686 88.0852 21.1576 88.1331 23.5397C88.1331 23.9252 87.9256 24.0216 87.5881 24.017C86.8287 24.017 86.0692 24.0032 85.3075 24.017C84.9518 24.017 84.7693 23.9068 84.7876 23.5259C84.7848 23.3755 84.768 23.2257 84.7374 23.0784V23.0784ZM83.7522 19.0462C83.2927 19.0691 82.8355 19.1251 82.3839 19.2138C81.9607 19.305 81.5613 19.4849 81.2117 19.7416C80.4865 20.3176 80.6553 21.3985 81.5401 21.6532C82.8925 22.0411 84.3703 21.7726 84.7443 19.9711C84.8925 19.177 84.7602 19.0118 83.7522 19.0462Z" fill="#7F7B9F"/>
<path d="M139.052 22.9613C138.754 23.2091 138.537 23.4203 138.295 23.5878C136.941 24.5287 134.466 24.4323 133.109 23.473C131.461 22.3049 131.077 19.1288 133.593 17.8666C134.936 17.1942 136.382 17.0473 137.841 16.9349C138.049 16.9188 138.259 16.9349 138.466 16.9165C139.052 16.889 139.205 16.6549 138.966 16.1087C138.665 15.4202 138.083 15.1471 137.383 15.0645C136.388 14.9633 135.392 15.2564 134.608 15.8815C134.298 16.111 134.083 16.0972 133.835 15.8058C133.463 15.3743 133.066 14.9613 132.674 14.5482C132.446 14.3187 132.421 14.1075 132.708 13.8895C134.872 12.2441 137.269 11.9159 139.814 12.7122C141.182 13.1414 141.921 14.2361 142.215 15.5946C142.386 16.3938 142.48 17.2077 142.496 18.0249C142.539 19.7943 142.496 21.5683 142.521 23.3399C142.521 23.8311 142.382 24.0284 141.873 24.0009C141.229 23.9676 140.584 23.9676 139.94 24.0009C139.445 24.0238 139.109 23.9343 139.169 23.3353C139.18 23.2504 139.119 23.1609 139.052 22.9613ZM136.729 21.7817C138.25 21.7817 139.105 21.006 139.171 19.6428C139.187 19.333 139.15 19.0026 138.761 19.0439C137.84 19.1163 136.926 19.252 136.024 19.4501C135.746 19.5287 135.506 19.7082 135.352 19.954C135.197 20.1998 135.138 20.4944 135.187 20.7811C135.258 21.2883 135.73 21.6807 136.364 21.7519C136.519 21.7771 136.672 21.784 136.729 21.7886V21.7817Z" fill="#7F7B9F"/>
<path fill-rule="evenodd" clip-rule="evenodd" d="M4.72989 22.4335C5.373 23.1747 8.81886 26.0686 14.3309 28.4645C15.8679 29.1323 18.0025 29.3962 19.1451 29.3985V6.46096H16.6593C16.6593 6.46096 8.194 2.0387 6.06855 4.24869C3.94311 6.45868 3.49841 21.0129 4.72989 22.4335Z" fill="white"/>
<path d="M23.9432 28.4691C29.4552 26.0732 32.9011 23.5626 33.5442 22.8213C34.7756 21.4008 34.3332 6.46783 32.2055 4.25784C30.0778 2.04784 21.6148 6.46783 21.6148 6.46783H19.145V29.4054C20.2898 29.4008 22.4061 29.1323 23.9432 28.4691Z" fill="white"/>
<path d="M19.6101 31.3032V4.97611H18.6842V31.3032H19.6101ZM2.5997 23.3078L1.90415 23.9205L2.5997 23.3078ZM13.6215 30.2315L13.2543 31.0852L13.6215 30.2315ZM19.1472 4.97381V4.05585V4.97381ZM16.2942 4.97381L15.8678 5.79997L16.0685 5.90324H16.2965L16.2942 4.97381ZM35.6787 23.7438L34.9808 23.1334L35.6787 23.7438ZM24.6569 30.2246L24.292 29.3709L24.6569 30.2246ZM21.9841 4.9807V5.91243H22.2122L22.4129 5.80686L21.9841 4.9807ZM1.91555 23.9251C2.37165 24.4392 3.61226 25.5315 5.50737 26.8305C7.95381 28.4913 10.5498 29.9173 13.2611 31.0898L13.9932 29.3824C11.3876 28.2563 8.89243 26.8871 6.54044 25.2929C4.69094 24.0261 3.59401 23.037 3.30439 22.7019L1.91555 23.9251ZM13.2657 31.0898C15.1813 31.9229 17.7675 32.2373 19.1563 32.2373V30.3784C17.9202 30.3784 15.6055 30.0823 13.9932 29.3824L13.2657 31.0898ZM19.1449 4.04438H16.292V5.90324H19.1449V4.04438ZM16.2942 4.97841C16.7207 4.15224 16.7184 4.15223 16.7184 4.15223H16.6956L16.6089 4.10863L16.2874 3.948C16.0092 3.8103 15.6032 3.61752 15.1289 3.39492C14.1619 2.952 12.8484 2.38517 11.439 1.89635C10.0562 1.38676 8.62003 1.03795 7.15847 0.856755C5.85857 0.735125 4.4036 0.856763 3.47771 1.81144L4.80497 3.10346C5.10144 2.79594 5.77647 2.594 6.98515 2.70874C8.30004 2.87466 9.59167 3.1919 10.8347 3.65424C12.1665 4.11322 13.4276 4.65941 14.3604 5.08626C14.8165 5.30198 15.2064 5.48557 15.471 5.61638L15.7743 5.76785L15.8518 5.80686L15.8701 5.81833L16.2965 4.99217L16.2942 4.97841ZM3.47771 1.79538C3.00766 2.34916 2.656 2.99443 2.44463 3.69097C2.15288 4.56597 1.92424 5.46101 1.76047 6.36912C1.36414 8.61565 1.11049 10.8853 1.00106 13.1643C0.872601 15.3653 0.865749 17.5718 0.980537 19.7736C1.02291 20.5946 1.11429 21.4123 1.2542 22.2223C1.30814 22.5334 1.38436 22.8402 1.48225 23.1403C1.57291 23.425 1.71518 23.6903 1.90187 23.9228L3.29526 22.6996C3.32035 22.7318 3.29527 22.6996 3.22913 22.5298C3.15872 22.3161 3.10385 22.0975 3.06493 21.8758C2.94012 21.1431 2.85864 20.4036 2.82092 19.6612C2.70956 17.5313 2.71641 15.3967 2.84144 13.2676C2.94681 11.0718 3.19056 8.88495 3.57121 6.72023C3.71695 5.90271 3.92043 5.09668 4.18011 4.30828C4.3064 3.86635 4.51539 3.45275 4.79585 3.08969L3.47771 1.79538ZM34.9831 23.138C34.6745 23.4503 34.3395 23.7352 33.982 23.9894C33.4346 24.4025 32.6957 24.9073 31.779 25.488C29.3792 26.9689 26.8754 28.2721 24.2875 29.387L25.0195 31.0944C27.6888 29.9471 30.2712 28.6048 32.7459 27.0783C33.7015 26.4816 34.486 25.9309 35.0834 25.4902C35.5455 25.1584 35.9761 24.7843 36.3697 24.3726L34.9831 23.138ZM24.2875 29.387C22.6729 30.0892 20.3764 30.3876 19.1494 30.3853V32.2441C20.5451 32.2441 23.1107 31.9274 25.0241 31.0967L24.2875 29.387ZM19.1472 5.90324H21.9796V4.04208H19.1472V5.90324ZM21.9796 4.98528L22.406 5.81146H22.4243L22.5018 5.77015L22.8051 5.61868C23.0697 5.48787 23.4505 5.30428 23.9157 5.09085C24.8485 4.66171 26.1096 4.12011 27.4414 3.65654C28.6872 3.18864 29.9817 2.86451 31.3001 2.69038C32.5087 2.57563 33.1838 2.77989 33.478 3.08741L34.8075 1.79308C33.8816 0.831515 32.4266 0.716764 31.1267 0.840689C29.665 1.01975 28.2287 1.36782 26.8462 1.87799C25.4414 2.3668 24.1233 2.93364 23.1563 3.37885C22.6729 3.60834 22.276 3.79194 21.9978 3.92963L21.6763 4.09028L21.5896 4.13617H21.5668C21.5668 4.13617 21.5668 4.13617 21.991 4.96004L21.9796 4.98528ZM33.4734 3.09658C33.7567 3.46291 33.9659 3.8816 34.0891 4.32894C34.3501 5.13333 34.5536 5.95548 34.698 6.78909C35.0804 9.00297 35.3249 11.2387 35.4301 13.4833C35.5551 15.6645 35.562 17.851 35.4506 20.033C35.4134 20.7922 35.3312 21.5486 35.2043 22.298C35.1653 22.5225 35.1112 22.7441 35.0424 22.9613C34.9808 23.138 34.9489 23.1655 34.9763 23.1311L36.3697 24.3543C36.5583 24.1196 36.7007 23.8509 36.7893 23.5625C36.8865 23.2623 36.9627 22.9555 37.0173 22.6446C37.1575 21.8192 37.2489 20.9862 37.291 20.15C37.4058 17.8977 37.3989 15.6408 37.2705 13.3892C37.1632 11.0586 36.9111 8.73693 36.5156 6.43796C36.3537 5.51367 36.125 4.60247 35.8315 3.71161C35.576 2.96577 35.2476 2.25894 34.7984 1.79078L33.4734 3.09658Z" fill="white"/>
<path fill-rule="evenodd" clip-rule="evenodd" d="M37.4421 24.5017C36.6279 25.4404 32.2516 28.6325 25.255 31.6687C23.3051 32.5155 20.6164 32.8598 19.1637 32.8552C17.711 32.8506 15.0017 32.5178 13.0519 31.671C6.05525 28.628 1.67893 24.9538 0.86478 24.0129C-0.699657 22.2091 -0.138649 3.73975 2.56149 0.933084C5.26162 -1.87358 16.0166 3.73975 16.0166 3.73975H19.1705H22.304C22.304 3.73975 33.052 -1.87129 35.759 0.933084C38.466 3.73745 39.0202 22.7002 37.4557 24.504L37.4421 24.5017ZM34.751 11.586C35.3143 11.4529 34.7123 4.55903 32.8263 3.43224C30.9403 2.30544 25.5605 5.27963 25.7407 5.95663C25.9209 6.63363 34.1877 11.7168 34.751 11.586V11.586ZM5.48055 3.43452C3.59456 4.56132 2.99251 11.4529 3.55579 11.5883C4.11908 11.7237 12.3883 6.62444 12.5684 5.95433C12.7486 5.28422 7.36655 2.30772 5.48055 3.43452V3.43452ZM2.05977 23.5838C1.27527 22.2481 1.43491 20.0427 1.65156 19.8867C2.16924 19.5103 8.16245 16.146 11.3597 14.3537L13.2731 13.2774C14.1853 12.7564 15.565 13.936 16.0097 14.8838C16.4544 15.8316 15.9869 18.5281 15.9869 18.5281C15.9869 18.5281 14.1237 16.4306 13.2822 16.9217C12.4407 17.4128 5.11111 21.6239 4.32661 22.099C3.54211 22.574 4.32661 25.1351 4.32661 25.1351C4.32661 25.1351 2.52956 24.3847 2.0689 23.5998L2.05977 23.5838ZM28.0691 26.1931C28.0691 23.1822 23.6039 20.9699 19.1386 20.9699C14.6733 20.9699 10.2035 23.1822 10.2081 26.1931C10.2126 29.204 14.6847 31.4163 19.1568 31.4163C23.6289 31.4163 28.0737 29.2063 28.0691 26.1931V26.1931ZM19.223 28.8942C17.6722 28.8942 15.3119 26.4547 16.1306 25.5826C16.9493 24.7106 21.5673 24.7679 22.3245 25.5826C23.0816 26.3973 20.7806 28.8942 19.2321 28.8942H19.223ZM36.2379 23.5815C37.0224 22.2458 36.8628 20.0404 36.6462 19.8844C36.1285 19.5195 30.1353 16.146 26.938 14.3514L25.0246 13.2751C24.1124 12.7564 22.7441 13.936 22.288 14.8815C21.8319 15.827 22.3108 18.5258 22.3108 18.5258C22.3108 18.5258 24.174 16.4283 25.0155 16.9194C25.857 17.4105 33.1866 21.6216 33.9711 22.0967C34.7556 22.5717 33.9711 25.1328 33.9711 25.1328C33.9711 25.1328 35.7681 24.3824 36.2288 23.5975L36.2379 23.5815Z" fill="#7F7B9F"/>
</g>
<defs>
<clipPath id="clip0_1331_2745">
<rect width="156.608" height="32.7093" fill="white" transform="translate(0 0.145386)"/>
</clipPath>
</defs>
</svg>
