<svg width="360" height="228" viewBox="0 0 360 228" fill="none" xmlns="http://www.w3.org/2000/svg">
<path d="M343.656 140.482C343.696 126.122 323.631 114.426 298.839 114.356C274.047 114.287 253.917 125.872 253.877 140.231C253.836 154.59 273.902 166.287 298.694 166.356C323.486 166.425 343.616 154.841 343.656 140.482Z" fill="#DEDDE5"/>
<path d="M339.18 139.22V140.68C339.18 134.68 335.18 128.62 327.26 124.02C311.43 114.88 285.85 114.88 270.12 124.02C262.31 128.56 258.4 134.5 258.39 140.45V139C258.39 133.06 262.32 127.11 270.13 122.58C285.85 113.44 311.43 113.44 327.26 122.58C335.26 127.17 339.2 133.21 339.19 139.24" fill="#D3D1E1"/>
<path d="M330.42 120.72C348 130.87 348.09 147.33 330.62 157.49C313.15 167.65 284.73 167.64 267.14 157.49C249.55 147.34 249.47 130.87 266.94 120.72C284.41 110.57 312.83 110.56 330.42 120.72ZM270.31 155.65C286.14 164.79 311.71 164.79 327.44 155.65C343.17 146.51 343.08 131.65 327.25 122.56C311.42 113.47 285.84 113.42 270.12 122.56C254.4 131.7 254.48 146.51 270.31 155.65Z" fill="#F9F9FA"/>
<path d="M343.61 141.78C343.61 141.42 343.66 141.05 343.66 140.69V139.23C343.66 145.84 339.3 152.44 330.66 157.49C313.19 167.64 284.77 167.64 267.18 157.49C258.33 152.38 253.91 145.67 253.93 138.97V140.44C253.93 140.54 253.93 140.64 253.93 140.73V147.55C253.93 154.25 258.33 160.96 267.18 166.07C284.77 176.22 313.18 176.22 330.66 166.07C339.34 161.07 343.66 154.42 343.66 147.81V140.49C343.667 140.923 343.65 141.353 343.61 141.78Z" fill="#F5F5F5"/>
<path d="M316.05 145.27C313.34 146.511 310.251 146.637 307.45 145.62C308.81 148.09 308.01 150.22 302.76 151.69C300.838 152.312 298.805 152.516 296.797 152.288C294.79 152.061 292.854 151.407 291.12 150.37C289.82 149.602 288.592 148.718 287.45 147.73L281 150L278.63 147.74L285.03 145.5C284.42 144.92 283.8 144.31 283.17 143.68L276.74 145.92L274.39 143.66L280.88 141.39L276.13 136.81L281.27 135.64C281.35 135.71 282.86 137.21 282.98 137.28C283.083 137.373 283.193 137.456 283.31 137.53C283.89 137.809 284.551 137.866 285.17 137.69L302.76 131.55C303.46 131.19 304.06 130.55 303.11 129.65C303.19 129.65 301.48 128.09 301.39 128.01L305.56 126.55C305.77 126.75 309.81 130.63 310.34 131.12L316.76 128.88L319.13 131.15L312.83 133.34C313.49 133.94 314.14 134.54 314.76 135.14L321 133L323.37 135.26L316.95 137.5C319.54 140.54 320.41 143.39 316.05 145.27ZM298.86 146.94C303.92 145.17 298.13 140.62 296.53 139.08L287.92 142.08C289.34 143.603 290.942 144.947 292.69 146.08C293.589 146.675 294.608 147.064 295.674 147.22C296.741 147.375 297.829 147.293 298.86 146.98V146.94ZM309.86 141.69C314.47 140.08 309.57 136.31 308.24 135.02L300.44 137.75C301.583 138.975 302.876 140.051 304.29 140.95C305.105 141.479 306.028 141.821 306.991 141.949C307.955 142.077 308.935 141.988 309.86 141.69Z" fill="white"/>
<path d="M270.25 219.79L268.43 220.85C268.796 220.591 269.086 220.24 269.272 219.833C269.458 219.425 269.534 218.976 269.49 218.53L271.31 217.47C271.356 217.916 271.282 218.366 271.095 218.774C270.909 219.182 270.617 219.533 270.25 219.79Z" fill="#A8A4C3"/>
<path d="M269.49 218.53L271.31 217.47C271.356 217.916 271.282 218.366 271.095 218.774C270.909 219.182 270.617 219.533 270.25 219.79L268.43 220.85C268.796 220.591 269.086 220.24 269.272 219.833C269.458 219.425 269.534 218.976 269.49 218.53Z" fill="#A8A4C3"/>
<path d="M115.69 20.2L117.51 19.2C117.923 19.0062 118.38 18.9271 118.834 18.9711C119.288 19.0151 119.722 19.1805 120.09 19.45L118.27 20.51C117.906 20.2337 117.476 20.0594 117.022 20.0049C116.569 19.9504 116.109 20.0178 115.69 20.2Z" fill="#A8A4C3"/>
<path d="M115.69 20.2L117.51 19.2C117.86 19.0268 118.248 18.9426 118.639 18.9548C119.029 18.967 119.411 19.0753 119.75 19.27L117.93 20.33C117.591 20.1362 117.21 20.0277 116.82 20.0137C116.43 19.9998 116.042 20.0809 115.69 20.25" fill="#A8A4C3"/>
<path d="M117.93 20.28L119.75 19.22C119.86 19.28 119.98 19.33 120.09 19.4L118.27 20.46L117.93 20.28Z" fill="#A8A4C3"/>
<path d="M114.33 128.94C114.397 130.195 114.759 131.417 115.386 132.506C116.013 133.596 116.888 134.522 117.94 135.21L265.85 220.6C267.85 221.76 269.48 220.83 269.49 218.53L269.79 112.11C269.721 110.856 269.357 109.635 268.728 108.548C268.099 107.46 267.223 106.536 266.17 105.85L118.27 20.46C116.27 19.3 114.64 20.23 114.63 22.53" fill="#D3D1E1"/>
<path d="M269.79 112.11L271.61 111.06L271.31 217.47L269.49 218.53L269.79 112.11Z" fill="#A8A4C3"/>
<path d="M118.27 20.46L120.09 19.4L268 104.79L266.17 105.85L118.27 20.46Z" fill="#A8A4C3"/>
<path d="M266.17 105.85L268 104.79C269.052 105.478 269.927 106.404 270.554 107.494C271.181 108.583 271.543 109.805 271.61 111.06L269.79 112.06C269.713 110.814 269.345 109.604 268.717 108.526C268.088 107.447 267.216 106.531 266.17 105.85Z" fill="#A8A4C3"/>
<path d="M266.17 105.85L268 104.79C268.596 105.147 269.13 105.6 269.58 106.13L267.76 107.19C267.306 106.66 266.769 106.207 266.17 105.85Z" fill="#A8A4C3"/>
<path d="M267.76 107.19L269.58 106.13C270.158 106.786 270.631 107.528 270.98 108.33L269.16 109.39C268.811 108.588 268.338 107.846 267.76 107.19Z" fill="#A8A4C3"/>
<path d="M269.16 109.39L270.98 108.33C271.311 109.057 271.518 109.834 271.59 110.63L269.77 111.69C269.699 110.894 269.493 110.116 269.16 109.39Z" fill="#A8A4C3"/>
<path d="M269.77 111.69L271.59 110.63C271.6 110.773 271.6 110.917 271.59 111.06L269.77 112.06C269.77 111.92 269.77 111.78 269.77 111.64" fill="#A8A4C3"/>
<path d="M132.28 80L137.48 91.81L133.69 89.62C133.273 89.3505 132.927 88.9862 132.678 88.5569C132.43 88.1275 132.286 87.6454 132.26 87.15L132.28 80Z" fill="#A8A4C3"/>
<path d="M137.17 82.58L142.47 94.64L138 92.06L132.69 79.99L137.17 82.58Z" fill="#A8A4C3"/>
<path d="M150.85 90.47L150.84 95.75L147.71 88.66L150.85 90.47Z" fill="#A8A4C3"/>
<path d="M142.53 76.16L137.18 82.08L132.7 79.49L138.06 73.58L142.53 76.16Z" fill="#A8A4C3"/>
<path d="M147.53 79.05L142.03 85.14L147.48 97.54L143 94.95L137.55 82.55L143.05 76.46L147.53 79.05Z" fill="#A8A4C3"/>
<path d="M150.87 84.71L150.85 89.97L147.72 88.17L150.87 84.71Z" fill="#A8A4C3"/>
<path d="M149.44 80.15C149.861 80.4174 150.211 80.7826 150.46 81.2144C150.709 81.6463 150.849 82.1319 150.87 82.63V83.82L147 88L150.79 96.61V97.79C150.79 98.7 150.14 99.07 149.35 98.61L147.97 97.81L142.52 85.41L148.02 79.32L149.44 80.15Z" fill="#A8A4C3"/>
<path d="M137.53 73.27L132.28 79.07V71.91C132.28 70.99 132.92 70.63 133.71 71.08L137.53 73.27Z" fill="#A8A4C3"/>
<path d="M317.53 57.21V62C317.53 66.3 314.69 70.59 309.04 73.87C297.68 80.47 279.2 80.47 267.77 73.87C262.02 70.55 259.14 66.19 259.15 61.87V57.11C259.15 61.46 262.01 65.82 267.76 69.11C279.2 75.71 297.68 75.72 309.04 69.11C314.68 65.83 317.51 61.54 317.52 57.24" fill="#F5F5F5"/>
<path d="M317.527 57.2154C317.553 47.8818 304.506 40.2789 288.385 40.2339C272.264 40.1889 259.174 47.7188 259.148 57.0523C259.122 66.3859 272.169 73.9888 288.29 74.0338C304.411 74.0788 317.501 66.5489 317.527 57.2154Z" fill="#DEDDE5"/>
<path d="M314.61 56.38V57.38C314.61 53.46 312.04 49.53 306.86 46.54C296.57 40.6 279.94 40.6 269.71 46.54C264.63 49.54 262.09 53.36 262.08 57.22V56.22C262.08 52.35 264.63 48.49 269.71 45.54C279.94 39.6 296.57 39.6 306.86 45.54C312.04 48.54 314.63 52.46 314.62 56.37" fill="#D3D1E1"/>
<path d="M308.91 44.35C320.34 51 320.4 61.66 309 68.26C297.6 74.86 279.16 74.86 267.73 68.26C256.3 61.66 256.23 50.96 267.59 44.36C278.95 37.76 297.47 37.75 308.91 44.35ZM269.83 67.07C280.12 73 296.75 73 307 67.07C317.25 61.14 317.17 51.49 306.88 45.55C296.59 39.61 279.96 39.61 269.73 45.55C259.5 51.49 259.56 61.13 269.86 67.07" fill="#F9F9FA"/>
<path d="M317.52 56.3899V57.3899C317.52 61.6899 314.68 65.9799 309.04 69.2599C297.68 75.8699 279.2 75.8699 267.77 69.2599C262.01 65.9399 259.14 61.5799 259.15 57.2599V56.2599C259.15 60.6099 262.01 64.9699 267.77 68.2599C279.2 74.8599 297.68 74.8599 309.04 68.2599C314.69 64.9799 317.51 60.6899 317.52 56.3899Z" fill="#F5F5F5"/>
<path d="M74.17 136.74L79.46 133.67L81.18 134.67L75.9 137.74C75.6342 137.878 75.3393 137.949 75.04 137.949C74.7407 137.949 74.4457 137.878 74.18 137.74C74.076 137.705 73.9857 137.638 73.9213 137.549C73.857 137.46 73.8218 137.353 73.8207 137.244C73.8196 137.134 73.8526 137.026 73.9152 136.936C73.9777 136.846 74.0668 136.777 74.17 136.74Z" fill="white"/>
<path d="M88.21 136.74C88.69 137.02 88.69 137.46 88.21 137.74C87.9442 137.878 87.6493 137.95 87.35 137.95C87.0507 137.95 86.7557 137.878 86.49 137.74L81.17 134.67L79.45 133.67L74.13 130.6C74.0264 130.564 73.9367 130.496 73.8733 130.406C73.8098 130.317 73.7758 130.21 73.7758 130.1C73.7758 129.99 73.8098 129.883 73.8733 129.794C73.9367 129.704 74.0264 129.636 74.13 129.6C74.3972 129.467 74.6915 129.398 74.99 129.398C75.2884 129.398 75.5828 129.467 75.85 129.6L81.17 132.67L82.9 133.67L88.21 136.74Z" fill="white"/>
<path d="M88.17 129.6C88.2736 129.636 88.3633 129.704 88.4267 129.794C88.4902 129.883 88.5242 129.99 88.5242 130.1C88.5242 130.21 88.4902 130.317 88.4267 130.406C88.3633 130.496 88.2736 130.564 88.17 130.6L82.89 133.67L81.16 132.67L86.44 129.6C86.7085 129.465 87.0047 129.395 87.305 129.395C87.6054 129.395 87.9015 129.465 88.17 129.6Z" fill="white"/>
<path d="M94.9 125.69C102.54 130.1 102.57 137.24 94.99 141.64C87.41 146.04 75.09 146.05 67.45 141.64C59.81 137.23 59.78 130.1 67.36 125.69C74.94 121.28 87.27 121.29 94.9 125.69ZM86.5 137.69C86.7657 137.828 87.0607 137.899 87.36 137.899C87.6593 137.899 87.9542 137.828 88.22 137.69C88.3286 137.659 88.4242 137.593 88.4923 137.503C88.5603 137.413 88.5971 137.303 88.5971 137.19C88.5971 137.077 88.5603 136.967 88.4923 136.877C88.4242 136.787 88.3286 136.721 88.22 136.69L82.91 133.62L88.19 130.55C88.2935 130.514 88.3832 130.446 88.4467 130.356C88.5101 130.267 88.5442 130.16 88.5442 130.05C88.5442 129.94 88.5101 129.833 88.4467 129.744C88.3832 129.654 88.2935 129.586 88.19 129.55C87.9228 129.417 87.6284 129.348 87.33 129.348C87.0315 129.348 86.7372 129.417 86.47 129.55L81.19 132.62L75.87 129.55C75.6028 129.417 75.3084 129.348 75.01 129.348C74.7115 129.348 74.4172 129.417 74.15 129.55C74.0464 129.586 73.9567 129.654 73.8933 129.744C73.8298 129.833 73.7958 129.94 73.7958 130.05C73.7958 130.16 73.8298 130.267 73.8933 130.356C73.9567 130.446 74.0464 130.514 74.15 130.55L79.47 133.62L74.18 136.69C74.0764 136.726 73.9867 136.794 73.9233 136.884C73.8598 136.973 73.8258 137.08 73.8258 137.19C73.8258 137.3 73.8598 137.407 73.9233 137.496C73.9867 137.586 74.0764 137.654 74.18 137.69C74.4457 137.828 74.7407 137.899 75.04 137.899C75.3393 137.899 75.6342 137.828 75.9 137.69L81.18 134.62L86.5 137.69Z" fill="#1CC283"/>
<path d="M313.14 88.72C313.62 89 313.62 89.45 313.14 89.72L307.86 92.79L306.13 91.79L311.41 88.72C311.678 88.5854 311.975 88.5153 312.275 88.5153C312.575 88.5153 312.872 88.5854 313.14 88.72Z" fill="white"/>
<path d="M299.14 95.86L304.42 92.79L306.15 93.79L300.87 96.86C300.604 96.9953 300.309 97.0658 300.01 97.0658C299.711 97.0658 299.416 96.9953 299.15 96.86C298.67 96.58 298.66 96.13 299.14 95.86Z" fill="white"/>
<path d="M313.18 95.86C313.284 95.8964 313.373 95.9641 313.437 96.0536C313.5 96.1432 313.534 96.2502 313.534 96.36C313.534 96.4698 313.5 96.5768 313.437 96.6664C313.373 96.7559 313.284 96.8236 313.18 96.86C312.913 96.9953 312.619 97.0658 312.32 97.0658C312.021 97.0658 311.726 96.9953 311.46 96.86L306.14 93.8L304.41 92.8L299.1 89.73C298.62 89.45 298.61 89.01 299.1 88.73C299.366 88.5947 299.661 88.5242 299.96 88.5242C300.259 88.5242 300.554 88.5947 300.82 88.73L306.14 91.79L307.87 92.79L313.18 95.86Z" fill="white"/>
<path d="M319.87 84.81C327.5 89.22 327.54 96.36 319.96 100.81C312.38 105.26 300.05 105.21 292.42 100.81C284.79 96.41 284.74 89.27 292.33 84.81C299.92 80.35 312.24 80.41 319.87 84.81ZM311.47 96.81C311.737 96.9452 312.031 97.0157 312.33 97.0157C312.629 97.0157 312.924 96.9452 313.19 96.81C313.294 96.7736 313.383 96.7059 313.447 96.6163C313.51 96.5268 313.544 96.4197 313.544 96.31C313.544 96.2002 313.51 96.0932 313.447 96.0036C313.383 95.914 313.294 95.8464 313.19 95.81L307.88 92.74L313.16 89.67C313.63 89.4 313.63 88.95 313.16 88.67C312.893 88.537 312.598 88.4678 312.3 88.4678C312.002 88.4678 311.707 88.537 311.44 88.67L306.16 91.74L300.84 88.68C300.574 88.5447 300.279 88.4742 299.98 88.4742C299.681 88.4742 299.386 88.5447 299.12 88.68C298.64 88.96 298.65 89.4 299.12 89.68L304.43 92.75L299.15 95.82C298.67 96.09 298.68 96.54 299.15 96.82C299.416 96.9552 299.711 97.0257 300.01 97.0257C300.309 97.0257 300.604 96.9552 300.87 96.82L306.15 93.75L311.47 96.81Z" fill="#1CC283"/>
<path d="M108.71 177V181.75C108.71 186.05 105.87 190.34 100.23 193.62C88.87 200.23 70.39 200.23 58.95 193.62C53.2 190.3 50.32 185.94 50.34 181.62V176.86C50.34 181.21 53.2 185.57 58.96 188.86C70.39 195.46 88.87 195.46 100.23 188.86C105.87 185.58 108.7 181.28 108.71 176.99" fill="#F5F5F5"/>
<path d="M108.714 176.939C108.74 167.605 95.6923 160.003 79.5711 159.957C63.45 159.912 50.3601 167.442 50.3341 176.776C50.308 186.109 63.3556 193.712 79.4768 193.757C95.5979 193.802 108.688 186.273 108.714 176.939Z" fill="#DEDDE5"/>
<path d="M105.79 176.13V177.13C105.79 173.21 103.21 169.28 98.03 166.29C87.74 160.35 71.11 160.35 60.88 166.29C55.8 169.29 53.26 173.11 53.25 176.98V175.98C53.25 172.11 55.81 168.24 60.89 165.29C71.11 159.35 87.74 159.35 98.03 165.29C103.21 168.29 105.8 172.21 105.79 176.13Z" fill="#D3D1E1"/>
<path d="M100.09 164.1C111.53 170.7 111.59 181.4 100.22 188.01C88.85 194.62 70.38 194.61 58.95 188.01C47.52 181.41 47.46 170.7 58.82 164.1C70.18 157.5 88.66 157.49 100.09 164.1ZM61 186.81C71.29 192.75 87.92 192.75 98.14 186.81C108.36 180.87 108.32 171.23 98.02 165.29C87.72 159.35 71.1 159.35 60.88 165.29C50.66 171.23 50.71 180.87 61 186.81Z" fill="#F9F9FA"/>
<path d="M108.71 176.13V177.13C108.71 181.43 105.88 185.73 100.23 189.01C88.87 195.61 70.39 195.61 58.96 189.01C53.2 185.68 50.33 181.32 50.34 177.01V176C50.34 180.35 53.2 184.71 58.95 188C70.38 194.6 88.87 194.6 100.22 188C105.87 184.72 108.69 180.42 108.71 176.12" fill="#F5F5F5"/>
<path d="M158 115.75C158.059 116.904 158.39 118.028 158.967 119.029C159.544 120.031 160.351 120.881 161.32 121.51L226 158.83C226.31 159.011 226.648 159.139 227 159.21C227.1 158.886 227.15 158.549 227.15 158.21V146.31C227.09 145.154 226.757 144.028 226.178 143.025C225.6 142.022 224.791 141.17 223.82 140.54L159.2 103.22C158.887 103.047 158.55 102.922 158.2 102.85C158.096 103.173 158.042 103.51 158.04 103.85L158 115.75Z" fill="#7D77A6"/>
<path d="M227.8 158.61L226.48 159.38L227.8 158.61Z" fill="#A7A2C2"/>
<path d="M157.4 103.44L158.26 102.94L157.4 103.44Z" fill="#A7A2C2"/>
<path d="M227 159.21C226.648 159.139 226.31 159.011 226 158.83L161.36 121.51C160.391 120.881 159.584 120.031 159.007 119.029C158.43 118.028 158.099 116.904 158.04 115.75V103.85C158.042 103.51 158.096 103.173 158.2 102.85C157.732 102.718 157.232 102.768 156.8 102.99C156.457 103.227 156.183 103.551 156.008 103.929C155.832 104.307 155.76 104.725 155.8 105.14V117.04C155.859 118.194 156.19 119.318 156.767 120.319C157.344 121.321 158.151 122.171 159.12 122.8L223.76 160.12C224.099 160.368 224.499 160.522 224.917 160.564C225.336 160.606 225.758 160.536 226.14 160.36C226.559 160.096 226.866 159.687 227 159.21Z" fill="#A7A2C2"/>
<path d="M158.26 102.94L159.58 102.17L158.26 102.94Z" fill="#D3D1E1"/>
<path d="M189.18 118.16L168.92 106.46C159.7 107.86 150.98 110.68 143.92 114.9C134.79 120.38 130.2 127.23 130.06 133.99C130.7 140.82 135.92 147.44 145.68 152.32C165.87 162.41 197.8 161.26 216.99 149.73C220.559 147.668 223.741 144.998 226.39 141.84C225.455 139.889 223.953 138.265 222.08 137.18L204.21 126.86L189.18 118.16Z" fill="#DEDDE5"/>
<path d="M138.45 117.05L139.04 116.54L138.45 117.05Z" fill="#DEDDE5"/>
<path d="M141.59 114.66L142.16 114.26L141.59 114.66Z" fill="#DEDDE5"/>
<path d="M132.14 124.59L132.46 123.98L132.14 124.59Z" fill="#DEDDE5"/>
<path d="M132.89 123.3C133.01 123.1 133.13 122.89 133.27 122.69C133.13 122.89 133 123.1 132.89 123.3Z" fill="#DEDDE5"/>
<path d="M133.76 122C133.91 121.81 134.04 121.61 134.19 121.41C134 121.62 133.91 121.82 133.76 122Z" fill="#DEDDE5"/>
<path d="M137.08 118.27L137.66 117.73L137.08 118.27Z" fill="#DEDDE5"/>
<path d="M140 115.84L140.6 115.38L140 115.84Z" fill="#DEDDE5"/>
<path d="M134.75 120.75C134.91 120.55 135.06 120.36 135.23 120.17C135.06 120.36 134.91 120.55 134.75 120.75Z" fill="#DEDDE5"/>
<path d="M135.85 119.51C136.03 119.32 136.2 119.12 136.39 118.94C136.2 119.12 136 119.32 135.85 119.51Z" fill="#DEDDE5"/>
<path d="M142.16 114.26L141.59 114.66C141.24 114.9 140.88 115.14 140.59 115.38L139.99 115.84L139.08 116.54L138.49 117.05C138.22 117.27 137.95 117.5 137.7 117.73L137.12 118.27C136.89 118.49 136.65 118.71 136.43 118.94C136.21 119.17 136.07 119.32 135.89 119.51L135.27 120.17C135.1 120.36 134.95 120.55 134.79 120.75C134.63 120.95 134.41 121.19 134.23 121.42C134.05 121.65 133.95 121.82 133.8 122.01L133.31 122.69C133.17 122.89 133.05 123.1 132.93 123.3L132.5 123.98L132.18 124.59C132.05 124.82 131.92 125.05 131.81 125.28C131.7 125.51 131.63 125.69 131.54 125.9C131.45 126.11 131.33 126.36 131.24 126.59C131.15 126.82 131.09 127.01 131.01 127.22C130.93 127.43 130.84 127.67 130.77 127.9C130.7 128.13 130.66 128.33 130.61 128.54C130.56 128.75 130.48 129 130.43 129.23C130.38 129.46 130.35 129.65 130.31 129.86C130.27 130.07 130.23 130.32 130.2 130.55C130.17 130.78 130.2 130.98 130.14 131.19C130.08 131.4 130.14 131.65 130.08 131.88C130.02 132.11 130.08 132.31 130.08 132.53C130.08 133.01 130.08 133.53 130.14 133.99C130.28 127.23 134.87 120.38 144 114.9C151 110.68 159.74 107.9 169 106.46L166.65 105.11C158.676 106.401 150.998 109.11 143.98 113.11C143.3 113.52 142.72 113.89 142.16 114.26Z" fill="#D3D1E1"/>
<path d="M228 147.55C227.91 145.76 227.71 142.95 226.77 141.55C223.909 144.686 220.64 147.424 217.05 149.69C197.86 161.22 165.93 162.37 145.74 152.28C135.98 147.4 130.74 140.78 130.12 133.95C130.12 134.24 130.12 134.54 130.12 134.83L130.05 133.1C130.05 132.89 130.05 132.69 130.05 132.49C130.05 132.29 130.05 132.06 130.05 131.84C130.05 131.62 130.05 131.38 130.11 131.15C130.17 130.92 130.11 130.73 130.17 130.51C130.23 130.29 130.24 130.05 130.28 129.82C130.32 129.59 130.35 129.4 130.4 129.19C130.45 128.98 130.51 128.73 130.58 128.5C130.65 128.27 130.68 128.08 130.74 127.86C130.8 127.64 130.9 127.41 130.98 127.18C131.06 126.95 131.12 126.76 131.21 126.55C131.3 126.34 131.41 126.09 131.51 125.86C131.61 125.63 131.68 125.44 131.78 125.24C131.88 125.04 132.02 124.78 132.15 124.55L132.47 123.94L132.9 123.26C133.02 123.06 133.14 122.85 133.28 122.65L133.77 121.97C133.92 121.78 134.05 121.58 134.2 121.38C134.35 121.18 134.57 120.93 134.76 120.71C134.95 120.49 135.07 120.32 135.24 120.13L135.86 119.47C136.04 119.28 136.21 119.08 136.4 118.9C136.59 118.72 136.86 118.45 137.09 118.23L137.67 117.69C137.92 117.46 138.19 117.23 138.46 117.01L139.05 116.5L139.96 115.8L140.56 115.34C140.89 115.1 141.25 114.86 141.56 114.62L142.13 114.22C142.69 113.85 143.27 113.48 143.87 113.12C150.888 109.121 158.566 106.411 166.54 105.12L164.31 103.83L162.31 102.7C154.38 104.253 146.761 107.104 139.76 111.14C129.13 117.53 124.03 125.57 124.35 133.41C124.35 133.67 124.35 133.92 124.42 134.18V134.26C124.42 134.47 124.42 134.68 124.48 134.89C124.54 135.1 124.57 135.4 124.61 135.66C124.65 135.92 124.69 136.13 124.74 136.36C124.79 136.59 124.87 136.87 124.93 137.12C124.99 137.37 125.05 137.59 125.12 137.82C125.19 138.05 125.3 138.33 125.38 138.58C125.46 138.83 125.54 139.04 125.63 139.27C125.72 139.5 125.85 139.77 125.97 140.02C126.09 140.27 126.16 140.48 126.27 140.7C126.38 140.92 126.54 141.2 126.68 141.45C126.82 141.7 126.91 141.9 127.04 142.12C127.17 142.34 127.36 142.61 127.52 142.86C127.68 143.11 127.79 143.3 127.94 143.51C128.09 143.72 128.3 144 128.49 144.25C128.68 144.5 128.8 144.67 128.97 144.88C129.14 145.09 129.38 145.37 129.59 145.61L130.12 146.22C130.34 146.47 130.58 146.7 130.82 146.94L131.4 147.54L132.17 148.24L132.81 148.82L133.67 149.52C133.9 149.7 134.11 149.89 134.35 150.07C134.59 150.25 134.98 150.53 135.3 150.76L136.02 151.27C136.36 151.51 136.72 151.74 137.07 151.96C137.42 152.18 137.55 152.29 137.81 152.44C138.07 152.59 138.65 152.94 139.07 153.18L139.73 153.57C140.397 153.943 141.063 154.303 141.73 154.65C164.17 165.87 200.01 164.65 221.33 151.85L228 147.55Z" fill="#F9F9FA"/>
<path d="M226.43 141.84C226.18 142.15 225.91 142.46 225.64 142.77C226.522 144.229 226.979 145.905 226.96 147.61L227.16 147.44L227.54 147.11V146.57C227.536 144.929 227.156 143.311 226.43 141.84Z" fill="#F9F9FA"/>
<path d="M139 116.54L139.91 115.84L139 116.54Z" fill="#F9F9FA"/>
<path d="M131.77 125.28C131.88 125.05 132.01 124.82 132.14 124.59C132 124.82 131.88 125.05 131.77 125.28Z" fill="#F9F9FA"/>
<path d="M132.46 124L132.89 123.32L132.46 124Z" fill="#F9F9FA"/>
<path d="M134.19 121.42C134.37 121.19 134.56 120.97 134.75 120.75C134.56 121 134.37 121.19 134.19 121.42Z" fill="#F9F9FA"/>
<path d="M135.23 120.17L135.85 119.51L135.23 120.17Z" fill="#F9F9FA"/>
<path d="M136.39 118.94C136.61 118.71 136.85 118.49 137.08 118.27C136.85 118.49 136.61 118.71 136.39 118.94Z" fill="#F9F9FA"/>
<path d="M137.66 117.73C137.91 117.5 138.18 117.27 138.45 117.05C138.18 117.27 137.91 117.5 137.66 117.73Z" fill="#F9F9FA"/>
<path d="M133.27 122.69L133.76 122.01L133.27 122.69Z" fill="#F9F9FA"/>
<path d="M142.16 114.26C142.72 113.89 143.3 113.52 143.9 113.16C143.3 113.52 142.72 113.89 142.16 114.26Z" fill="#F9F9FA"/>
<path d="M140.55 115.38C140.88 115.14 141.24 114.9 141.55 114.66C141.24 114.9 140.88 115.14 140.55 115.38Z" fill="#F9F9FA"/>
<path d="M227.54 148.66V147.11L227.16 147.44L226.49 148.01L225.49 148.76C225.26 148.94 225.04 149.12 224.8 149.29C224.56 149.46 224.05 149.82 223.66 150.08C223.44 150.24 223.23 150.39 223 150.54C222.38 150.96 221.74 151.36 221.07 151.76C199.75 164.57 164.27 165.86 141.83 154.64C141.163 154.293 140.497 153.933 139.83 153.56L139.17 153.17C138.75 152.93 138.32 152.69 137.91 152.43C137.5 152.17 137.42 152.11 137.17 151.95C136.92 151.79 136.46 151.5 136.12 151.26L135.4 150.75C135.08 150.52 134.75 150.29 134.45 150.06C134.15 149.83 134 149.69 133.77 149.51L132.91 148.81L132.27 148.23L131.5 147.53L130.92 146.93C130.68 146.69 130.44 146.46 130.22 146.21L129.69 145.6C129.48 145.36 129.26 145.12 129.07 144.87C128.88 144.62 128.75 144.45 128.59 144.24C128.43 144.03 128.21 143.75 128.04 143.5C127.87 143.25 127.76 143.07 127.62 142.85C127.48 142.63 127.29 142.36 127.14 142.11C126.99 141.86 126.9 141.66 126.78 141.44C126.66 141.22 126.5 140.94 126.37 140.69C126.24 140.44 126.17 140.24 126.07 140.01C125.97 139.78 125.83 139.51 125.73 139.26C125.63 139.01 125.57 138.8 125.48 138.57C125.39 138.34 125.3 138.07 125.22 137.81C125.14 137.55 125.09 137.35 125.03 137.11C124.97 136.87 124.89 136.61 124.84 136.35C124.79 136.09 124.75 135.88 124.71 135.65C124.67 135.42 124.61 135.14 124.58 134.88C124.55 134.62 124.58 134.47 124.52 134.26C124.52 134.47 124.52 134.69 124.52 134.9C124.52 134.9 124.52 134.85 124.52 134.82V135.41L124.82 143.48C125.12 151.41 130.96 159.15 142.25 164.79C164.69 176.01 200.16 174.72 221.49 161.91C222.28 161.44 223.04 160.96 223.76 160.46C224.92 159.68 225.871 158.628 226.53 157.396C227.189 156.163 227.536 154.788 227.54 153.39V148.66Z" fill="#F5F5F5"/>
<g opacity="0.5">
<path opacity="0.4" d="M154.18 146.78L188.73 151.84L179.87 131.84L154.18 146.78Z" fill="white"/>
</g>
<g opacity="0.9">
<path opacity="0.8" d="M201.58 144.38L214.43 136.91L179.87 131.84L201.58 144.38Z" fill="white"/>
</g>
<g opacity="0.9">
<path opacity="0.8" d="M145.31 126.78L179.87 131.84L158.17 119.31L145.31 126.78Z" fill="white"/>
</g>
<path opacity="0.9" d="M154.18 146.78L179.87 131.84L145.31 126.78L154.18 146.78Z" fill="white"/>
<path opacity="0.9" d="M213.46 134.57L194.23 123.53L193.21 124.12L214.14 136.21L213.46 134.57Z" fill="white"/>
<path opacity="0.9" d="M193.21 124.12L179.87 131.84L214.43 136.91L214.14 136.21L193.21 124.12Z" fill="white"/>
<g opacity="0.7">
<path opacity="0.6" d="M188.73 151.84L201.58 144.38L179.87 131.84L188.73 151.84Z" fill="white"/>
</g>
<g opacity="0.5">
<path opacity="0.4" d="M194.29 123.53L175.18 112.43L172.3 112.03L193.24 124.14L194.29 123.53Z" fill="white"/>
<path opacity="0.4" d="M172.3 112.03L171.01 111.85L179.87 131.84L193.24 124.14L172.3 112.03Z" fill="white"/>
</g>
<g opacity="0.7">
<path opacity="0.6" d="M158.17 119.31L179.87 131.84L171.01 111.85L158.17 119.31Z" fill="white"/>
</g>
<g style="mix-blend-mode:multiply" opacity="0.7">
<path d="M225 139.87L160.37 102.55C160.031 102.305 159.633 102.155 159.216 102.114C158.8 102.074 158.38 102.145 158 102.32L156.65 103.1L155.78 103.61C156.212 103.389 156.712 103.339 157.18 103.47C157.532 103.541 157.87 103.67 158.18 103.85L222.82 141.16C223.789 141.793 224.595 142.646 225.173 143.648C225.752 144.65 226.086 145.774 226.15 146.93V158.83C226.151 159.169 226.1 159.506 226 159.83C225.876 160.3 225.584 160.709 225.18 160.98L226.05 160.47L227.4 159.69C227.743 159.453 228.017 159.129 228.193 158.751C228.368 158.373 228.44 157.955 228.4 157.54V145.64C228.328 144.478 227.983 143.35 227.392 142.347C226.801 141.344 225.982 140.495 225 139.87Z" fill="#DEDDE5"/>
</g>
<path d="M226.06 139.25L161.42 101.93C161.081 101.685 160.683 101.535 160.266 101.494C159.85 101.454 159.43 101.525 159.05 101.7L157.7 102.48L156.83 102.99C157.262 102.768 157.762 102.718 158.23 102.85C158.58 102.922 158.917 103.047 159.23 103.22L223.86 140.54C224.831 141.17 225.64 142.022 226.218 143.025C226.797 144.028 227.13 145.154 227.19 146.31V158.21C227.19 158.549 227.14 158.886 227.04 159.21C226.916 159.68 226.624 160.089 226.22 160.36L227.09 159.85L228.44 159.06C228.783 158.826 229.057 158.503 229.233 158.127C229.409 157.75 229.48 157.334 229.44 156.92V145.02C229.371 143.86 229.028 142.733 228.441 141.73C227.854 140.728 227.038 139.878 226.06 139.25Z" fill="#D3D1E1"/>
<path d="M277 55C277.255 55.1145 277.475 55.2939 277.638 55.5204C277.801 55.7468 277.902 56.0123 277.93 56.29C277.93 57.29 276.52 58.12 274.78 58.12C274 58.1382 273.229 57.9557 272.54 57.59C272.285 57.4739 272.064 57.2926 271.901 57.0645C271.738 56.8363 271.637 56.5692 271.61 56.29C271.61 55.29 273.01 54.46 274.76 54.46C275.54 54.4475 276.311 54.6333 277 55Z" fill="white"/>
<path d="M290.48 47.17C290.735 47.2845 290.955 47.4639 291.118 47.6904C291.281 47.9168 291.382 48.1823 291.41 48.46C291.41 49.46 290.01 50.29 288.27 50.29C287.49 50.3082 286.719 50.1257 286.03 49.76C285.773 49.6456 285.552 49.4648 285.388 49.2363C285.225 49.0078 285.125 48.7398 285.1 48.46C285.1 47.46 286.5 46.63 288.25 46.63C289.027 46.6161 289.795 46.802 290.48 47.17Z" fill="white"/>
<path d="M304.11 55C304.366 55.1128 304.587 55.2918 304.75 55.5186C304.914 55.7453 305.014 56.0117 305.04 56.29C305.04 57.29 303.64 58.12 301.9 58.12C301.12 58.1383 300.349 57.9558 299.66 57.59C299.405 57.4739 299.184 57.2926 299.021 57.0645C298.858 56.8363 298.757 56.5692 298.73 56.29C298.73 55.29 300.13 54.46 301.88 54.46C302.657 54.4461 303.425 54.6321 304.11 55Z" fill="white"/>
<path d="M290.61 62.89C290.865 63.0045 291.085 63.184 291.248 63.4104C291.411 63.6368 291.512 63.9023 291.54 64.18C291.54 65.18 290.13 66.01 288.39 66.01C287.611 66.0256 286.84 65.8433 286.15 65.48C285.895 65.3639 285.674 65.1826 285.511 64.9545C285.348 64.7263 285.247 64.4592 285.22 64.18C285.22 63.18 286.63 62.35 288.37 62.35C289.15 62.3362 289.922 62.5221 290.61 62.89Z" fill="white"/>
<path d="M279.59 48.46L279.61 51.28H274.74L274.72 48.46H279.59Z" fill="white"/>
<path d="M301.94 61.36L301.96 64.19L297.09 64.18L297.07 61.37L301.94 61.36Z" fill="white"/>
<path d="M294.14 53C294.302 53.0587 294.443 53.166 294.542 53.3074C294.641 53.4487 294.695 53.6173 294.695 53.79C294.695 53.9627 294.641 54.1312 294.542 54.2726C294.443 54.4139 294.302 54.5213 294.14 54.58C293.717 54.7959 293.25 54.9085 292.775 54.9085C292.3 54.9085 291.833 54.7959 291.41 54.58C290.66 54.14 290.65 53.44 291.41 53C291.833 52.784 292.3 52.6714 292.775 52.6714C293.25 52.6714 293.717 52.784 294.14 53Z" fill="white"/>
<path d="M301.87 48.46L301.88 51.27L297.02 51.28L297 48.46H301.87Z" fill="white"/>
<path d="M285.19 58.16C285.357 58.2139 285.503 58.3194 285.606 58.4613C285.71 58.6033 285.765 58.7744 285.765 58.95C285.765 59.1256 285.71 59.2967 285.606 59.4387C285.503 59.5807 285.357 59.6862 285.19 59.74C284.769 59.9543 284.303 60.066 283.83 60.066C283.357 60.066 282.891 59.9543 282.47 59.74C281.71 59.3 281.71 58.59 282.47 58.16C282.891 57.9457 283.357 57.834 283.83 57.834C284.303 57.834 284.769 57.9457 285.19 58.16Z" fill="white"/>
<path d="M279.66 61.37L279.68 64.18L274.81 64.19L274.79 61.36L279.66 61.37Z" fill="white"/>
<path d="M285.22 53C285.97 53.44 285.98 54.15 285.22 54.58C284.799 54.7943 284.333 54.906 283.86 54.906C283.387 54.906 282.921 54.7943 282.5 54.58C282.333 54.5261 282.187 54.4206 282.084 54.2787C281.98 54.1367 281.925 53.9656 281.925 53.79C281.925 53.6144 281.98 53.4433 282.084 53.3013C282.187 53.1594 282.333 53.0539 282.5 53C282.921 52.7857 283.387 52.674 283.86 52.674C284.333 52.674 284.799 52.7857 285.22 53Z" fill="white"/>
<path d="M294.11 58.12C294.86 58.56 294.87 59.27 294.11 59.7C293.687 59.916 293.22 60.0286 292.745 60.0286C292.27 60.0286 291.803 59.916 291.38 59.7C291.218 59.6413 291.077 59.534 290.978 59.3926C290.879 59.2513 290.825 59.0827 290.825 58.91C290.825 58.7373 290.879 58.5688 290.978 58.4274C291.077 58.2861 291.218 58.1787 291.38 58.12C291.803 57.9041 292.27 57.7915 292.745 57.7915C293.22 57.7915 293.687 57.9041 294.11 58.12Z" fill="white"/>
<path opacity="0.76" d="M82.566 170.296L82.5569 170.301L82.5611 170.31L82.5702 170.306L82.566 170.296Z" fill="white"/>
<g opacity="0.9">
<path opacity="0.4" d="M82.56 170.3L76.75 173.68L70.94 177.06L68.82 172.48L66.71 167.89L74.64 169.09L82.56 170.3Z" fill="white"/>
</g>
<g opacity="0.8">
<path opacity="0.6" d="M84.67 174.88L86.78 179.47L79.83 175.46L82.55 170.31L84.67 174.88Z" fill="white"/>
</g>
<path opacity="0.8" d="M79.83 175.46L86.78 179.47L78.85 178.27L70.94 177.06L79.83 175.46Z" fill="white"/>
<g opacity="0.9">
<path opacity="0.4" d="M90.49 171.5L98.41 172.71L92.59 176.09L86.78 179.47L84.67 174.88L82.56 170.31L90.49 171.5Z" fill="white"/>
</g>
<g opacity="0.9">
<path opacity="0.4" d="M86.78 179.47L80.96 182.85L75.15 186.24L73.03 181.65L70.92 177.06L78.85 178.27L86.78 179.47Z" fill="white"/>
</g>
</svg>
