<svg width="360" height="228" viewBox="0 0 360 228" fill="none" xmlns="http://www.w3.org/2000/svg">
<path d="M227.65 177.18C227.656 177.267 227.656 177.353 227.65 177.44C227.692 177.169 227.657 176.892 227.55 176.64C227.365 177.118 227.009 177.511 226.55 177.74L157.14 218.07C156.322 218.512 155.41 218.749 154.48 218.76C153.438 218.801 152.403 218.567 151.48 218.08L36.82 152C36.3356 151.772 35.9564 151.368 35.76 150.87C35.6792 151.046 35.635 151.236 35.63 151.43C35.63 152.79 35.25 153.98 36.82 154.84L151.36 220.97C152.283 221.457 153.318 221.691 154.36 221.65C155.29 221.639 156.202 221.402 157.02 220.96L226.43 180.63C228 179.77 227.6 178.48 227.65 177.18Z" fill="#D4D2E1"/>
<path d="M36.82 152L151.36 218.13C152.283 218.617 153.318 218.851 154.36 218.81C155.29 218.799 156.202 218.562 157.02 218.12L226.43 177.79C226.889 177.561 227.245 177.168 227.43 176.69C227.227 176.218 226.876 175.825 226.43 175.57L111.92 109.39C111.102 108.948 110.19 108.711 109.26 108.7C108.2 108.65 107.146 108.888 106.21 109.39L36.79 149.73C36.3462 149.974 35.9949 150.357 35.79 150.82C35.9683 151.331 36.3373 151.754 36.82 152Z" fill="#E9E8F0"/>
<path opacity="0.5" d="M175.9 188.39V189.2C175.886 189.052 175.833 188.911 175.747 188.79C175.661 188.669 175.545 188.572 175.41 188.51V187.7C175.546 187.76 175.663 187.856 175.75 187.978C175.836 188.099 175.888 188.242 175.9 188.39Z" fill="white"/>
<path d="M175.41 189.07C175.043 189.252 174.639 189.347 174.23 189.347C173.821 189.347 173.417 189.252 173.05 189.07L87.58 139.72C87.4534 139.648 87.3415 139.553 87.25 139.44C87.3382 139.33 87.4469 139.238 87.57 139.17C87.9332 138.982 88.3362 138.884 88.745 138.884C89.1539 138.884 89.5568 138.982 89.92 139.17L175.4 188.52C175.525 188.589 175.635 188.685 175.72 188.8C175.633 188.907 175.528 188.998 175.41 189.07Z" fill="#D4D2E1"/>
<path opacity="0.5" d="M89.93 139.17L89.94 138.35L175.41 187.7V188.51L89.93 139.17Z" fill="white"/>
<path opacity="0.5" d="M87.1 139.84V139C87.1131 138.854 87.1643 138.715 87.2486 138.595C87.3329 138.476 87.4472 138.381 87.58 138.32C87.9466 138.138 88.3505 138.043 88.76 138.043C89.1695 138.043 89.5734 138.138 89.94 138.32V139.14C89.5768 138.952 89.1739 138.854 88.765 138.854C88.3562 138.854 87.9532 138.952 87.59 139.14C87.4512 139.199 87.3318 139.296 87.2452 139.42C87.1586 139.544 87.1083 139.689 87.1 139.84Z" fill="white"/>
<path d="M87.1 139C87.1123 139.148 87.1642 139.291 87.2504 139.412C87.3367 139.534 87.4539 139.63 87.59 139.69V140.5C87.26 140.31 87.02 140.07 87.03 139.82C87.04 139.57 87.1 139.27 87.1 139Z" fill="#E9E8F0"/>
<path d="M147.64 172.41C147.273 172.592 146.869 172.687 146.46 172.687C146.051 172.687 145.647 172.592 145.28 172.41L136.61 167.41L123.76 160C123.627 159.921 123.508 159.82 123.41 159.7C123.506 159.59 123.621 159.498 123.75 159.43C124.121 159.222 124.539 159.112 124.965 159.112C125.391 159.112 125.809 159.222 126.18 159.43L129.97 161.62L147.63 171.82C147.757 171.892 147.869 171.987 147.96 172.1C147.873 172.222 147.764 172.327 147.64 172.41Z" fill="#60D4A8"/>
<path d="M147.64 172.41C147.273 172.592 146.869 172.687 146.46 172.687C146.051 172.687 145.647 172.592 145.28 172.41V173.22C145.643 173.408 146.046 173.506 146.455 173.506C146.864 173.506 147.267 173.408 147.63 173.22C147.765 173.163 147.881 173.07 147.967 172.953C148.054 172.835 148.106 172.696 148.12 172.55C148.114 172.399 148.057 172.255 147.96 172.14C147.869 172.248 147.761 172.339 147.64 172.41Z" fill="#1CC283"/>
<path d="M147.63 171V171.82C147.757 171.892 147.869 171.987 147.96 172.1C148.057 171.985 148.114 171.841 148.12 171.69C148.108 171.542 148.056 171.399 147.97 171.278C147.883 171.156 147.766 171.06 147.63 171Z" fill="#60D4A8"/>
<path d="M148.12 172.55V171.73C148.018 171.842 147.962 171.988 147.962 172.14C147.962 172.292 148.018 172.438 148.12 172.55Z" fill="#1CC283"/>
<path d="M136.6 167.4L123.75 159.98V160.79L129.97 164.38V163.57L136.6 167.4Z" fill="#1CC283"/>
<path d="M145.28 172.41L136.6 167.4V168.21L129.97 164.38L145.28 173.22V172.9V172.41Z" fill="#1CC283"/>
<path d="M136.6 167.4L129.97 163.57V164.38L136.6 168.21V167.4Z" fill="#1CC283"/>
<path d="M123.76 160C123.631 159.932 123.518 159.836 123.43 159.72C123.326 159.832 123.266 159.977 123.26 160.13C123.274 160.277 123.327 160.417 123.413 160.536C123.499 160.656 123.615 160.75 123.75 160.81L123.76 160Z" fill="#1CC283"/>
<path d="M136.6 164.68L126.1 158.62V159.43L129.97 161.66V160.85L136.6 164.68Z" fill="#60D4A8"/>
<path d="M136.6 164.68V165.5L129.97 161.66L147.63 171.86V171.04L136.6 164.68Z" fill="#60D4A8"/>
<path d="M136.6 164.68L129.97 160.85V161.66L136.6 165.5V164.68Z" fill="#60D4A8"/>
<path d="M123.75 159.43C124.113 159.242 124.516 159.144 124.925 159.144C125.334 159.144 125.737 159.242 126.1 159.43V158.62C125.737 158.432 125.334 158.334 124.925 158.334C124.516 158.334 124.113 158.432 123.75 158.62C123.618 158.68 123.503 158.774 123.418 158.891C123.332 159.008 123.278 159.146 123.26 159.29C123.266 159.443 123.326 159.588 123.43 159.7C123.516 159.588 123.625 159.496 123.75 159.43Z" fill="#60D4A8"/>
<path d="M123.26 159.29V160.11C123.369 160.001 123.43 159.854 123.43 159.7C123.43 159.546 123.369 159.399 123.26 159.29Z" fill="#1CC283"/>
<path d="M147.64 171.71C147.275 171.897 146.87 171.994 146.46 171.994C146.05 171.994 145.645 171.897 145.28 171.71L136.61 166.71L123.76 159.32C123.629 159.238 123.511 159.137 123.41 159.02C123.506 158.91 123.621 158.818 123.75 158.75C124.121 158.542 124.539 158.432 124.965 158.432C125.391 158.432 125.809 158.542 126.18 158.75L130 161L147.66 171.19C147.784 171.265 147.896 171.36 147.99 171.47C147.89 171.572 147.771 171.654 147.64 171.71Z" fill="#60D4A8"/>
<path d="M147.64 171.72C147.273 171.902 146.869 171.997 146.46 171.997C146.051 171.997 145.647 171.902 145.28 171.72V172.53C145.643 172.718 146.046 172.816 146.455 172.816C146.864 172.816 147.267 172.718 147.63 172.53C147.765 172.471 147.882 172.377 147.968 172.257C148.055 172.138 148.107 171.997 148.12 171.85C148.113 171.703 148.057 171.562 147.96 171.45C147.867 171.555 147.759 171.646 147.64 171.72Z" fill="#1CC283"/>
<path d="M147.63 170.35V171.17C147.757 171.242 147.869 171.337 147.96 171.45C148.057 171.335 148.114 171.191 148.12 171.04C148.108 170.892 148.056 170.749 147.97 170.628C147.883 170.506 147.766 170.41 147.63 170.35Z" fill="#60D4A8"/>
<path d="M148.12 171.85V171C148.114 171.151 148.057 171.295 147.96 171.41C148.065 171.532 148.122 171.689 148.12 171.85Z" fill="#1CC283"/>
<path d="M136.6 166.71L123.75 159.29V160.1L129.97 163.69V162.87L136.6 166.71Z" fill="#1CC283"/>
<path d="M145.28 171.72L136.6 166.71V167.52L129.97 163.69L145.28 172.53V172.21V171.72Z" fill="#1CC283"/>
<path d="M136.6 166.71L129.97 162.87V163.69L136.6 167.52V166.71Z" fill="#1CC283"/>
<path d="M123.76 159.29C123.634 159.218 123.522 159.123 123.43 159.01C123.326 159.122 123.266 159.267 123.26 159.42C123.276 159.566 123.329 159.705 123.415 159.825C123.501 159.944 123.617 160.039 123.75 160.1L123.76 159.29Z" fill="#1CC283"/>
<path d="M136.6 163.99L126.1 157.92V158.74L129.97 160.97V160.15L136.6 163.99Z" fill="#60D4A8"/>
<path d="M136.6 163.99V164.8L129.97 160.97L147.63 171.17V170.35L136.6 163.99Z" fill="#60D4A8"/>
<path d="M136.6 163.99L129.97 160.15V160.97L136.6 164.8V163.99Z" fill="#60D4A8"/>
<path d="M123.75 158.74C124.113 158.552 124.516 158.454 124.925 158.454C125.334 158.454 125.737 158.552 126.1 158.74V157.92C125.735 157.738 125.333 157.643 124.925 157.643C124.517 157.643 124.115 157.738 123.75 157.92C123.618 157.984 123.504 158.079 123.419 158.198C123.333 158.317 123.279 158.455 123.26 158.6C123.266 158.753 123.326 158.898 123.43 159.01C123.516 158.898 123.625 158.806 123.75 158.74Z" fill="#60D4A8"/>
<path d="M123.26 158.6V159.42C123.369 159.311 123.43 159.164 123.43 159.01C123.43 158.856 123.369 158.709 123.26 158.6Z" fill="#1CC283"/>
<path d="M173.06 189.88L87.59 140.53V139.72L173.06 189.06V189.88Z" fill="#E9E8F0"/>
<path d="M175.9 189.2C175.885 189.346 175.832 189.486 175.746 189.605C175.66 189.725 175.544 189.819 175.41 189.88C175.045 190.062 174.643 190.157 174.235 190.157C173.827 190.157 173.425 190.062 173.06 189.88V189.06C173.425 189.247 173.83 189.344 174.24 189.344C174.65 189.344 175.055 189.247 175.42 189.06C175.553 189.002 175.667 188.908 175.752 188.791C175.836 188.673 175.887 188.534 175.9 188.39V189.2Z" fill="#E9E8F0"/>
<path opacity="0.5" d="M155.12 200.51V201.32C155.106 201.172 155.053 201.031 154.967 200.91C154.881 200.789 154.765 200.692 154.63 200.63V199.82C154.766 199.88 154.883 199.976 154.97 200.098C155.056 200.219 155.108 200.362 155.12 200.51Z" fill="white"/>
<path d="M154.63 201.19C154.263 201.372 153.859 201.467 153.45 201.467C153.041 201.467 152.637 201.372 152.27 201.19L66.8 151.84C66.6734 151.768 66.5615 151.673 66.47 151.56C66.5582 151.45 66.6669 151.358 66.79 151.29C67.1553 151.103 67.5597 151.006 67.97 151.006C68.3803 151.006 68.7847 151.103 69.15 151.29L154.62 200.64C154.747 200.712 154.859 200.807 154.95 200.92C154.859 201.027 154.751 201.119 154.63 201.19Z" fill="#D4D2E1"/>
<path opacity="0.5" d="M69.16 151.29V150.47L154.63 199.82V200.63L69.16 151.29Z" fill="white"/>
<path opacity="0.5" d="M66.32 152V151.19C66.3331 151.044 66.3843 150.905 66.4686 150.785C66.5529 150.666 66.6672 150.571 66.8 150.51C67.1666 150.328 67.5705 150.233 67.98 150.233C68.3895 150.233 68.7934 150.328 69.16 150.51V151.33C68.7948 151.143 68.3903 151.046 67.98 151.046C67.5697 151.046 67.1653 151.143 66.8 151.33C66.6674 151.389 66.5529 151.482 66.4684 151.599C66.384 151.717 66.3327 151.856 66.32 152Z" fill="white"/>
<path d="M66.32 151.15C66.3323 151.298 66.3842 151.441 66.4705 151.562C66.5567 151.684 66.6739 151.78 66.81 151.84V152.65C66.48 152.46 66.25 152.22 66.25 151.97C66.25 151.72 66.32 151.39 66.32 151.15Z" fill="#E9E8F0"/>
<path d="M118.2 180.07C117.835 180.257 117.43 180.354 117.02 180.354C116.61 180.354 116.205 180.257 115.84 180.07L107.16 175.07L94.31 167.67C94.18 167.595 94.0648 167.496 93.97 167.38C94.0652 167.267 94.1805 167.172 94.31 167.1C94.6816 166.893 95.0998 166.785 95.525 166.785C95.9502 166.785 96.3684 166.893 96.74 167.1L100.53 169.29L118.19 179.48C118.314 179.555 118.426 179.65 118.52 179.76C118.436 179.884 118.327 179.99 118.2 180.07Z" fill="#60D4A8"/>
<path d="M118.2 180.07C117.835 180.257 117.43 180.354 117.02 180.354C116.61 180.354 116.205 180.257 115.84 180.07V180.89C116.205 181.072 116.607 181.167 117.015 181.167C117.423 181.167 117.825 181.072 118.19 180.89C118.324 180.829 118.44 180.735 118.526 180.615C118.612 180.496 118.665 180.356 118.68 180.21C118.674 180.057 118.614 179.912 118.51 179.8C118.426 179.91 118.321 180.002 118.2 180.07Z" fill="#2A206A"/>
<path d="M118.19 178.71V179.52C118.312 179.595 118.42 179.689 118.51 179.8C118.613 179.692 118.673 179.549 118.68 179.4C118.668 179.252 118.616 179.109 118.53 178.988C118.443 178.866 118.326 178.771 118.19 178.71Z" fill="#60D4A8"/>
<path d="M118.68 180.21V179.4C118.673 179.55 118.613 179.692 118.51 179.8C118.614 179.912 118.674 180.057 118.68 180.21Z" fill="#2A206A"/>
<path d="M107.16 175.06L94.31 167.65V168.46L100.53 172.05V171.23L107.16 175.06Z" fill="#1CC283"/>
<path d="M115.84 180.07L107.16 175.06V175.88L100.53 172.05L115.84 180.89V180.56V180.07Z" fill="#1CC283"/>
<path d="M107.16 175.06L100.53 171.23V172.05L107.16 175.88V175.06Z" fill="#1CC283"/>
<path d="M94.31 167.64C94.184 167.572 94.0721 167.48 93.98 167.37C93.8821 167.481 93.8255 167.622 93.82 167.77C93.8323 167.918 93.8842 168.061 93.9705 168.182C94.0567 168.304 94.1739 168.4 94.31 168.46V167.64Z" fill="#2A206A"/>
<path d="M107.16 172.34L96.66 166.28V167.1L100.53 169.33V168.51L107.16 172.34Z" fill="#60D4A8"/>
<path d="M107.16 172.34V173.16L100.53 169.33L118.19 179.52V178.71L107.16 172.34Z" fill="#60D4A8"/>
<path d="M107.16 172.34L100.53 168.51V169.33L107.16 173.16V172.34Z" fill="#60D4A8"/>
<path d="M94.3 167.1C94.6653 166.913 95.0697 166.816 95.48 166.816C95.8903 166.816 96.2948 166.913 96.66 167.1V166.28C96.2968 166.092 95.8939 165.994 95.485 165.994C95.0762 165.994 94.6732 166.092 94.31 166.28C94.1747 166.339 94.0578 166.433 93.9716 166.553C93.8853 166.672 93.833 166.813 93.82 166.96C93.8264 167.111 93.8827 167.255 93.98 167.37C94.0706 167.262 94.1788 167.171 94.3 167.1Z" fill="#60D4A8"/>
<path d="M93.82 167V167.81C93.8255 167.662 93.8821 167.521 93.98 167.41C93.8827 167.295 93.8264 167.151 93.82 167Z" fill="#2A206A"/>
<path d="M118.2 179.38C117.835 179.567 117.43 179.664 117.02 179.664C116.61 179.664 116.205 179.567 115.84 179.38V180.2C116.205 180.382 116.607 180.477 117.015 180.477C117.423 180.477 117.825 180.382 118.19 180.2C118.323 180.139 118.439 180.044 118.525 179.925C118.611 179.805 118.664 179.666 118.68 179.52C118.674 179.367 118.614 179.222 118.51 179.11C118.426 179.22 118.321 179.312 118.2 179.38Z" fill="#2A206A"/>
<path d="M118.68 179.52V178.7C118.571 178.809 118.51 178.956 118.51 179.11C118.51 179.264 118.571 179.411 118.68 179.52Z" fill="#2A206A"/>
<path d="M107.16 174.37L94.31 166.95V167.76V167.77L100.53 171.35V170.54L107.16 174.37Z" fill="#2A206A"/>
<path d="M115.84 179.38L107.16 174.37V175.19L100.53 171.35L115.84 180.2V179.87V179.38Z" fill="#2A206A"/>
<path d="M107.16 174.37L100.53 170.54V171.35L107.16 175.19V174.37Z" fill="#2A206A"/>
<path d="M94.31 167C94.1834 166.928 94.0715 166.833 93.98 166.72C93.8827 166.835 93.8264 166.979 93.82 167.13C93.8323 167.278 93.8842 167.421 93.9705 167.542C94.0567 167.664 94.1739 167.759 94.31 167.82V167Z" fill="#2A206A"/>
<path d="M118.52 179.11C118.617 178.995 118.674 178.851 118.68 178.7C118.666 178.553 118.613 178.413 118.527 178.294C118.441 178.174 118.325 178.08 118.19 178.02L107.19 171.65L96.69 165.59V166.4C96.641 166.365 96.587 166.339 96.53 166.32H96.64V165.51C96.2768 165.322 95.8738 165.224 95.465 165.224C95.0561 165.224 94.6532 165.322 94.29 165.51C94.1547 165.569 94.0378 165.663 93.9516 165.783C93.8653 165.902 93.813 166.043 93.8 166.19C93.793 166.327 93.8356 166.462 93.92 166.57C94.0105 166.69 94.1224 166.791 94.25 166.87L107.1 174.27L115.78 179.27C116.147 179.452 116.551 179.547 116.96 179.547C117.369 179.547 117.773 179.452 118.14 179.27C118.261 179.202 118.366 179.111 118.45 179L118.52 179.11Z" fill="#3C33B2"/>
<path d="M93.82 166.27V167.08C93.8264 166.929 93.8827 166.785 93.98 166.67C93.8834 166.558 93.8271 166.417 93.82 166.27Z" fill="#2A206A"/>
<g filter="url(#filter0_d_1331_2234)">
<path d="M127.45 43.87H88.9399V75.16H127.45V43.87Z" fill="#F4F4F7"/>
<path d="M279.91 109.21L279.9 110.07L185.83 164.74V163.88L279.91 109.21Z" fill="#AAA5C3"/>
<path d="M25.6499 75.27V74.41C25.6938 74.8738 25.8605 75.3176 26.133 75.6955C26.4054 76.0734 26.7737 76.3718 27.1999 76.56V77.43C26.7723 77.241 26.4031 76.941 26.1306 76.5612C25.858 76.1814 25.6921 75.7356 25.6499 75.27Z" fill="#AAA5C3"/>
<path d="M279.88 104.93L128.65 17.61C127.503 17.0284 126.236 16.7253 124.95 16.7253C123.664 16.7253 122.397 17.0284 121.25 17.61L27.1699 72.28C25.1699 73.46 25.1699 75.38 27.1699 76.56L178.41 163.88C179.555 164.461 180.821 164.764 182.105 164.764C183.389 164.764 184.655 164.461 185.8 163.88L279.88 109.21C281.94 108 281.93 106.11 279.88 104.93ZM116.77 53.39L103.37 54.87L98.7899 52.23L112.2 50.75L116.77 53.39ZM104.87 48.2C105.322 47.9707 105.823 47.8512 106.33 47.8512C106.837 47.8512 107.337 47.9707 107.79 48.2L111.67 50.44L98.5299 51.88L104.87 48.2ZM95.3099 59.94L91.4399 57.7C90.8299 57.35 90.6799 56.84 90.9799 56.4C91.1018 56.2406 91.2549 56.1079 91.4299 56.01L97.7499 52.34L95.3099 59.94ZM100.42 62.94L95.8599 60.3L98.3499 52.53L102.93 55.17L100.42 62.94ZM100.96 63.25L103.53 55.25L117.31 53.73L121.89 56.37L108.11 57.86L105.54 65.86L101 63.2L100.96 63.25ZM112.29 65.91L113.75 61.34L116.95 63.19L112.29 65.91ZM117.39 62.91L114.2 61.07L122.05 60.2L117.39 62.91ZM123.89 59.13L122.83 59.75L113.28 60.75L111.51 66.29L110.51 66.9C110.061 67.1385 109.558 67.2589 109.05 67.25C108.517 67.3042 107.979 67.218 107.49 67L106.08 66.18L108.66 58.18L122.43 56.66L123.84 57.47C124.003 57.5398 124.144 57.6515 124.249 57.7938C124.355 57.9362 124.421 58.1039 124.44 58.28C124.426 58.4613 124.362 58.6354 124.257 58.7834C124.151 58.9314 124.007 59.0478 123.84 59.12" fill="#D4D2E1"/>
<path d="M178.44 163.88L178.43 164.74L27.2 77.4301V76.5601L178.44 163.88Z" fill="#AAA5C3"/>
<path d="M185.83 163.88V164.74C184.685 165.326 183.417 165.632 182.13 165.632C180.843 165.632 179.575 165.326 178.43 164.74V163.88C179.576 164.463 180.844 164.767 182.13 164.767C183.416 164.767 184.684 164.463 185.83 163.88Z" fill="#AAA5C3"/>
</g>
<path d="M152.28 202L66.81 152.65V151.84L152.28 201.18V202Z" fill="#E9E8F0"/>
<path d="M155.12 201.32C155.107 201.467 155.055 201.608 154.968 201.727C154.882 201.847 154.765 201.941 154.63 202C154.265 202.182 153.863 202.277 153.455 202.277C153.047 202.277 152.645 202.182 152.28 202V201.18C152.645 201.367 153.05 201.464 153.46 201.464C153.87 201.464 154.275 201.367 154.64 201.18C154.773 201.122 154.887 201.028 154.972 200.911C155.056 200.793 155.107 200.654 155.12 200.51V201.32Z" fill="#E9E8F0"/>
<path d="M148.845 164.757C148.856 160.892 143.456 157.742 136.785 157.724C130.113 157.705 124.696 160.824 124.685 164.69C124.674 168.556 130.074 171.705 136.745 171.724C143.417 171.742 148.834 168.623 148.845 164.757Z" fill="#1CC283"/>
<path d="M138 164.49C139.55 165.77 139.93 166.68 138.28 167.64C137.412 168.053 136.459 168.258 135.498 168.241C134.537 168.224 133.593 167.984 132.74 167.54L131.13 168.48L130.37 168.04L131.99 167.1C129.99 165.75 130.48 164.59 131.79 163.65L132.87 164.27C132 164.92 131.43 165.61 132.87 166.6L136.41 164.54C135.03 163.37 134.62 162.44 136.15 161.54C136.963 161.159 137.854 160.973 138.752 160.997C139.649 161.021 140.529 161.255 141.32 161.68L142.46 161.01L143.22 161.45L142.06 162.12C143.46 163.12 143.56 164.12 142.25 165.12L141.25 164.54C142.04 163.86 142.03 163.26 141.2 162.63L138 164.49ZM133.59 167C134.139 167.27 134.743 167.41 135.355 167.41C135.967 167.41 136.571 167.27 137.12 167C138.06 166.46 138.12 166 137.01 165L133.59 167ZM137.35 163.95L140.42 162.16C139.935 161.89 139.393 161.739 138.838 161.72C138.284 161.701 137.732 161.814 137.23 162.05C136.43 162.51 136.23 162.95 137.35 163.95Z" fill="white"/>
<path d="M281.43 107.08V108C281.388 108.457 281.225 108.894 280.958 109.266C280.691 109.639 280.329 109.934 279.91 110.12V109.26C280.335 109.065 280.7 108.76 280.967 108.377C281.234 107.994 281.394 107.546 281.43 107.08Z" fill="#D0CEDD"/>
<path d="M278.61 112.7C278.259 112.703 277.911 112.633 277.589 112.493C277.267 112.354 276.978 112.148 276.74 111.89L277.1 111.54C277.387 111.854 277.764 112.072 278.179 112.163C278.594 112.254 279.028 112.215 279.42 112.05C280.667 111.583 282.024 111.496 283.32 111.8L283.01 112.27C281.874 112.01 280.686 112.097 279.6 112.52C279.284 112.642 278.948 112.703 278.61 112.7Z" fill="#60D4A8"/>
<g filter="url(#filter1_d_1331_2234)">
<path d="M162.24 88.47V89.29L161.86 89.39V88.57L162.24 88.47Z" fill="white"/>
<path d="M161.857 88.5623L161.854 89.3823L161.864 89.3824L161.867 88.5623L161.857 88.5623Z" fill="#BBEDDA"/>
<path d="M163.34 89.92V90.73L162.24 89.29V88.47L163.34 89.92Z" fill="white"/>
<path d="M162.47 89.96V90.78L161.55 89.56L161.56 88.75L162.47 89.96Z" fill="#3C33B2"/>
<path d="M173.84 91.7H173.79V90.88L173.84 91.7Z" fill="white"/>
<path d="M173.77 91.66C172.902 91.4099 171.973 91.4772 171.15 91.85V91C171.969 90.6271 172.895 90.5597 173.76 90.81L173.77 91.66Z" fill="white"/>
<path d="M162.47 89.96V90.78L162.03 91.87L162.04 91.05L162.47 89.96Z" fill="#BBEDDA"/>
<path d="M163.34 89.92V90.73L162.84 91.98V91.17L163.34 89.92Z" fill="#3C33B2"/>
<path d="M173.84 91.7V90.88C173.9 90.9183 173.95 90.9716 173.983 91.0348C174.016 91.0979 174.032 91.1687 174.03 91.24V92.05C174.031 91.9803 174.014 91.9116 173.98 91.8504C173.947 91.7891 173.899 91.7374 173.84 91.7Z" fill="white"/>
<path d="M162 91.87C161.959 91.9823 161.935 92.1004 161.93 92.22V91.41C161.933 91.2859 161.96 91.1635 162.01 91.05C162.032 91.3231 162.028 91.5975 162 91.87Z" fill="#BBEDDA"/>
<path d="M162.79 92.23V91.42C162.792 91.3344 162.809 91.2498 162.84 91.17V92C162.813 92.074 162.796 92.1514 162.79 92.23Z" fill="#3C33B2"/>
<path d="M162.79 92.23V91.42C162.789 91.4897 162.806 91.5584 162.84 91.6196C162.873 91.6808 162.921 91.7326 162.98 91.77C163.159 91.8485 163.357 91.8729 163.55 91.84C164.533 91.711 165.531 91.7516 166.5 91.96V92.78C165.532 92.5628 164.533 92.5188 163.55 92.65C163.357 92.6829 163.159 92.6585 162.98 92.58C162.919 92.5449 162.869 92.4937 162.835 92.4319C162.802 92.3701 162.786 92.3002 162.79 92.23Z" fill="white"/>
<path d="M171.15 91.85C169.652 92.3791 168.086 92.6922 166.5 92.78V92C168.09 91.9175 169.66 91.6042 171.16 91.07L171.15 91.85Z" fill="white"/>
<path d="M162 92.22V91.4C162.005 91.5515 162.052 91.6987 162.135 91.8256C162.217 91.9526 162.333 92.0544 162.47 92.12C162.868 92.3223 163.322 92.3856 163.76 92.3C164.56 92.1984 165.37 92.2288 166.16 92.39C167.11 92.68 170.16 91.91 171.59 91.46C172.74 91.1 173.16 91.14 173.23 91.18V92C172.669 91.9648 172.108 92.0606 171.59 92.28C170.13 92.73 167.11 93.5 166.16 93.21C165.372 93.0582 164.566 93.0312 163.77 93.13C163.332 93.2042 162.881 93.1413 162.48 92.95C162.341 92.8832 162.224 92.78 162.139 92.6514C162.055 92.5228 162.006 92.3738 162 92.22Z" fill="#3C33B2"/>
<path d="M173.21 92.06C173.21 92.16 173.1 92.41 172.61 92.86V92C173.1 91.56 173.21 91.31 173.21 91.2V92.06Z" fill="#BBEDDA"/>
<path d="M172.61 92.86C172.367 93.0303 172.159 93.2469 172 93.4974C171.84 93.7479 171.731 94.0274 171.68 94.32V93.5C171.786 92.91 172.12 92.3855 172.61 92.04V92.86Z" fill="#BBEDDA"/>
<path d="M174 91.25V92.07C174 92.35 173.76 92.7 173.28 93.12C172.7 93.64 172.49 94.05 172.49 94.32V93.51C172.49 93.24 172.7 92.83 173.29 92.3C173.88 91.77 174 91.53 174 91.25Z" fill="#3C33B2"/>
<path d="M172.68 94.64C172.632 94.5953 172.594 94.5411 172.568 94.4809C172.542 94.4206 172.529 94.3556 172.53 94.29V93.48C172.529 93.5447 172.54 93.6091 172.564 93.6693C172.588 93.7294 172.624 93.7841 172.67 93.83L172.68 94.64Z" fill="white"/>
<path d="M173.47 94.78C173.208 94.8089 172.943 94.7711 172.7 94.67V93.85C172.942 93.9561 173.208 93.9941 173.47 93.96V94.78Z" fill="white"/>
<path d="M171.68 94.32V93.5C171.679 93.602 171.7 93.703 171.741 93.7962C171.783 93.8893 171.844 93.9725 171.92 94.04V94.85C171.846 94.7825 171.787 94.7007 171.746 94.6096C171.704 94.5185 171.682 94.42 171.68 94.32Z" fill="#3C33B2"/>
<path d="M175.74 95.25C175.048 94.8692 174.257 94.7055 173.47 94.78V94C174.257 93.9242 175.048 94.0881 175.74 94.47V95.25Z" fill="white"/>
<path d="M175.07 94.71V95.53C174.595 95.2889 174.059 95.1949 173.53 95.26C173.046 95.3087 172.558 95.2221 172.12 95.01C172.043 94.9662 171.973 94.9124 171.91 94.85V94C171.973 94.0615 172.044 94.1152 172.12 94.16C172.559 94.3687 173.047 94.4518 173.53 94.4C174.062 94.3565 174.596 94.4639 175.07 94.71Z" fill="#3C33B2"/>
<path d="M175.22 95V95.82C175.221 95.7669 175.209 95.7144 175.184 95.6673C175.16 95.6201 175.124 95.5798 175.08 95.55V94.73C175.123 94.761 175.158 94.8016 175.182 94.8484C175.206 94.8953 175.219 94.9472 175.22 95Z" fill="#3C33B2"/>
<path d="M176 95.8C175.995 95.6915 175.966 95.5855 175.914 95.4901C175.862 95.3948 175.789 95.3126 175.7 95.25V94.43C175.79 94.4942 175.863 94.578 175.915 94.6751C175.967 94.7722 175.996 94.8799 176 94.99V95.8Z" fill="white"/>
<path d="M175.2 95.83C175.192 95.937 175.15 96.0387 175.08 96.12V95.31C175.147 95.224 175.186 95.1191 175.19 95.01L175.2 95.83Z" fill="#BBEDDA"/>
<path d="M175.08 96.12C174.98 96.2459 174.921 96.3994 174.91 96.56V95.74C174.921 95.5826 174.981 95.4325 175.08 95.31V96.12Z" fill="#BBEDDA"/>
<path d="M176 95V95.81C175.99 96.0001 175.92 96.1822 175.8 96.33C175.743 96.4018 175.708 96.4887 175.7 96.58V95.76C175.714 95.6684 175.752 95.582 175.81 95.51C175.928 95.3654 175.994 95.1862 176 95Z" fill="#3C33B2"/>
<path d="M175.81 96.68C175.789 96.6678 175.771 96.6503 175.759 96.6293C175.747 96.6082 175.74 96.5844 175.74 96.56V95.74C175.74 95.7657 175.747 95.7909 175.759 95.8136C175.771 95.8362 175.789 95.8555 175.81 95.87V96.68Z" fill="white"/>
<path d="M184.49 96.61C184.49 96.34 184.49 96.07 184.49 95.8C184.806 95.7238 185.14 95.7628 185.43 95.91V96.73C185.14 96.5811 184.808 96.5387 184.49 96.61Z" fill="white"/>
<path d="M177.75 96.58C177.75 96.31 177.75 96.04 177.75 95.77C179.46 95.39 181.59 95.18 182.43 95.68C183.094 95.8995 183.805 95.9409 184.49 95.8V96.61C183.808 96.7519 183.101 96.7105 182.44 96.49C181.59 96 179.47 96.2 177.75 96.58Z" fill="white"/>
<path d="M175.84 96.7V95.89C176.48 96.0068 177.139 95.9656 177.76 95.77V96.58C177.14 96.7814 176.48 96.8227 175.84 96.7Z" fill="white"/>
<path d="M185.57 96.84L185.47 96.75V95.94C185.505 95.9647 185.535 95.9952 185.56 96.03L185.57 96.84Z" fill="white"/>
<path d="M174.91 96.56V95.74C174.918 95.8395 174.951 95.9353 175.007 96.0177C175.063 96.1002 175.14 96.1665 175.23 96.21V97C175.145 96.9584 175.071 96.8965 175.015 96.8198C174.959 96.7431 174.923 96.6539 174.91 96.56Z" fill="#3C33B2"/>
<path d="M184.86 96.34V97.15C184.872 97.1211 184.872 97.0889 184.86 97.06V96.24C184.868 96.2729 184.868 96.3071 184.86 96.34Z" fill="#3C33B2"/>
<path d="M185.57 96.84C185.565 96.8002 185.565 96.7598 185.57 96.72V96C185.644 96.0857 185.684 96.1965 185.68 96.31V97.13C185.674 97.0244 185.635 96.9232 185.57 96.84Z" fill="white"/>
<path d="M184.84 96.24V97.06C183.838 97.2763 182.795 97.1928 181.84 96.82V96C182.795 96.3705 183.838 96.4539 184.84 96.24Z" fill="#3C33B2"/>
<path d="M181.85 96V96.81C180.585 96.5656 179.28 96.6377 178.05 97.02C177.132 97.3294 176.138 97.3294 175.22 97.02V96.21C176.135 96.5187 177.125 96.5187 178.04 96.21C180.09 95.77 181.52 95.8 181.85 96Z" fill="#3C33B2"/>
<path d="M184.81 97.23C184.81 97.47 184.56 97.96 183.81 98.68V97.86C184.52 97.14 184.81 96.66 184.81 96.42V97.23Z" fill="#BBEDDA"/>
<path d="M183.85 98.68C183.325 99.1053 182.97 99.705 182.85 100.37V99.55C182.97 98.885 183.325 98.2853 183.85 97.86V98.68Z" fill="#BBEDDA"/>
<path d="M185.65 96.36V97.17C185.65 97.75 184.94 98.54 184.56 98.92C184.105 99.2843 183.793 99.7979 183.68 100.37V99.55C183.797 98.9798 184.112 98.4696 184.57 98.11C184.94 97.73 185.65 96.94 185.65 96.36Z" fill="#3C33B2"/>
<path d="M184.1 100.66C184.005 100.629 183.922 100.569 183.863 100.488C183.804 100.407 183.771 100.31 183.77 100.21V99.4C183.771 99.5001 183.804 99.5972 183.863 99.6779C183.922 99.7586 184.005 99.8188 184.1 99.85V100.66Z" fill="white"/>
<path d="M185.22 100.88C184.88 100.687 184.487 100.61 184.1 100.66V99.85C184.486 99.7976 184.879 99.8712 185.22 100.06V100.88Z" fill="white"/>
<path d="M185.22 100.88V100.06L185.31 100.12V100.93L185.22 100.88Z" fill="white"/>
<path d="M182.9 100.32V99.5C182.899 99.6272 182.928 99.7528 182.983 99.8673C183.039 99.9817 183.12 100.082 183.22 100.16V101C183.116 100.921 183.032 100.818 182.976 100.699C182.921 100.581 182.894 100.451 182.9 100.32Z" fill="#3C33B2"/>
<path d="M185.4 101L185.31 100.9V100.09L185.41 100.19L185.4 101Z" fill="white"/>
<path d="M184.62 100.38V101.2C184.495 101.131 184.349 101.11 184.21 101.14C183.867 101.191 183.517 101.132 183.21 100.97V100.16C183.52 100.311 183.868 100.367 184.21 100.32C184.349 100.287 184.496 100.308 184.62 100.38Z" fill="#3C33B2"/>
<path d="M184.71 100.61V101.42C184.713 101.379 184.706 101.338 184.691 101.3C184.675 101.261 184.651 101.227 184.62 101.2V100.38C184.651 100.409 184.675 100.445 184.691 100.485C184.706 100.525 184.713 100.567 184.71 100.61Z" fill="#3C33B2"/>
<path d="M185.4 101C185.395 100.96 185.395 100.92 185.4 100.88V100.19C185.489 100.304 185.535 100.446 185.53 100.59V101.4C185.532 101.256 185.486 101.115 185.4 101Z" fill="white"/>
<path d="M184.7 101.44C184.609 101.896 184.361 102.307 184 102.6V101.79C184.367 101.496 184.618 101.081 184.71 100.62L184.7 101.44Z" fill="#BBEDDA"/>
<path d="M280 104.49C279.88 104.42 279.76 104.35 279.63 104.29V103.47L280 103.68V104.49Z" fill="white"/>
<path d="M284 110.1C284 108.1 282.66 106.04 280 104.49V103.68C282.69 105.23 284 107.26 284 109.28V110.1Z" fill="white"/>
<path d="M284 109.28V110.1C283.979 111.089 283.674 112.051 283.12 112.87V112.05C283.681 111.234 283.987 110.27 284 109.28Z" fill="#8DE0C1"/>
<path d="M284.12 113.67C284.128 113.543 284.099 113.416 284.037 113.304C283.975 113.192 283.882 113.101 283.77 113.04V112.23C283.883 112.291 283.976 112.383 284.039 112.494C284.103 112.605 284.134 112.732 284.13 112.86L284.12 113.67Z" fill="white"/>
<path d="M283.49 112.93L283.16 112.87V112.05L283.48 112.12L283.49 112.93Z" fill="white"/>
<path d="M283.77 113C283.681 112.954 283.587 112.917 283.49 112.89V112.08C283.59 112.098 283.685 112.136 283.77 112.19V113Z" fill="white"/>
<path d="M284.13 112.86V113.67C284.042 114.292 283.715 114.854 283.22 115.24C282.737 115.591 282.399 116.107 282.27 116.69V115.87C282.396 115.288 282.73 114.772 283.21 114.42C283.707 114.039 284.037 113.479 284.13 112.86Z" fill="#EDEDEF"/>
<path d="M283.5 117.32C283.303 117.215 283.083 117.16 282.86 117.16V116.35C283.082 116.346 283.302 116.398 283.5 116.5V117.32Z" fill="white"/>
<path d="M283.77 116.92V117.73C283.746 117.962 283.636 118.177 283.46 118.33C283.233 118.527 283.087 118.802 283.05 119.1V118.28C283.083 117.982 283.225 117.708 283.45 117.51C283.629 117.362 283.743 117.151 283.77 116.92Z" fill="#EDEDEF"/>
<path d="M283.28 119.48C283.211 119.444 283.153 119.389 283.112 119.322C283.072 119.255 283.05 119.178 283.05 119.1V118.28C283.047 118.358 283.066 118.435 283.105 118.502C283.144 118.569 283.201 118.624 283.27 118.66L283.28 119.48Z" fill="white"/>
<path d="M284.52 120.21C284.511 120.112 284.476 120.018 284.418 119.939C284.359 119.86 284.281 119.798 284.19 119.76V118.94C284.28 118.979 284.358 119.041 284.416 119.12C284.474 119.199 284.51 119.292 284.52 119.39V120.21Z" fill="white"/>
<path d="M315.87 120.46C315.617 120.256 315.452 119.962 315.41 119.64V118.82C315.45 119.143 315.615 119.438 315.87 119.64V120.46Z" fill="white"/>
<path d="M284.52 119.39V120.21C284.534 120.259 284.534 120.311 284.52 120.36C284.477 120.461 284.453 120.57 284.45 120.68V119.87C284.448 119.759 284.472 119.65 284.52 119.55C284.529 119.497 284.529 119.443 284.52 119.39Z" fill="#EDEDEF"/>
<path d="M316.68 121C316.643 120.947 316.596 120.903 316.54 120.87V120.06C316.599 120.092 316.65 120.136 316.69 120.19L316.68 121Z" fill="white"/>
<path d="M316.68 121C316.675 120.947 316.675 120.893 316.68 120.84V120.19C316.73 120.267 316.754 120.358 316.75 120.45V121.26C316.757 121.168 316.733 121.076 316.68 121Z" fill="white"/>
<path d="M284.72 121.32C284.624 121.243 284.547 121.146 284.493 121.035C284.439 120.924 284.411 120.803 284.41 120.68V119.87C284.408 119.991 284.434 120.111 284.486 120.22C284.538 120.33 284.615 120.425 284.71 120.5L284.72 121.32Z" fill="white"/>
<path d="M284.78 121.36H284.72V120.54H284.78V121.36Z" fill="white"/>
<path d="M284.88 121.54C284.882 121.504 284.874 121.467 284.857 121.435C284.839 121.403 284.812 121.377 284.78 121.36V120.54C284.815 120.557 284.844 120.585 284.863 120.619C284.883 120.652 284.892 120.691 284.89 120.73L284.88 121.54Z" fill="white"/>
<path d="M344.84 121.79C344.771 121.693 344.682 121.611 344.58 121.55V120.74C344.677 120.801 344.761 120.879 344.83 120.97L344.84 121.79Z" fill="white"/>
<path d="M345 122C344.929 121.949 344.865 121.888 344.81 121.82V121C344.863 121.073 344.927 121.137 345 121.19V122Z" fill="white"/>
<path d="M345.93 121.7C345.37 122.03 345.17 122.05 345.03 121.97V121.16C345.17 121.24 345.37 121.16 345.93 120.89V121.7Z" fill="white"/>
<path d="M345.85 120.93V121.75C345.98 121.75 335.53 128.27 334.98 128.62V127.8C335.52 127.46 346 120.91 345.85 120.93Z" fill="#EDEDEF"/>
<path d="M346.7 119.09V119.9C346.632 120.597 346.382 121.265 345.975 121.835C345.567 122.406 345.018 122.859 344.38 123.15V122.34C345.018 122.049 345.567 121.596 345.975 121.025C346.382 120.455 346.632 119.787 346.7 119.09Z" fill="#D4D2E1"/>
<path d="M316.29 120.78C316.138 120.69 315.997 120.583 315.87 120.46V119.64C315.998 119.765 316.143 119.873 316.3 119.96L316.29 120.78Z" fill="white"/>
<path d="M316.54 120.9L316.29 120.78V120L316.53 120.13L316.54 120.9Z" fill="white"/>
<path d="M316.69 120.55V121.36C316.69 121.77 316.3 122.27 315.69 122.73C315.08 123.19 314.83 123.52 314.83 123.79V123C314.83 122.73 315.12 122.35 315.69 121.94C316.26 121.53 316.69 121 316.69 120.55Z" fill="#EDEDEF"/>
<path d="M315 124.08C314.949 124.051 314.906 124.008 314.877 123.957C314.847 123.907 314.831 123.849 314.83 123.79V123C314.83 123.058 314.847 123.114 314.876 123.163C314.906 123.213 314.949 123.253 315 123.28V124.08Z" fill="white"/>
<path d="M284.89 120.73V121.54C284.89 121.85 284.42 122.42 283.67 122.97C283.438 123.115 283.241 123.31 283.092 123.539C282.944 123.769 282.847 124.029 282.81 124.3V123.49C282.845 123.217 282.941 122.955 283.092 122.725C283.243 122.495 283.444 122.301 283.68 122.16C284.41 121.61 284.88 121 284.89 120.73Z" fill="#EDEDEF"/>
<path d="M316.83 125C316.817 124.875 316.771 124.756 316.697 124.654C316.624 124.552 316.525 124.472 316.41 124.42V123.6C316.527 123.652 316.627 123.734 316.701 123.837C316.775 123.941 316.819 124.063 316.83 124.19V125Z" fill="white"/>
<path d="M316.83 124.2V125C316.84 125.053 316.84 125.107 316.83 125.16C316.821 125.223 316.821 125.287 316.83 125.35V124.54C316.82 124.477 316.82 124.413 316.83 124.35C316.838 124.3 316.838 124.25 316.83 124.2Z" fill="#EDEDEF"/>
<path d="M317.46 126.31C317.265 126.222 317.098 126.082 316.976 125.906C316.855 125.729 316.784 125.524 316.77 125.31V124.5C316.789 124.712 316.862 124.916 316.983 125.091C317.104 125.266 317.268 125.407 317.46 125.5V126.31Z" fill="white"/>
<path d="M288.46 126.36V125.55C289.31 125.79 291.4 125.35 293.53 124.43V125.24C291.39 126.16 289.31 126.6 288.46 126.36Z" fill="white"/>
<path d="M318.11 126.59L317.94 126.52V125.7C318.003 125.715 318.063 125.739 318.12 125.77C318.164 125.798 318.205 125.831 318.24 125.87V126.69L318.11 126.59Z" fill="white"/>
<path d="M318.24 126.69C318.24 126.69 318.24 126.61 318.24 126.57V125.87C318.317 125.958 318.356 126.073 318.35 126.19V127C318.352 126.887 318.313 126.777 318.24 126.69Z" fill="white"/>
<path d="M317.94 126.52C317.77 126.474 317.609 126.404 317.46 126.31V125.5C317.612 125.585 317.773 125.652 317.94 125.7V126.52Z" fill="white"/>
<path d="M318.3 126.25V127.06C318.3 127.5 317.87 128.06 317.12 128.65C316.37 129.24 315.97 129.65 315.97 129.95V129.13C315.97 128.88 316.37 128.41 317.12 127.84C317.87 127.27 318.3 126.68 318.3 126.25Z" fill="#EDEDEF"/>
<path d="M318.51 130.7C318.51 130.43 318.51 130.16 318.51 129.88C319.54 129.887 320.561 129.682 321.51 129.28V130.09C320.56 130.491 319.541 130.698 318.51 130.7Z" fill="white"/>
<path d="M344.34 115.79C347.47 117.6 347.49 120.53 344.34 122.34L335 127.8C335.55 127.46 346 120.91 346 120.89C345.44 121.21 345.24 121.24 345.1 121.16C345.027 121.107 344.963 121.043 344.91 120.97C344.841 120.879 344.757 120.801 344.66 120.74C344.524 120.668 344.374 120.623 344.22 120.61C343.22 120.5 338.75 122.32 334.39 124.67C330.03 127.02 326.06 128.76 325.56 128.55C325.06 128.34 323.29 128.67 321.56 129.28C320.567 129.742 319.47 129.932 318.38 129.83C318.359 129.82 318.34 129.806 318.325 129.789C318.309 129.772 318.297 129.752 318.29 129.73C318.249 129.617 318.167 129.524 318.06 129.47C317.568 129.26 317.024 129.204 316.5 129.31C316.363 129.349 316.217 129.349 316.08 129.31C315.81 129.15 316.2 128.58 317.15 127.86C318.28 126.99 318.69 126.11 318.15 125.79C318.093 125.759 318.033 125.735 317.97 125.72C317.803 125.672 317.642 125.605 317.49 125.52C316.99 125.23 316.71 124.78 316.83 124.38C316.95 123.98 316.77 123.82 316.44 123.63C316.131 123.468 315.788 123.383 315.44 123.38C315.281 123.384 315.123 123.349 314.98 123.28C314.61 123.06 314.85 122.53 315.67 121.94C316.67 121.21 317.05 120.4 316.54 120.11L316.3 119.98C316.073 119.873 315.873 119.714 315.719 119.516C315.564 119.318 315.458 119.087 315.41 118.84C315.41 118.79 315.395 118.741 315.369 118.699C315.342 118.656 315.305 118.622 315.26 118.6C314.714 118.45 314.13 118.514 313.63 118.78C312.675 119.151 311.654 119.324 310.63 119.29C309.632 119.28 308.65 119.543 307.79 120.05C305.99 120.842 304.099 121.406 302.16 121.73C299.217 122.376 296.339 123.287 293.56 124.45C291.24 125.45 288.98 125.88 288.3 125.45C288.25 125.422 288.206 125.384 288.17 125.34C288.027 125.164 287.85 125.017 287.65 124.91C287.122 124.611 286.511 124.495 285.91 124.58C284.992 124.709 284.056 124.552 283.23 124.13C282.55 123.74 282.76 122.84 283.7 122.13C284.64 121.42 285.15 120.7 284.81 120.51C284.647 120.408 284.527 120.25 284.474 120.065C284.42 119.881 284.437 119.683 284.52 119.51C284.61 119.28 284.52 119.05 284.22 118.9C284.036 118.796 283.831 118.735 283.62 118.72C283.511 118.708 283.405 118.674 283.31 118.62C282.96 118.42 283.02 117.97 283.49 117.47C283.96 116.97 283.89 116.67 283.49 116.47C283.292 116.368 283.072 116.316 282.85 116.32C282.714 116.318 282.58 116.284 282.46 116.22C282.02 115.97 282.29 115.22 283.2 114.39C284.11 113.56 284.39 112.56 283.76 112.2C283.675 112.146 283.58 112.108 283.48 112.09L283.16 112.02C284.99 109.21 283.94 105.91 280.01 103.65L279.64 103.44L301.25 90.88L344.34 115.79Z" fill="#F5F5F7"/>
<path d="M184 102.6C183.56 102.965 183.251 103.464 183.12 104.02V103.2C183.249 102.645 183.559 102.15 184 101.79V102.6Z" fill="#BBEDDA"/>
<path d="M185.51 100.66V101.48C185.425 102.016 185.143 102.501 184.72 102.84C184.1 103.46 183.94 103.84 183.94 104.03V103.22C183.94 103.03 184.1 102.64 184.72 102.03C185.141 101.685 185.422 101.198 185.51 100.66Z" fill="#3C33B2"/>
<path d="M184.24 104.14C184.09 104.14 184.01 104.05 184.01 103.9V103.09C184.009 103.121 184.014 103.152 184.025 103.181C184.035 103.21 184.052 103.237 184.074 103.259C184.095 103.282 184.121 103.299 184.15 103.312C184.178 103.324 184.209 103.33 184.24 103.33V104.14Z" fill="white"/>
<path d="M186 104.31C185.452 104.074 184.844 104.015 184.26 104.14V103.33C184.843 103.195 185.454 103.255 186 103.5V104.31Z" fill="white"/>
<path d="M183.13 104V103.18C183.128 103.278 183.151 103.376 183.196 103.463C183.242 103.55 183.308 103.625 183.39 103.68V104.49C183.309 104.437 183.243 104.364 183.198 104.278C183.152 104.192 183.129 104.097 183.13 104Z" fill="#3C33B2"/>
<path d="M185.43 103.84V104.66C185.127 104.543 184.795 104.522 184.48 104.6C184.122 104.692 183.742 104.653 183.41 104.49V103.68C183.745 103.844 184.128 103.883 184.49 103.79C184.802 103.717 185.128 103.735 185.43 103.84Z" fill="#3C33B2"/>
<path d="M186.42 104.94C186.416 104.81 186.376 104.684 186.303 104.576C186.23 104.468 186.129 104.383 186.01 104.33V103.51C186.128 103.564 186.229 103.649 186.302 103.757C186.374 103.865 186.415 103.99 186.42 104.12V104.94Z" fill="white"/>
<path d="M185.59 104.13V104.94C185.591 104.882 185.575 104.825 185.545 104.776C185.515 104.726 185.472 104.686 185.42 104.66V103.84C185.472 103.869 185.515 103.911 185.545 103.962C185.575 104.013 185.59 104.071 185.59 104.13Z" fill="#3C33B2"/>
<path d="M186.42 104.13V104.94C186.434 105.029 186.434 105.121 186.42 105.21C186.39 105.29 186.373 105.375 186.37 105.46V104.65C186.372 104.564 186.389 104.48 186.42 104.4C186.432 104.31 186.432 104.22 186.42 104.13Z" fill="#3C33B2"/>
<path d="M185.56 105.11C185.522 105.223 185.501 105.341 185.5 105.46V104.65C185.499 104.531 185.519 104.412 185.56 104.3C185.57 104.247 185.57 104.193 185.56 104.14V105C185.564 105.037 185.564 105.073 185.56 105.11Z" fill="#BBEDDA"/>
<path d="M186.63 106C186.54 105.935 186.466 105.852 186.412 105.755C186.359 105.658 186.327 105.55 186.32 105.44V104.62C186.321 104.731 186.348 104.84 186.401 104.937C186.453 105.035 186.528 105.118 186.62 105.18L186.63 106Z" fill="white"/>
<path d="M187.09 105.35V106.16C186.942 106.156 186.797 106.115 186.67 106.04V105.23C186.8 105.299 186.943 105.34 187.09 105.35Z" fill="white"/>
<path d="M221.58 106.23C220.938 106.065 220.257 106.155 219.68 106.48V105.66C220.258 105.337 220.939 105.251 221.58 105.42V106.23Z" fill="white"/>
<path d="M275.89 106.89L275.52 106.69V105.87L275.89 106.08C276.519 106.357 277.064 106.796 277.466 107.354C277.869 107.911 278.115 108.566 278.18 109.25V110.06C278.114 109.376 277.867 108.722 277.465 108.164C277.062 107.607 276.519 107.167 275.89 106.89Z" fill="#8DE0C1"/>
<path d="M279.65 103.47V104.29L275.52 106.69V105.87L279.65 103.47Z" fill="#8DE0C1"/>
<path d="M187.74 106.45C187.561 106.285 187.333 106.183 187.09 106.16V105.35C187.335 105.369 187.566 105.467 187.75 105.63V106.45H187.74Z" fill="white"/>
<path d="M221.04 105.78L221.03 106.59L221.04 105.77V105.78Z" fill="#3C33B2"/>
<path d="M221.86 106.61C221.859 106.537 221.838 106.466 221.799 106.404C221.76 106.343 221.705 106.293 221.64 106.26V105.44C221.705 105.473 221.76 105.523 221.799 105.584C221.838 105.646 221.859 105.717 221.86 105.79V106.61Z" fill="white"/>
<path d="M185.5 105.46V104.65C185.502 104.804 185.538 104.955 185.608 105.092C185.677 105.229 185.777 105.348 185.9 105.44L186.08 105.56C186.354 105.717 186.664 105.803 186.98 105.81V106.62C186.664 106.615 186.354 106.529 186.08 106.37C186.013 106.342 185.952 106.301 185.9 106.25C185.777 106.158 185.677 106.039 185.608 105.902C185.538 105.765 185.502 105.614 185.5 105.46Z" fill="#3C33B2"/>
<path d="M187.81 106.67C187.813 106.591 187.788 106.513 187.74 106.45V105.63C187.78 105.7 187.8 105.779 187.8 105.86L187.81 106.67Z" fill="white"/>
<path d="M219.68 106.48C218.578 106.945 217.385 107.157 216.19 107.1V106.28C217.389 106.342 218.586 106.13 219.69 105.66L219.68 106.48Z" fill="white"/>
<path d="M211.79 107.89C209.927 108.57 207.978 108.984 206 109.12V108.3C207.974 108.165 209.92 107.755 211.78 107.08L211.79 107.89Z" fill="white"/>
<path d="M190.24 111.16C189.613 111.028 188.962 111.059 188.35 111.25V110.43C188.967 110.247 189.62 110.219 190.25 110.35L190.24 111.16Z" fill="white"/>
<path d="M191.45 111.6C191.073 111.389 190.664 111.24 190.24 111.16V110.35C190.663 110.423 191.07 110.573 191.44 110.79L191.45 111.6Z" fill="white"/>
<path d="M192.32 112.36C192.083 112.051 191.788 111.793 191.45 111.6V110.79C191.789 110.977 192.085 111.232 192.32 111.54V112.36Z" fill="white"/>
<path d="M192.56 112.56C192.466 112.513 192.383 112.444 192.32 112.36V111.54C192.386 111.625 192.467 111.696 192.56 111.75V112.56Z" fill="white"/>
<path d="M193.13 112.74C192.929 112.723 192.734 112.661 192.56 112.56V111.75C192.738 111.842 192.931 111.899 193.13 111.92V112.74Z" fill="white"/>
<path d="M221 105.77V106.59C220.708 106.655 220.423 106.749 220.15 106.87C218.821 107.431 217.378 107.668 215.94 107.56C214.674 107.515 213.415 107.762 212.26 108.28C210.269 109.008 208.185 109.449 206.07 109.59C203.293 109.994 200.594 110.824 198.07 112.05C196.494 112.895 194.716 113.292 192.93 113.2C192.58 113.169 192.239 113.067 191.93 112.9C191.772 112.81 191.633 112.692 191.52 112.55C191.336 112.302 191.101 112.098 190.83 111.95C190.555 111.789 190.254 111.677 189.94 111.62V110.8C190.252 110.862 190.553 110.973 190.83 111.13C191.1 111.283 191.337 111.487 191.53 111.73C191.636 111.877 191.772 112 191.93 112.09C192.244 112.246 192.582 112.348 192.93 112.39C194.72 112.479 196.501 112.078 198.08 111.23C200.603 110.001 203.302 109.175 206.08 108.78C208.195 108.631 210.278 108.187 212.27 107.46C213.427 106.947 214.685 106.701 215.95 106.74C217.388 106.853 218.833 106.616 220.16 106.05C220.434 105.938 220.714 105.845 221 105.77Z" fill="#3C33B2"/>
<path d="M221 106.59C220.991 106.703 220.949 106.81 220.88 106.9V106.08C220.953 105.996 220.999 105.891 221.01 105.78L221 106.59Z" fill="#BBEDDA"/>
<path d="M221.86 105.81V106.62C221.848 106.783 221.789 106.939 221.69 107.07C221.57 107.229 221.5 107.421 221.49 107.62V106.81C221.497 106.612 221.564 106.42 221.68 106.26C221.781 106.13 221.844 105.974 221.86 105.81Z" fill="#3C33B2"/>
<path d="M220.66 107.62V106.81C220.671 106.548 220.758 106.294 220.91 106.08V106.9C220.757 107.11 220.67 107.36 220.66 107.62Z" fill="#BBEDDA"/>
<path d="M216.19 107.1C214.681 107.006 213.172 107.277 211.79 107.89V107.08C213.171 106.465 214.68 106.19 216.19 106.28V107.1Z" fill="white"/>
<path d="M221.83 108C221.739 107.958 221.661 107.892 221.605 107.81C221.548 107.727 221.515 107.63 221.51 107.53V106.71C221.514 106.81 221.547 106.908 221.603 106.991C221.66 107.074 221.738 107.139 221.83 107.18V108Z" fill="white"/>
<path d="M223.06 108.33C222.691 108.131 222.279 108.024 221.86 108.02V107.2C222.281 107.201 222.694 107.312 223.06 107.52V108.33Z" fill="white"/>
<path d="M187 106.67C187 106.86 186.68 107.43 185.38 108.34V107.53C186.68 106.61 187.01 106.04 187.01 105.86L187 106.67Z" fill="#BBEDDA"/>
<path d="M220.66 107.62V106.81C220.657 106.919 220.679 107.026 220.724 107.125C220.769 107.224 220.836 107.311 220.92 107.38C220.966 107.422 221.016 107.459 221.07 107.49C221.3 107.615 221.558 107.68 221.82 107.68V108.5C221.559 108.496 221.302 108.43 221.07 108.31L220.91 108.2C220.829 108.127 220.765 108.037 220.722 107.937C220.679 107.837 220.658 107.729 220.66 107.62Z" fill="#3C33B2"/>
<path d="M222.49 107.86V108.68C222.291 108.56 222.062 108.498 221.83 108.5V107.68C222.062 107.681 222.29 107.743 222.49 107.86Z" fill="#3C33B2"/>
<path d="M223.57 108.23V109C223.555 108.855 223.504 108.716 223.422 108.596C223.34 108.475 223.229 108.377 223.1 108.31V107.5C223.237 107.568 223.353 107.672 223.435 107.8C223.518 107.929 223.565 108.077 223.57 108.23Z" fill="white"/>
<path d="M222.74 108.23V109C222.737 108.922 222.711 108.848 222.667 108.784C222.623 108.72 222.561 108.67 222.49 108.64V107.82C222.566 107.858 222.63 107.916 222.674 107.989C222.718 108.061 222.741 108.145 222.74 108.23Z" fill="#3C33B2"/>
<path d="M222.73 109.07C222.163 110.104 221.362 110.992 220.39 111.66V110.84C221.358 110.167 222.159 109.281 222.73 108.25C222.74 108.5 222.74 108.83 222.73 109.07Z" fill="#BBEDDA"/>
<path d="M275.52 105.87V106.69C273.925 105.93 272.176 105.551 270.41 105.58C268.507 105.537 266.626 105.988 264.95 106.89C263.952 107.387 263.186 108.251 262.81 109.3V108.49C263.188 107.44 263.954 106.574 264.95 106.07C266.628 105.174 268.508 104.723 270.41 104.76C272.176 104.733 273.924 105.113 275.52 105.87Z" fill="#8DE0C1"/>
<path d="M262.81 109.3C262.335 109.429 261.835 109.429 261.36 109.3V108.48C261.835 108.606 262.335 108.606 262.81 108.48V109.3Z" fill="#8DE0C1"/>
<path d="M185.37 108.34C184.912 108.657 184.486 109.018 184.1 109.42V108.61C184.481 108.203 184.907 107.84 185.37 107.53V108.34Z" fill="#BBEDDA"/>
<path d="M262.81 108.49V109.3C262.757 109.472 262.724 109.65 262.71 109.83V109C262.729 108.828 262.763 108.657 262.81 108.49Z" fill="#2C7B9A"/>
<path d="M279.65 103.47V104.29C274.3 101.42 265.97 101.49 260.8 104.5C258.18 106.02 256.86 108.01 256.8 110V109.19C256.8 107.19 258.13 105.19 260.8 103.68C266 100.67 274.31 100.6 279.65 103.47Z" fill="white"/>
<path d="M261.36 108.53V109.35C260.66 109 259.05 109.27 257.84 109.7C257.54 109.81 257.2 109.91 256.84 110V109.19C257.19 109.1 257.53 109 257.84 108.89C259.06 108.45 260.66 108.18 261.36 108.53Z" fill="#8DE0C1"/>
<path d="M279.65 103.47L275.52 105.87C273.924 105.113 272.176 104.733 270.41 104.76C268.508 104.723 266.628 105.174 264.95 106.07C263.954 106.574 263.188 107.44 262.81 108.49C262.335 108.616 261.835 108.616 261.36 108.49C260.66 108.14 259.06 108.41 257.84 108.85C257.54 108.96 257.2 109.06 256.84 109.15C256.84 107.15 258.17 105.15 260.84 103.64C266 100.67 274.31 100.6 279.65 103.47Z" fill="#8DE0C1"/>
<path d="M256.85 109.19V110C256.01 110.229 255.141 110.336 254.27 110.32C252.92 110.21 247.27 112.47 243.76 114.02C239.637 115.887 235.41 117.516 231.1 118.9C229.572 119.413 227.958 119.62 226.35 119.51C225.351 119.084 224.251 118.952 223.18 119.13V118.31C224.248 118.138 225.343 118.27 226.34 118.69C227.948 118.813 229.563 118.609 231.09 118.09C235.4 116.704 239.627 115.071 243.75 113.2C247.24 111.66 252.91 109.4 254.26 109.51C255.134 109.523 256.005 109.415 256.85 109.19Z" fill="white"/>
<path d="M258.28 110.11C257.82 110.276 257.349 110.409 256.87 110.51V109.7C257.347 109.594 257.818 109.461 258.28 109.3C259.077 108.948 259.953 108.81 260.82 108.9C261.427 109.113 262.082 109.151 262.71 109.01V109.83C262.081 109.969 261.426 109.928 260.82 109.71C259.953 109.631 259.081 109.769 258.28 110.11Z" fill="#2C7B9A"/>
<path d="M262.71 109.83C262.705 109.903 262.705 109.977 262.71 110.05V109.24C262.705 109.163 262.705 109.087 262.71 109.01C262.71 109.26 262.72 109.58 262.71 109.83Z" fill="#6BD7AE"/>
<path d="M277 109.25V110.06C276.941 109.48 276.729 108.925 276.387 108.453C276.045 107.98 275.583 107.607 275.05 107.37C273.622 106.604 272.02 106.218 270.4 106.25C268.783 106.212 267.184 106.595 265.76 107.36C265.229 107.598 264.77 107.974 264.433 108.449C264.095 108.924 263.891 109.48 263.84 110.06V109.24C263.887 108.661 264.09 108.106 264.426 107.633C264.762 107.159 265.219 106.785 265.75 106.55C267.174 105.782 268.773 105.397 270.39 105.43C272.014 105.399 273.618 105.785 275.05 106.55C275.585 106.788 276.047 107.163 276.389 107.637C276.732 108.111 276.943 108.668 277 109.25Z" fill="white"/>
<path d="M184.1 109.42C183.891 109.626 183.751 109.891 183.7 110.18V109.37C183.74 109.08 183.877 108.812 184.09 108.61V109.33C184.09 109.33 184.11 109.4 184.1 109.42Z" fill="#BBEDDA"/>
<path d="M187.81 105.86V106.67C187.81 107.32 186.46 108.33 186.01 108.67C184.82 109.5 184.53 110.03 184.53 110.21V109.4C184.53 109.22 184.82 108.69 186.01 107.86C186.46 107.51 187.81 106.51 187.81 105.86Z" fill="#3C33B2"/>
<path d="M184.54 110.25C184.54 110.25 184.54 110.25 184.54 110.19V109.38C184.535 109.396 184.535 109.414 184.54 109.43V110.25Z" fill="white"/>
<path d="M256.85 110V109.18C256.85 109.35 256.85 109.51 256.85 109.68V110.49C256.86 110.35 256.85 110.18 256.85 110Z" fill="#2C7B9A"/>
<path d="M262.81 108.49C262.762 108.66 262.729 108.834 262.71 109.01C262.082 109.151 261.427 109.113 260.82 108.9C259.953 108.81 259.077 108.947 258.28 109.3C257.818 109.461 257.347 109.594 256.87 109.7C256.87 109.53 256.87 109.36 256.87 109.19C257.22 109.1 257.56 109 257.87 108.89C259.09 108.45 260.69 108.18 261.39 108.53C261.859 108.638 262.348 108.624 262.81 108.49Z" fill="#1CC283"/>
<path d="M186.32 110.64C185.767 110.368 185.156 110.235 184.54 110.25V109.43C185.154 109.417 185.761 109.555 186.31 109.83L186.32 110.64Z" fill="white"/>
<path d="M256.87 109.7V110.51C255.981 110.734 255.066 110.832 254.15 110.8V110C255.066 110.024 255.981 109.923 256.87 109.7Z" fill="#3C33B2"/>
<path d="M183.7 110.18V109.37C183.699 109.467 183.731 109.562 183.79 109.64C183.837 109.69 183.891 109.734 183.95 109.77C184.156 109.88 184.387 109.931 184.62 109.92C185.001 109.905 185.38 109.988 185.72 110.16C185.89 110.26 185.99 110.38 185.99 110.5V111.32C185.99 111.19 185.89 111.07 185.72 110.98C185.38 110.805 185.002 110.719 184.62 110.73C184.388 110.745 184.156 110.697 183.95 110.59C183.888 110.554 183.834 110.506 183.79 110.45C183.727 110.375 183.695 110.278 183.7 110.18Z" fill="#3C33B2"/>
<path d="M186.91 111.43C186.874 111.264 186.802 111.107 186.701 110.971C186.599 110.835 186.469 110.722 186.32 110.64V109.83C186.472 109.908 186.604 110.02 186.707 110.157C186.809 110.294 186.878 110.452 186.91 110.62V111.43Z" fill="white"/>
<path d="M187.09 111.46C187.031 111.472 186.969 111.472 186.91 111.46V110.65H187.09V111.46Z" fill="white"/>
<path d="M187.09 111.46V110.65C187.519 110.648 187.945 110.574 188.35 110.43V111.25C187.945 111.391 187.519 111.462 187.09 111.46Z" fill="white"/>
<path d="M206 109.12C203.064 109.521 200.212 110.389 197.55 111.69V110.87C200.212 109.569 203.065 108.702 206 108.3V109.12Z" fill="white"/>
<path d="M190 110.8V111.62C189.597 111.514 189.173 111.514 188.77 111.62C188.05 111.897 187.265 111.959 186.51 111.8L186.32 111.71C186.234 111.671 186.161 111.61 186.108 111.532C186.055 111.455 186.025 111.364 186.02 111.27V110.45C186.026 110.544 186.057 110.634 186.109 110.711C186.162 110.789 186.235 110.851 186.32 110.89C186.381 110.932 186.448 110.962 186.52 110.98C187.271 111.144 188.054 111.081 188.77 110.8C189.173 110.694 189.597 110.694 190 110.8Z" fill="#3C33B2"/>
<path d="M278.18 109.28V110.1C278.155 110.571 278.029 111.032 277.812 111.451C277.595 111.87 277.291 112.238 276.92 112.53V111.71C277.293 111.42 277.599 111.053 277.816 110.633C278.034 110.214 278.158 109.752 278.18 109.28Z" fill="white"/>
<path d="M224.23 112.5V111.69H224.33V112.51L224.23 112.5Z" fill="white"/>
<path d="M224.23 112.5C223.277 112.213 222.256 112.241 221.32 112.58V111.77C222.255 111.426 223.277 111.398 224.23 111.69V112.5Z" fill="white"/>
<path d="M223.57 108.23V109.09C223.57 109.63 222.28 110.96 221.08 111.94C220.43 112.47 220.36 112.7 220.36 112.77V112C220.36 111.94 220.42 111.7 221.07 111.17C222.27 110.17 223.53 108.87 223.56 108.33C223.56 108.26 223.57 108.25 223.57 108.23Z" fill="#3C33B2"/>
<path d="M220.39 111.66C219.81 112.13 219.53 112.5 219.53 112.77V112C219.53 111.733 219.82 111.363 220.4 110.89L220.39 111.66Z" fill="#BBEDDA"/>
<path d="M221.32 112.58C220.996 112.686 220.66 112.753 220.32 112.78V112C220.659 111.967 220.994 111.9 221.32 111.8V112.58Z" fill="white"/>
<path d="M197.55 111.69C196.189 112.403 194.665 112.747 193.13 112.69V111.87C194.666 111.933 196.191 111.588 197.55 110.87V111.69Z" fill="white"/>
<path d="M219.54 112.76V111.94C219.543 112.013 219.563 112.084 219.6 112.146C219.636 112.209 219.688 112.262 219.75 112.3V113.11C219.688 113.074 219.636 113.023 219.6 112.962C219.563 112.901 219.542 112.831 219.54 112.76Z" fill="#3C33B2"/>
<path d="M224.73 112.34V113.16C224.728 113.03 224.689 112.903 224.618 112.793C224.548 112.683 224.448 112.596 224.33 112.54V111.72C224.446 111.778 224.544 111.867 224.614 111.976C224.684 112.085 224.724 112.21 224.73 112.34Z" fill="white"/>
<path d="M223.91 112.34V113.16C223.911 113.101 223.896 113.042 223.866 112.991C223.836 112.94 223.792 112.898 223.74 112.87V112.06C223.792 112.086 223.835 112.126 223.865 112.176C223.895 112.225 223.911 112.282 223.91 112.34Z" fill="#3C33B2"/>
<path d="M283.17 112.05V112.87C282.007 112.722 280.826 112.814 279.7 113.14C278.974 113.427 278.166 113.427 277.44 113.14C277.313 113.076 277.208 112.975 277.14 112.85C277.086 112.74 277.015 112.638 276.93 112.55V111.73C277.015 111.824 277.089 111.928 277.15 112.04C277.214 112.165 277.315 112.266 277.44 112.33C278.167 112.611 278.973 112.611 279.7 112.33C280.826 112.007 282.006 111.911 283.17 112.05Z" fill="#8DE0C1"/>
<path d="M280 103.68C283.93 105.94 285 109.24 283.15 112.05C281.984 111.907 280.8 111.999 279.67 112.32C278.943 112.601 278.137 112.601 277.41 112.32C277.285 112.256 277.184 112.155 277.12 112.03C277.059 111.918 276.985 111.814 276.9 111.72C277.279 111.429 277.589 111.057 277.806 110.632C278.024 110.206 278.145 109.738 278.16 109.26C278.095 108.576 277.849 107.921 277.446 107.364C277.044 106.806 276.499 106.367 275.87 106.09L275.5 105.88L279.63 103.48L280 103.68Z" fill="#8DE0C1"/>
<path d="M224.73 112.35V113.17C224.734 113.23 224.734 113.29 224.73 113.35V112.53C224.735 112.47 224.735 112.41 224.73 112.35Z" fill="#3C33B2"/>
<path d="M223.74 112.06V112.87C223.058 112.706 222.343 112.755 221.69 113.01C221.34 113.11 220.3 113.43 219.75 113.11V112.3C220.394 112.478 221.078 112.443 221.7 112.2C222.348 111.939 223.062 111.89 223.74 112.06Z" fill="#3C33B2"/>
<path d="M224.68 113.59V112.77C224.67 112.69 224.67 112.61 224.68 112.53V113.35C224.67 113.43 224.67 113.51 224.68 113.59Z" fill="#3C33B2"/>
<path d="M223.89 113.28C223.881 113.383 223.881 113.487 223.89 113.59V112.77C223.89 112.67 223.89 112.57 223.89 112.46C223.894 112.423 223.894 112.387 223.89 112.35V113.16C223.895 113.2 223.895 113.24 223.89 113.28Z" fill="#BBEDDA"/>
<path d="M265.8 112.76C265.267 112.521 264.807 112.145 264.466 111.671C264.126 111.197 263.916 110.641 263.86 110.06V109.24C263.911 109.821 264.118 110.378 264.457 110.853C264.796 111.328 265.257 111.703 265.79 111.94C267.224 112.709 268.833 113.091 270.46 113.05C270.46 113.33 270.46 113.6 270.46 113.87V113.05C272.076 113.086 273.675 112.703 275.1 111.94C275.629 111.703 276.086 111.328 276.422 110.855C276.758 110.382 276.961 109.828 277.01 109.25V110.06C276.961 110.638 276.758 111.192 276.422 111.665C276.086 112.138 275.629 112.513 275.1 112.75C273.658 113.483 272.063 113.866 270.445 113.866C268.827 113.866 267.232 113.483 265.79 112.75L265.8 112.76Z" fill="#1CC283"/>
<path d="M275.08 106.55C275.613 106.789 276.073 107.165 276.414 107.639C276.754 108.113 276.964 108.669 277.02 109.25C276.971 109.828 276.768 110.382 276.432 110.855C276.096 111.328 275.639 111.703 275.11 111.94C273.667 112.669 272.072 113.049 270.455 113.049C268.838 113.049 267.243 112.669 265.8 111.94C265.267 111.703 264.806 111.328 264.467 110.853C264.128 110.378 263.921 109.821 263.87 109.24C263.917 108.661 264.12 108.106 264.456 107.633C264.792 107.159 265.249 106.785 265.78 106.55C267.204 105.782 268.803 105.397 270.42 105.43C272.044 105.399 273.648 105.785 275.08 106.55Z" fill="#1CC283"/>
<path d="M225 114.24C224.887 114.173 224.794 114.075 224.733 113.959C224.671 113.843 224.642 113.712 224.65 113.58V112.76C224.643 112.893 224.671 113.025 224.733 113.143C224.795 113.261 224.887 113.36 225 113.43V114.24Z" fill="white"/>
<path d="M225.6 114.35C225.407 114.375 225.212 114.34 225.04 114.25V113.44C225.213 113.527 225.409 113.558 225.6 113.53V114.35Z" fill="white"/>
<path d="M276.92 111.71V112.53C276.61 112.795 276.275 113.029 275.92 113.23C274.241 114.133 272.356 114.585 270.45 114.54C268.657 114.568 266.883 114.174 265.27 113.39L264.98 113.23C264.354 112.949 263.812 112.508 263.41 111.952C263.008 111.395 262.76 110.743 262.69 110.06V109.25C262.761 109.931 263.009 110.582 263.411 111.137C263.813 111.692 264.354 112.131 264.98 112.41L265.27 112.57C266.88 113.361 268.656 113.759 270.45 113.73C272.36 113.771 274.248 113.316 275.93 112.41C276.284 112.212 276.616 111.978 276.92 111.71Z" fill="white"/>
<path d="M276.92 111.71C276.613 111.978 276.277 112.213 275.92 112.41C274.238 113.316 272.35 113.771 270.44 113.73C268.646 113.759 266.87 113.361 265.26 112.57L264.97 112.41C264.344 112.131 263.803 111.692 263.401 111.137C262.999 110.582 262.751 109.931 262.68 109.25C262.675 109.17 262.675 109.09 262.68 109.01C262.699 108.834 262.732 108.66 262.78 108.49C263.158 107.44 263.924 106.574 264.92 106.07C266.598 105.174 268.478 104.723 270.38 104.76C272.146 104.733 273.894 105.113 275.49 105.87L275.86 106.08C276.489 106.357 277.034 106.796 277.436 107.354C277.839 107.911 278.085 108.566 278.15 109.25C278.139 109.725 278.023 110.192 277.81 110.617C277.597 111.043 277.293 111.416 276.92 111.71ZM270.47 113.05C272.086 113.086 273.685 112.703 275.11 111.94C275.639 111.703 276.096 111.328 276.432 110.855C276.768 110.382 276.971 109.828 277.02 109.25C276.964 108.669 276.754 108.113 276.414 107.639C276.073 107.165 275.613 106.789 275.08 106.55C273.648 105.785 272.044 105.399 270.42 105.43C268.803 105.397 267.204 105.782 265.78 106.55C265.249 106.785 264.792 107.159 264.456 107.633C264.12 108.106 263.917 108.661 263.87 109.24C263.922 109.821 264.128 110.378 264.467 110.853C264.806 111.328 265.267 111.703 265.8 111.94C267.234 112.709 268.843 113.091 270.47 113.05Z" fill="white"/>
<path d="M226.3 114.46C226.083 114.354 225.839 114.316 225.6 114.35V113.53C225.84 113.5 226.084 113.541 226.3 113.65V114.46Z" fill="white"/>
<path d="M226.3 114.46V113.65L226.41 113.71V114.53L226.3 114.46Z" fill="white"/>
<path d="M223.85 113.59V112.77C223.852 112.978 223.91 113.181 224.02 113.357C224.129 113.533 224.285 113.676 224.47 113.77V114.59C224.286 114.495 224.132 114.351 224.022 114.175C223.913 113.999 223.854 113.797 223.85 113.59Z" fill="#3C33B2"/>
<path d="M226.55 114V114.81C226.552 114.749 226.539 114.688 226.513 114.632C226.487 114.576 226.448 114.528 226.4 114.49V113.67C226.448 113.71 226.486 113.761 226.512 113.818C226.538 113.875 226.551 113.937 226.55 114Z" fill="white"/>
<path d="M225.73 114V114.81C225.736 114.787 225.736 114.763 225.73 114.74V114Z" fill="#3C33B2"/>
<path d="M225.71 114V114.81C225.288 114.895 224.85 114.832 224.47 114.63V113.81C224.849 114.015 225.287 114.082 225.71 114Z" fill="#3C33B2"/>
<path d="M265.28 112.57V113.39L261.1 115.77V115L265.28 112.57Z" fill="#6BD7AE"/>
<path d="M261.11 115V115.82L260.87 115.68C258.41 114.26 257.08 112.42 256.87 110.56V109.75C257.07 111.61 258.4 113.44 260.87 114.86C260.947 114.912 261.027 114.959 261.11 115Z" fill="#6BD7AE"/>
<path d="M262.71 109C262.705 109.08 262.705 109.16 262.71 109.24C262.781 109.921 263.029 110.572 263.431 111.127C263.833 111.682 264.374 112.121 265 112.4L265.29 112.56L261.11 115C261.023 114.959 260.94 114.913 260.86 114.86C258.4 113.44 257.07 111.61 256.86 109.75C257.337 109.644 257.808 109.511 258.27 109.35C259.067 108.997 259.943 108.86 260.81 108.95C261.426 109.145 262.085 109.162 262.71 109Z" fill="#6BD7AE"/>
<path d="M225.72 114.85C225.72 115.09 225.37 115.77 224.1 116.9V116.08C225.37 114.96 225.73 114.27 225.73 114.08L225.72 114.85Z" fill="#BBEDDA"/>
<path d="M282.47 117.07C282.404 117.032 282.349 116.976 282.312 116.909C282.275 116.842 282.257 116.766 282.26 116.69V115.87C282.251 115.946 282.265 116.023 282.301 116.091C282.337 116.159 282.392 116.214 282.46 116.25L282.47 117.07Z" fill="white"/>
<path d="M282.86 117.16C282.725 117.157 282.593 117.126 282.47 117.07V116.25C282.59 116.314 282.724 116.348 282.86 116.35V117.16Z" fill="white"/>
<path d="M283.77 117.73C283.768 117.643 283.742 117.559 283.694 117.486C283.646 117.413 283.579 117.356 283.5 117.32V116.5C283.58 116.538 283.648 116.597 283.695 116.671C283.743 116.745 283.769 116.832 283.77 116.92V117.73Z" fill="white"/>
<path d="M283.17 112.05C282.368 113.196 281.315 114.144 280.09 114.82C274.88 117.82 266.45 117.89 261.09 114.95L265.26 112.57C266.87 113.361 268.646 113.759 270.44 113.73C272.35 113.771 274.238 113.316 275.92 112.41C276.277 112.213 276.613 111.978 276.92 111.71C277.005 111.804 277.079 111.908 277.14 112.02C277.204 112.145 277.305 112.246 277.43 112.31C278.157 112.591 278.963 112.591 279.69 112.31C280.821 111.992 282.004 111.904 283.17 112.05Z" fill="#84D7B9"/>
<path d="M283.17 112.05V112.87C282.372 114.017 281.317 114.962 280.09 115.63C274.88 118.63 266.46 118.7 261.09 115.77V115C266.43 117.94 274.86 117.89 280.09 114.87C281.32 114.18 282.374 113.215 283.17 112.05Z" fill="#84D7B9"/>
<path d="M226.49 114V114.82C226.49 115.53 225.35 116.62 224.79 117.12C223.54 118.22 223.18 118.87 223.18 119.12V118.3C223.18 118.09 223.53 117.44 224.78 116.3C225.35 115.84 226.49 114.76 226.49 114Z" fill="#3C33B2"/>
<path d="M224.1 116.9C223.4 117.51 222.37 118.52 222.37 119.13V118.32C222.37 117.71 223.37 116.69 224.1 116.08V116.9Z" fill="#BBEDDA"/>
<path d="M315.26 119.4C314.711 119.25 314.126 119.311 313.62 119.57V118.76C314.12 118.494 314.704 118.43 315.25 118.58L315.26 119.4Z" fill="white"/>
<path d="M315.41 119.64C315.41 119.59 315.395 119.541 315.369 119.499C315.342 119.456 315.305 119.422 315.26 119.4V118.58C315.305 118.602 315.342 118.636 315.369 118.679C315.395 118.721 315.41 118.77 315.41 118.82V119.64Z" fill="white"/>
<path d="M283.59 119.57C283.482 119.561 283.376 119.531 283.28 119.48V118.66C283.375 118.714 283.481 118.748 283.59 118.76V119.57Z" fill="white"/>
<path d="M222.4 119.12V118.31C222.396 118.382 222.41 118.454 222.442 118.519C222.473 118.583 222.521 118.639 222.58 118.68V119.5C222.523 119.454 222.477 119.397 222.446 119.331C222.415 119.265 222.399 119.193 222.4 119.12Z" fill="#3C33B2"/>
<path d="M284.19 119.76C284.006 119.654 283.801 119.589 283.59 119.57V118.76C283.801 118.775 284.006 118.836 284.19 118.94V119.76Z" fill="white"/>
<path d="M301.26 90.91L279.65 103.47C274.31 100.6 265.97 100.67 260.8 103.68C258.18 105.2 256.87 107.19 256.8 109.19C255.959 109.414 255.091 109.522 254.22 109.51C252.87 109.4 247.22 111.66 243.71 113.2C239.587 115.071 235.36 116.704 231.05 118.09C229.523 118.609 227.908 118.813 226.3 118.69C225.303 118.27 224.208 118.138 223.14 118.31C223.14 118.1 223.49 117.45 224.74 116.31C225.43 115.7 226.97 114.22 226.36 113.68C226.12 113.525 225.833 113.461 225.55 113.5C225.359 113.528 225.163 113.497 224.99 113.41C224.842 113.316 224.729 113.176 224.669 113.011C224.61 112.847 224.606 112.667 224.66 112.5C224.703 112.342 224.689 112.173 224.619 112.025C224.549 111.877 224.429 111.758 224.28 111.69C223.309 111.348 222.251 111.348 221.28 111.69C220.954 111.79 220.619 111.857 220.28 111.89C220.28 111.89 220.28 111.62 220.99 111.04C222.19 110.04 223.45 108.74 223.48 108.2C223.481 108.045 223.437 107.892 223.354 107.761C223.27 107.63 223.151 107.525 223.01 107.46C222.637 107.241 222.213 107.124 221.78 107.12C221.37 106.9 221.34 106.58 221.6 106.18C221.86 105.78 221.77 105.48 221.6 105.36C221.277 105.262 220.938 105.231 220.602 105.269C220.267 105.307 219.943 105.413 219.65 105.58C218.546 106.05 217.349 106.262 216.15 106.2C214.64 106.11 213.131 106.385 211.75 107C209.903 107.699 207.968 108.137 206 108.3C203.061 108.701 200.205 109.568 197.54 110.87C196.181 111.588 194.656 111.933 193.12 111.87C192.921 111.849 192.728 111.792 192.55 111.7C192.457 111.646 192.376 111.575 192.31 111.49C192.075 111.182 191.779 110.927 191.44 110.74C191.07 110.523 190.663 110.373 190.24 110.3C189.61 110.169 188.957 110.197 188.34 110.38C187.882 110.556 187.388 110.622 186.9 110.57C186.868 110.402 186.799 110.243 186.697 110.107C186.594 109.97 186.462 109.858 186.31 109.78C185.761 109.505 185.154 109.367 184.54 109.38C184.45 109.3 184.63 108.74 186 107.79C186.51 107.42 188.16 106.19 187.74 105.58C187.556 105.417 187.325 105.319 187.08 105.3C186.933 105.29 186.79 105.249 186.66 105.18C186.521 105.098 186.415 104.971 186.36 104.819C186.305 104.668 186.305 104.502 186.36 104.35C186.43 104.184 186.431 103.997 186.364 103.831C186.296 103.664 186.166 103.531 186 103.46C185.445 103.21 184.824 103.147 184.23 103.28C183.87 103.28 183.86 102.81 184.7 101.98C185.54 101.15 185.7 100.45 185.3 100.07C184.943 99.8345 184.513 99.7384 184.09 99.8C183.57 99.58 183.63 99 184.56 98.06C185.04 97.56 186.11 96.36 185.47 95.89C185.321 95.8006 185.156 95.7421 184.984 95.7181C184.812 95.694 184.638 95.7049 184.47 95.75C183.785 95.8908 183.074 95.8495 182.41 95.63C181.57 95.13 179.41 95.34 177.73 95.72C177.103 95.9189 176.436 95.9567 175.79 95.83C175.63 95.73 175.79 95.53 175.79 95.45C175.86 95.3758 175.913 95.2873 175.946 95.1906C175.979 95.094 175.991 94.9913 175.98 94.8898C175.97 94.7882 175.938 94.6901 175.886 94.6021C175.834 94.5141 175.764 94.4384 175.68 94.38C174.988 93.998 174.197 93.8342 173.41 93.91C173.148 93.9441 172.882 93.9061 172.64 93.8C172.34 93.53 172.39 93.02 173.25 92.25C174.11 91.48 174.18 91.08 173.74 90.8C172.867 90.539 171.929 90.603 171.1 90.98C169.6 91.5142 168.03 91.8274 166.44 91.91C165.471 91.7016 164.473 91.661 163.49 91.79C163.297 91.8229 163.099 91.7985 162.92 91.72C162.827 91.655 162.761 91.5577 162.735 91.4469C162.709 91.3361 162.725 91.2196 162.78 91.12L163.28 89.87L162.18 88.42L161.8 88.52L223.62 52.6C225.372 51.7079 227.309 51.2428 229.275 51.2428C231.241 51.2428 233.178 51.7079 234.93 52.6L301.26 90.91Z" fill="#F5F5F7"/>
<path d="M313.62 119.57C312.666 119.945 311.645 120.122 310.62 120.09V119.27C311.644 119.304 312.665 119.131 313.62 118.76V119.57Z" fill="white"/>
<path d="M310.6 120.09C310.224 120.06 309.846 120.091 309.48 120.18V119.37C309.841 119.273 310.217 119.239 310.59 119.27L310.6 120.09Z" fill="white"/>
<path d="M256.85 109.19C256.85 109.36 256.85 109.53 256.85 109.7C255.96 109.916 255.045 110.01 254.13 109.98C253.49 109.98 249.41 111.29 244.25 113.58C240.078 115.471 235.801 117.121 231.44 118.52C229.64 119.01 226.64 119.52 225.75 119.03C224.987 118.733 224.158 118.647 223.35 118.78C223.086 118.841 222.81 118.806 222.57 118.68C221.9 118.16 223.23 116.83 224.08 116.08C225.52 114.81 225.78 114.08 225.69 113.97C225.267 114.052 224.829 113.985 224.45 113.78C224.215 113.662 224.028 113.465 223.922 113.224C223.816 112.984 223.798 112.713 223.87 112.46C223.901 112.387 223.903 112.304 223.875 112.23C223.847 112.156 223.792 112.095 223.72 112.06C223.055 111.899 222.356 111.948 221.72 112.2C221.098 112.443 220.414 112.478 219.77 112.3C219.34 112.01 219.56 111.54 220.42 110.84C221.388 110.167 222.189 109.281 222.76 108.25C222.758 108.168 222.733 108.089 222.689 108.02C222.645 107.952 222.583 107.896 222.51 107.86C222.307 107.741 222.075 107.679 221.84 107.68C221.578 107.68 221.32 107.615 221.09 107.49C221.036 107.459 220.986 107.422 220.94 107.38C220.59 107.08 220.6 106.6 220.94 106.08C221.015 105.993 221.06 105.884 221.07 105.77C220.777 105.844 220.49 105.937 220.21 106.05C218.883 106.616 217.438 106.853 216 106.74C214.735 106.701 213.477 106.947 212.32 107.46C210.328 108.187 208.245 108.631 206.13 108.78C203.352 109.175 200.653 110.001 198.13 111.23C196.551 112.078 194.77 112.479 192.98 112.39C192.632 112.348 192.294 112.246 191.98 112.09C191.822 112 191.686 111.877 191.58 111.73C191.387 111.487 191.15 111.283 190.88 111.13C190.603 110.973 190.302 110.862 189.99 110.8C189.587 110.694 189.163 110.694 188.76 110.8C188.044 111.081 187.261 111.144 186.51 110.98C186.438 110.962 186.371 110.932 186.31 110.89C186.225 110.85 186.152 110.789 186.099 110.711C186.047 110.634 186.016 110.544 186.01 110.45C186.01 110.33 185.91 110.21 185.74 110.11C185.4 109.938 185.021 109.855 184.64 109.87C184.407 109.881 184.176 109.83 183.97 109.72C183.911 109.684 183.857 109.64 183.81 109.59C183.34 109.01 184.75 107.92 185.38 107.48C186.84 106.48 187.07 105.86 186.99 105.76C186.674 105.753 186.364 105.667 186.09 105.51L185.91 105.39C185.739 105.261 185.613 105.081 185.552 104.876C185.491 104.671 185.497 104.451 185.57 104.25C185.608 104.171 185.616 104.08 185.592 103.995C185.568 103.911 185.514 103.837 185.44 103.79C185.114 103.689 184.766 103.689 184.44 103.79C184.078 103.883 183.695 103.844 183.36 103.68C182.69 103.19 183.45 102.28 183.95 101.79C184.68 101.07 184.78 100.55 184.58 100.38C184.459 100.311 184.316 100.289 184.18 100.32C183.838 100.367 183.49 100.311 183.18 100.16C182.57 99.65 182.86 98.83 183.81 97.86C184.76 96.89 184.88 96.36 184.81 96.24C183.809 96.457 182.766 96.3771 181.81 96.01C181.48 95.8 180.05 95.77 178.01 96.21C177.095 96.5186 176.105 96.5186 175.19 96.21C175.107 96.1735 175.034 96.1167 174.979 96.0448C174.923 95.9728 174.887 95.8881 174.873 95.7984C174.859 95.7087 174.868 95.6169 174.899 95.5315C174.93 95.4461 174.982 95.3699 175.05 95.31C175.17 95.14 175.27 94.9 175.05 94.71C174.575 94.4795 174.045 94.386 173.52 94.44C173.037 94.4918 172.549 94.4087 172.11 94.2C172.034 94.1552 171.963 94.1015 171.9 94.04C171.42 93.59 171.67 92.86 172.59 92.04C173.25 91.45 173.22 91.21 173.17 91.18C173.12 91.15 172.68 91.1 171.53 91.46C170.06 91.91 167.05 92.68 166.1 92.39C165.31 92.2288 164.5 92.1984 163.7 92.3C163.262 92.3856 162.808 92.3222 162.41 92.12C162.217 92.0288 162.068 91.8654 161.995 91.6651C161.922 91.4648 161.931 91.2438 162.02 91.05L162.46 89.96L161.54 88.75L161.84 88.57L162.22 88.47L163.32 89.92L162.82 91.17C162.765 91.2696 162.749 91.3861 162.775 91.4969C162.801 91.6077 162.867 91.705 162.96 91.77C163.139 91.8485 163.337 91.8729 163.53 91.84C164.513 91.711 165.511 91.7516 166.48 91.96C168.07 91.8774 169.64 91.5641 171.14 91.03C171.95 90.6643 172.862 90.5901 173.72 90.82C174.22 91.13 174.05 91.62 173.29 92.3C172.53 92.98 172.38 93.58 172.6 93.79C172.857 93.9385 173.156 93.9983 173.45 93.96C174.17 93.8879 174.895 94.0123 175.55 94.32C175.655 94.3702 175.747 94.4433 175.82 94.5338C175.893 94.6244 175.945 94.73 175.972 94.8432C175.998 94.9563 176 95.074 175.975 95.1876C175.951 95.3012 175.901 95.408 175.83 95.5C175.77 95.58 175.64 95.78 175.83 95.86C176.492 96.0164 177.185 95.9853 177.83 95.77C179.54 95.39 181.67 95.18 182.37 95.59C183.064 95.8837 183.832 95.957 184.57 95.8C184.878 95.7184 185.206 95.754 185.49 95.9C186.19 96.41 185.12 97.61 184.64 98.11C183.71 99.05 183.64 99.63 183.84 99.8C183.947 99.8338 184.063 99.8338 184.17 99.8C184.536 99.7434 184.91 99.8029 185.24 99.97C185.83 100.45 185.61 101.15 184.78 101.97C183.95 102.79 183.95 103.22 184.05 103.28C184.136 103.295 184.224 103.295 184.31 103.28C184.885 103.15 185.486 103.203 186.03 103.43C186.117 103.463 186.198 103.513 186.266 103.578C186.334 103.642 186.388 103.719 186.426 103.805C186.464 103.89 186.485 103.982 186.488 104.076C186.49 104.17 186.474 104.263 186.44 104.35C186.386 104.481 186.376 104.626 186.412 104.764C186.448 104.901 186.528 105.022 186.64 105.11C186.794 105.218 186.973 105.283 187.16 105.3C187.328 105.306 187.492 105.35 187.64 105.43C187.712 105.463 187.774 105.515 187.82 105.58C188.24 106.19 186.59 107.42 186.08 107.79C184.71 108.79 184.53 109.3 184.62 109.38C185.234 109.367 185.841 109.505 186.39 109.78C186.526 109.837 186.645 109.929 186.735 110.046C186.825 110.164 186.881 110.303 186.9 110.45C187.396 110.628 187.942 110.603 188.42 110.38C189.037 110.197 189.69 110.169 190.32 110.3C190.743 110.373 191.15 110.523 191.52 110.74C191.859 110.927 192.155 111.182 192.39 111.49C192.456 111.575 192.537 111.646 192.63 111.7C192.808 111.792 193.001 111.849 193.2 111.87C194.736 111.933 196.261 111.588 197.62 110.87C200.26 109.577 203.089 108.709 206 108.3C207.974 108.165 209.92 107.755 211.78 107.08C213.161 106.465 214.67 106.19 216.18 106.28C217.379 106.342 218.576 106.13 219.68 105.66C220.247 105.337 220.916 105.244 221.55 105.4C221.84 105.56 221.98 105.8 221.67 106.26C221.36 106.72 221.44 106.98 221.6 107.12C222.098 107.151 222.585 107.284 223.03 107.51C223.4 107.74 223.58 108 223.55 108.28C223.55 108.82 222.26 110.15 221.06 111.12C220.35 111.7 220.34 111.93 220.35 111.97C220.689 111.937 221.024 111.87 221.35 111.77C222.259 111.429 223.253 111.384 224.19 111.64C224.69 111.91 224.82 112.19 224.74 112.53C224.687 112.69 224.687 112.862 224.739 113.023C224.791 113.183 224.893 113.322 225.03 113.42C225.214 113.518 225.423 113.557 225.63 113.53C225.872 113.493 226.12 113.531 226.34 113.64C227.05 114.25 225.51 115.73 224.82 116.34C223.57 117.45 223.22 118.1 223.22 118.34C224.288 118.168 225.383 118.3 226.38 118.72C227.988 118.843 229.603 118.639 231.13 118.12C235.44 116.734 239.667 115.101 243.79 113.23C247.28 111.69 252.95 109.43 254.3 109.54C255.162 109.539 256.02 109.422 256.85 109.19Z" fill="#3C33B2"/>
<path d="M254.15 110V110.82C253.51 110.82 249.43 112.13 244.27 114.42C240.096 116.305 235.819 117.954 231.46 119.36C229.65 119.85 226.66 120.36 225.77 119.86C225.004 119.573 224.178 119.487 223.37 119.61C223.104 119.672 222.825 119.64 222.58 119.52V118.7C222.82 118.826 223.096 118.861 223.36 118.8C224.168 118.667 224.997 118.753 225.76 119.05C226.65 119.57 229.65 119.05 231.45 118.54C235.811 117.141 240.088 115.491 244.26 113.6C249.43 111.29 253.51 109.94 254.15 110Z" fill="#3C33B2"/>
<path d="M309.48 120.18C308.878 120.316 308.298 120.538 307.76 120.84V120C308.3 119.694 308.883 119.471 309.49 119.34L309.48 120.18Z" fill="white"/>
<path d="M344.58 121.55C344.447 121.48 344.3 121.439 344.15 121.43V120.61C344.304 120.623 344.454 120.668 344.59 120.74L344.58 121.55Z" fill="white"/>
<path d="M307.76 120.84C305.958 121.637 304.063 122.205 302.12 122.53V121.71C304.059 121.386 305.95 120.822 307.75 120.03L307.76 120.84Z" fill="white"/>
<path d="M315.43 124.18C315.275 124.175 315.123 124.141 314.98 124.08V123.26C315.123 123.329 315.281 123.364 315.44 123.36L315.43 124.18Z" fill="white"/>
<path d="M316.41 124.43C316.101 124.269 315.758 124.183 315.41 124.18V123.36C315.758 123.363 316.101 123.448 316.41 123.61V124.43Z" fill="white"/>
<path d="M344.15 121.43C343.15 121.32 339.27 122.9 335.2 125.01V124.2C339.26 122.09 343.2 120.51 344.14 120.61L344.15 121.43Z" fill="white"/>
<path d="M283.2 125C283.079 124.935 282.978 124.838 282.907 124.72C282.837 124.602 282.8 124.467 282.8 124.33V123.52C282.798 123.656 282.835 123.791 282.906 123.907C282.976 124.024 283.078 124.118 283.2 124.18V125Z" fill="white"/>
<path d="M302.12 122.53C299.181 123.173 296.306 124.08 293.53 125.24V124.43C296.309 123.267 299.187 122.356 302.13 121.71L302.12 122.53Z" fill="white"/>
<path d="M335.2 125L334.32 125.47V124.66L335.21 124.19L335.2 125Z" fill="white"/>
<path d="M285.87 125.42C284.955 125.548 284.023 125.391 283.2 124.97V124.15C284.026 124.572 284.962 124.729 285.88 124.6L285.87 125.42Z" fill="white"/>
<path d="M287.62 125.75C287.092 125.441 286.474 125.324 285.87 125.42V124.6C286.471 124.515 287.082 124.631 287.61 124.93L287.62 125.75Z" fill="white"/>
<path d="M288.14 126.17C287.989 126.004 287.814 125.862 287.62 125.75V124.93C287.82 125.037 287.997 125.184 288.14 125.36V126.17Z" fill="white"/>
<path d="M288.27 126.28C288.218 126.254 288.174 126.217 288.14 126.17V125.36C288.176 125.404 288.22 125.442 288.27 125.47L288.46 125.55V126.36L288.27 126.28Z" fill="white"/>
<path d="M344.38 122.33V123.15L334.97 128.62V127.8L344.38 122.33Z" fill="#D4D2E1"/>
<path d="M334.32 125.48C329.96 127.83 325.98 129.58 325.49 129.37V128.55C325.99 128.76 329.96 127.02 334.32 124.67V125.48Z" fill="white"/>
<path d="M325.49 129.37C325.01 129.16 323.21 129.49 321.49 130.09V129.28C323.18 128.67 324.97 128.35 325.49 128.55V129.37Z" fill="white"/>
<path d="M316.05 130.1C316.021 130.074 316.003 130.039 316 130V129.18C315.999 129.211 316.006 129.242 316.02 129.27C316.034 129.298 316.055 129.322 316.08 129.34L316.05 130.1Z" fill="white"/>
<path d="M316.47 130.13C316.334 130.176 316.186 130.176 316.05 130.13V129.32C316.187 129.359 316.333 129.359 316.47 129.32V130.13Z" fill="white"/>
<path d="M318 130.29C317.513 130.074 316.971 130.018 316.45 130.13V129.31C316.974 129.204 317.518 129.26 318.01 129.47L318 130.29Z" fill="white"/>
<path d="M318.26 130.54C318.239 130.484 318.207 130.433 318.166 130.39C318.124 130.347 318.075 130.313 318.02 130.29V129.47C318.127 129.524 318.209 129.617 318.25 129.73L318.26 130.54Z" fill="white"/>
<path d="M318.34 130.64C318.32 130.63 318.303 130.616 318.29 130.598C318.276 130.581 318.266 130.561 318.26 130.54V129.73C318.267 129.752 318.279 129.772 318.295 129.789C318.31 129.806 318.329 129.82 318.35 129.83C318.406 129.838 318.464 129.838 318.52 129.83C318.52 130.11 318.52 130.38 318.52 130.65C318.46 130.659 318.399 130.656 318.34 130.64Z" fill="white"/>
<path d="M261.1 115.77C246.33 124.16 229.1 133.77 215.9 141.33V140.52C229.15 132.96 246.33 123.34 261.11 114.95L261.1 115.77Z" fill="#BBEDDA"/>
<path d="M149.63 102.25C148.05 101.34 147.27 100.15 147.27 98.95V99.77C147.27 100.96 148.05 102.16 149.63 103.07L215.9 141.33V140.52L149.63 102.25Z" fill="#7F78A6"/>
<path d="M260.86 114.81C260.94 114.863 261.023 114.909 261.11 114.95C246.33 123.34 229.11 132.95 215.9 140.52L149.63 102.25C146.5 100.44 146.48 97.51 149.63 95.7L161.63 88.7L162.55 89.91L162 91.05C161.912 91.2391 161.9 91.4548 161.967 91.6522C162.034 91.8497 162.175 92.0136 162.36 92.11C162.767 92.3165 163.231 92.3833 163.68 92.3C164.48 92.1984 165.29 92.2288 166.08 92.39C167.03 92.68 170.08 91.91 171.51 91.46C172.66 91.1 173.08 91.14 173.15 91.18C173.22 91.22 173.23 91.45 172.57 92.04C171.65 92.86 171.4 93.59 171.88 94.04C171.943 94.1015 172.014 94.1552 172.09 94.2C172.529 94.4087 173.017 94.4918 173.5 94.44C173.994 94.3892 174.493 94.465 174.95 94.66C175.006 94.6899 175.055 94.7326 175.092 94.7847C175.129 94.8368 175.153 94.8968 175.163 94.9599C175.173 95.023 175.168 95.0876 175.148 95.1484C175.128 95.2092 175.095 95.2645 175.05 95.31C174.68 95.8 174.97 96.07 175.17 96.19C176.089 96.5109 177.091 96.5109 178.01 96.19C179.206 95.8532 180.456 95.7546 181.69 95.9C182.629 96.3276 183.679 96.4467 184.69 96.24C184.88 96.34 184.76 96.88 183.81 97.84C182.86 98.8 182.57 99.63 183.05 100.04C183.383 100.261 183.784 100.353 184.18 100.3C184.3 100.26 184.43 100.26 184.55 100.3C184.78 100.49 184.68 101.01 183.95 101.73C183.45 102.22 182.69 103.13 183.29 103.57C183.637 103.772 184.051 103.83 184.44 103.73C184.743 103.638 185.067 103.638 185.37 103.73C185.41 103.75 185.446 103.778 185.475 103.812C185.505 103.846 185.527 103.886 185.541 103.929C185.555 103.971 185.56 104.017 185.557 104.061C185.553 104.106 185.541 104.15 185.52 104.19C185.447 104.391 185.441 104.611 185.502 104.816C185.563 105.021 185.689 105.201 185.86 105.33L186.04 105.45C186.314 105.607 186.624 105.693 186.94 105.7C187.02 105.8 186.79 106.39 185.33 107.42C184.7 107.86 183.33 108.95 183.76 109.53C183.807 109.581 183.861 109.624 183.92 109.66C184.126 109.77 184.357 109.821 184.59 109.81C184.971 109.795 185.35 109.878 185.69 110.05C185.86 110.15 185.96 110.27 185.96 110.39C185.966 110.484 185.997 110.574 186.049 110.651C186.102 110.729 186.175 110.791 186.26 110.83C187.063 111.079 187.927 111.047 188.71 110.74C189.113 110.634 189.537 110.634 189.94 110.74C190.252 110.802 190.553 110.913 190.83 111.07C191.1 111.223 191.337 111.427 191.53 111.67C191.636 111.817 191.772 111.94 191.93 112.03C192.244 112.186 192.582 112.288 192.93 112.33C194.72 112.419 196.501 112.018 198.08 111.17C200.603 109.941 203.302 109.115 206.08 108.72C208.195 108.571 210.278 108.127 212.27 107.4C213.427 106.887 214.685 106.641 215.95 106.68C217.388 106.793 218.833 106.556 220.16 105.99C220.44 105.877 220.727 105.784 221.02 105.71C221.01 105.824 220.965 105.933 220.89 106.02C220.56 106.54 220.55 107.02 220.89 107.32C221.153 107.509 221.467 107.613 221.79 107.62C222.013 107.618 222.234 107.673 222.43 107.78C222.63 107.91 222.72 108.05 222.71 108.19C222.139 109.221 221.338 110.107 220.37 110.78C219.51 111.48 219.29 111.95 219.69 112.22C220.346 112.423 221.052 112.395 221.69 112.14C222.326 111.889 223.021 111.83 223.69 111.97C223.773 112.002 223.84 112.064 223.877 112.144C223.915 112.225 223.919 112.316 223.89 112.4C223.818 112.653 223.836 112.924 223.942 113.165C224.048 113.406 224.235 113.602 224.47 113.72C224.849 113.925 225.287 113.992 225.71 113.91C225.8 114.04 225.54 114.75 224.1 116.02C223.25 116.77 221.92 118.1 222.52 118.58C222.775 118.733 223.079 118.783 223.37 118.72C224.178 118.587 225.007 118.673 225.77 118.97C226.66 119.49 229.66 118.97 231.46 118.46C235.821 117.061 240.098 115.411 244.27 113.52C249.43 111.23 253.51 109.88 254.15 109.92C255.065 109.95 255.98 109.856 256.87 109.64C257.07 111.56 258.4 113.39 260.86 114.81Z" fill="#AAA5C3"/>
<path d="M334.97 127.8V128.62L270.29 166.21V165.39L334.97 127.8Z" fill="#D4D2E1"/>
<path d="M215.9 140.52V141.33L258.98 166.2V165.39L215.9 140.52Z" fill="#D4D2E1"/>
<path d="M259 165.39V166.2C260.752 167.09 262.69 167.554 264.655 167.554C266.62 167.554 268.558 167.09 270.31 166.2V165.38C268.559 166.274 266.622 166.74 264.656 166.742C262.691 166.744 260.752 166.281 259 165.39Z" fill="#D4D2E1"/>
<path d="M345.85 120.93C345.97 120.93 347.31 121.16 334.97 127.8L270.29 165.39C268.538 166.282 266.601 166.747 264.635 166.747C262.669 166.747 260.732 166.282 258.98 165.39L215.9 140.52C229.15 132.96 246.33 123.34 261.11 114.95C266.45 117.89 274.88 117.84 280.11 114.82C281.335 114.144 282.388 113.196 283.19 112.05L283.51 112.12C283.61 112.138 283.705 112.175 283.79 112.23C284.42 112.59 284.21 113.52 283.23 114.42C282.25 115.32 282.05 116 282.49 116.25C282.61 116.314 282.744 116.348 282.88 116.35C283.102 116.346 283.322 116.398 283.52 116.5C283.88 116.71 283.89 117.09 283.52 117.5C283.15 117.91 282.99 118.45 283.34 118.65C283.435 118.704 283.541 118.738 283.65 118.75C283.861 118.765 284.066 118.826 284.25 118.93C284.52 119.08 284.64 119.31 284.55 119.54C284.467 119.713 284.45 119.911 284.504 120.095C284.557 120.28 284.677 120.438 284.84 120.54C285.18 120.73 284.67 121.46 283.73 122.16C282.79 122.86 282.58 123.76 283.26 124.16C284.086 124.582 285.022 124.739 285.94 124.61C286.541 124.525 287.152 124.641 287.68 124.94C287.88 125.047 288.057 125.194 288.2 125.37C289.01 125.87 291.27 125.44 293.59 124.44C296.369 123.276 299.247 122.366 302.19 121.72C304.129 121.396 306.02 120.832 307.82 120.04C308.68 119.533 309.662 119.27 310.66 119.28C311.684 119.314 312.705 119.14 313.66 118.77C314.16 118.504 314.744 118.44 315.29 118.59C315.335 118.612 315.372 118.646 315.399 118.689C315.425 118.731 315.44 118.78 315.44 118.83C315.488 119.077 315.594 119.308 315.749 119.506C315.903 119.704 316.103 119.863 316.33 119.97C317.08 120.39 316.7 121.2 315.7 121.97C314.88 122.56 314.64 123.09 315.01 123.31C315.153 123.379 315.311 123.414 315.47 123.41C315.818 123.413 316.161 123.498 316.47 123.66C316.8 123.85 316.96 124.12 316.86 124.41C316.76 124.7 317.02 125.26 317.52 125.55C317.672 125.635 317.833 125.702 318 125.75C318.72 126.14 318.31 127.02 317.18 127.89C316.23 128.61 315.84 129.18 316.11 129.34C316.247 129.379 316.393 129.379 316.53 129.34C317.054 129.234 317.598 129.29 318.09 129.5C318.197 129.554 318.279 129.647 318.32 129.76C318.76 130.06 320.09 129.84 321.59 129.31C323.28 128.7 325.07 128.38 325.59 128.58C326.11 128.78 330.06 127.05 334.42 124.7C338.78 122.35 343.21 120.53 344.25 120.64C344.404 120.653 344.554 120.698 344.69 120.77C344.787 120.831 344.871 120.909 344.94 121C344.993 121.073 345.057 121.137 345.13 121.19C345.17 121.24 345.37 121.21 345.85 120.93Z" fill="#E9E8F0"/>
<path d="M345.77 120.85C345.77 120.85 345.77 120.75 345.43 121C345.358 121.072 345.267 121.121 345.168 121.142C345.068 121.163 344.965 121.156 344.87 121.12C344.795 121.07 344.73 121.005 344.68 120.93C344.607 120.839 344.519 120.761 344.42 120.7C344.287 120.627 344.141 120.583 343.99 120.57C342.94 120.46 338.52 122.28 334.15 124.63C329.78 126.98 325.82 128.72 325.33 128.51C323.958 128.442 322.589 128.692 321.33 129.24C320.337 129.702 319.24 129.892 318.15 129.79C318.128 129.78 318.108 129.765 318.092 129.746C318.077 129.726 318.066 129.704 318.06 129.68C318.016 129.572 317.934 129.483 317.83 129.43C317.343 129.215 316.801 129.159 316.28 129.27C316.144 129.316 315.996 129.316 315.86 129.27C315.58 129.12 315.98 128.55 316.92 127.82C318.06 126.96 318.46 126.07 317.92 125.76L317.75 125.69C317.58 125.642 317.415 125.575 317.26 125.49C316.76 125.2 316.48 124.75 316.61 124.35C316.645 124.199 316.625 124.04 316.554 123.903C316.482 123.765 316.364 123.658 316.22 123.6C315.91 123.441 315.568 123.356 315.22 123.35C315.064 123.352 314.91 123.318 314.77 123.25C314.39 123.03 314.63 122.5 315.45 121.91C316.45 121.18 316.83 120.37 316.32 120.08L316.08 119.95C315.854 119.841 315.657 119.681 315.503 119.483C315.348 119.286 315.241 119.055 315.19 118.81C315.191 118.76 315.177 118.71 315.151 118.668C315.124 118.625 315.086 118.591 315.04 118.57C314.495 118.42 313.913 118.48 313.41 118.74C312.456 119.118 311.435 119.295 310.41 119.26C309.411 119.247 308.429 119.51 307.57 120.02C305.769 120.808 303.878 121.373 301.94 121.7C298.998 122.348 296.12 123.258 293.34 124.42C291.02 125.42 288.77 125.85 288.08 125.42L287.95 125.31C287.807 125.134 287.63 124.987 287.43 124.88C286.906 124.571 286.291 124.454 285.69 124.55C284.772 124.678 283.836 124.521 283.01 124.1C282.33 123.71 282.54 122.81 283.48 122.1C284.42 121.39 284.93 120.67 284.6 120.48C284.437 120.378 284.317 120.221 284.261 120.037C284.206 119.853 284.22 119.655 284.3 119.48C284.4 119.26 284.3 119.03 284.01 118.88C283.821 118.778 283.614 118.714 283.4 118.69C283.291 118.684 283.185 118.653 283.09 118.6C282.75 118.4 282.8 117.94 283.28 117.45C283.76 116.96 283.67 116.65 283.28 116.45C283.081 116.351 282.862 116.296 282.64 116.29C282.505 116.294 282.37 116.263 282.25 116.2C281.81 115.94 282.07 115.2 282.98 114.37C283.89 113.54 284.17 112.54 283.54 112.17C283.455 112.125 283.364 112.091 283.27 112.07L283 112" stroke="#D4D2E1" stroke-width="0.5" stroke-miterlimit="10"/>
</g>
<defs>
<filter id="filter0_d_1331_2234" x="20.6499" y="16.7253" width="265.771" height="163.907" filterUnits="userSpaceOnUse" color-interpolation-filters="sRGB">
<feFlood flood-opacity="0" result="BackgroundImageFix"/>
<feColorMatrix in="SourceAlpha" type="matrix" values="0 0 0 0 0 0 0 0 0 0 0 0 0 0 0 0 0 0 127 0" result="hardAlpha"/>
<feOffset dy="10"/>
<feGaussianBlur stdDeviation="2.5"/>
<feColorMatrix type="matrix" values="0 0 0 0 0 0 0 0 0 0 0 0 0 0 0 0 0 0 0.08 0"/>
<feBlend mode="normal" in2="BackgroundImageFix" result="effect1_dropShadow_1331_2234"/>
<feBlend mode="normal" in="SourceGraphic" in2="effect1_dropShadow_1331_2234" result="shape"/>
</filter>
<filter id="filter1_d_1331_2234" x="142.27" y="51.2428" width="209.43" height="141.311" filterUnits="userSpaceOnUse" color-interpolation-filters="sRGB">
<feFlood flood-opacity="0" result="BackgroundImageFix"/>
<feColorMatrix in="SourceAlpha" type="matrix" values="0 0 0 0 0 0 0 0 0 0 0 0 0 0 0 0 0 0 127 0" result="hardAlpha"/>
<feOffset dy="20"/>
<feGaussianBlur stdDeviation="2.5"/>
<feColorMatrix type="matrix" values="0 0 0 0 0 0 0 0 0 0 0 0 0 0 0 0 0 0 0.08 0"/>
<feBlend mode="normal" in2="BackgroundImageFix" result="effect1_dropShadow_1331_2234"/>
<feBlend mode="normal" in="SourceGraphic" in2="effect1_dropShadow_1331_2234" result="shape"/>
</filter>
</defs>
</svg>
