<svg width="360" height="228" viewBox="0 0 360 228" fill="none" xmlns="http://www.w3.org/2000/svg">
<path d="M269.51 140.117V154.917C269.51 168.297 260.68 181.647 243.12 191.847C207.77 212.397 150.28 212.387 114.7 191.847C96.8 181.517 87.86 167.947 87.9 154.397V139.597C87.9 153.147 96.8 166.707 114.71 177.047C150.28 197.587 207.77 197.587 243.12 177.047C260.68 166.837 269.47 153.487 269.51 140.117Z" fill="#F6F6F6"/>
<path d="M269.498 140.072C269.579 111.022 228.993 87.3584 178.845 87.2183C128.698 87.0783 87.98 110.515 87.8988 139.565C87.8177 168.615 128.404 192.278 178.552 192.418C228.699 192.558 269.417 169.122 269.498 140.072Z" fill="#E0DFE6"/>
<path d="M260.41 137.497V140.497C260.41 128.307 252.41 116.097 236.29 106.787C204.29 88.3074 152.52 88.3074 120.71 106.787C104.9 115.937 97 127.947 97 139.987V136.987C97 124.987 105 112.927 120.75 103.747C152.56 85.2574 204.3 85.2574 236.33 103.747C252.44 113.047 260.49 125.267 260.45 137.457" fill="#D4D2E1"/>
<path d="M242.69 100.117C278.26 120.657 278.45 153.957 243.1 174.507C207.75 195.057 150.26 195.047 114.69 174.507C79.12 153.967 78.93 120.657 114.27 100.117C149.61 79.5774 207.11 79.5274 242.69 100.117ZM121.09 170.787C153.09 189.267 204.86 189.267 236.66 170.787C268.46 152.307 268.31 122.327 236.29 103.837C204.27 85.3474 152.52 85.3474 120.71 103.837C88.9 122.327 89.07 152.297 121.09 170.837" fill="#FAFAFB"/>
<path d="M269.49 137.517V140.517C269.49 153.897 260.66 167.247 243.1 177.457C207.76 197.997 150.26 197.997 114.69 177.457C96.77 167.117 87.83 153.507 87.87 139.967V136.967C87.87 150.507 96.77 164.077 114.68 174.417C150.25 194.957 207.75 194.957 243.09 174.417C260.65 164.207 269.44 150.847 269.48 137.477" fill="#F6F6F6"/>
<path d="M213.62 149.737C208.139 152.256 201.885 152.508 196.22 150.437C198.98 155.437 197.36 159.757 186.74 162.717C177.2 165.387 169.86 163.897 163.19 160.047C160.565 158.501 158.085 156.72 155.78 154.727L142.66 159.297L137.88 154.707L150.82 150.197C149.58 149.007 148.33 147.787 147.06 146.507L134.06 151.047L129.29 146.457L142.42 141.877L132.82 132.607L143.21 130.227C143.37 130.387 146.43 133.417 146.67 133.567C146.878 133.751 147.102 133.915 147.34 134.057C148.509 134.63 149.851 134.744 151.1 134.377L186.68 121.967C188.1 121.237 189.33 119.967 187.39 118.127C187.57 118.127 184.1 114.957 183.92 114.797L192.36 111.797C192.79 112.207 200.96 120.057 202.03 121.037L215.03 116.517L219.81 121.097L207.08 125.537C208.4 126.747 209.72 127.967 210.99 129.167L223.62 124.757L228.42 129.347L215.42 133.877C220.7 140.117 222.45 145.947 213.62 149.737ZM178.85 153.117C189.09 149.547 177.37 140.337 174.13 137.227L156.72 143.297C158.49 144.987 161.98 148.757 166.38 151.297C170.06 153.427 174.38 154.677 178.85 153.117ZM201.17 142.417C210.48 139.177 200.59 131.537 197.88 128.947L182.1 134.447C184.414 136.933 187.035 139.114 189.9 140.937C193.1 142.787 196.97 143.887 201.17 142.417Z" fill="white"/>
<g filter="url(#filter0_d_1331_2557)">
<path d="M289.286 22.1174C303.576 30.3674 311.816 39.6774 315.036 51.1974L231.586 58.8574C231.257 58.8885 230.926 58.8059 230.65 58.6233C230.374 58.4408 230.169 58.1692 230.068 57.8538C229.968 57.5385 229.978 57.1982 230.098 56.8896C230.218 56.581 230.439 56.3226 230.726 56.1574L289.286 22.1174Z" fill="#2E1B6E"/>
</g>
<g filter="url(#filter1_d_1331_2557)">
<path d="M243.09 36.5474L178.82 73.8974L88.81 82.1174C80.81 53.3074 114.55 26.2574 164.27 21.6974C194.09 18.9974 221.65 24.1774 243.09 36.5474Z" fill="#BBEDDA"/>
</g>
<g filter="url(#filter2_d_1331_2557)">
<path d="M45 94.1174C47.71 103.837 54.59 112.507 64.6 119.567L127.42 89.3874C127.733 89.2441 127.985 88.9939 128.131 88.6818C128.276 88.3697 128.306 88.016 128.215 87.684C128.123 87.3519 127.916 87.0633 127.632 86.8697C127.347 86.6761 127.002 86.5902 126.66 86.6274L45 94.1174Z" fill="#7F78A6"/>
</g>
<g opacity="0.7" filter="url(#filter3_d_1331_2557)">
<path d="M99.77 111.597C101.63 112.907 103.59 114.177 105.67 115.367C118.9 123.007 136.3 128.227 156.21 130.047L170.21 77.8874H169.89L99.77 111.597Z" fill="#49CE9C"/>
</g>
<g filter="url(#filter4_d_1331_2557)">
<path d="M268.83 65.6374C276.83 94.4374 243.09 121.487 193.38 126.057C183.892 126.967 174.338 126.967 164.85 126.057L178.85 73.8974L268.83 65.6374Z" fill="#1CC283"/>
</g>
<path d="M72.47 98.8274L71.47 99.6574L69.75 98.9874L68.29 98.4274L64.55 96.9574L63.76 97.6474C63.9829 97.7573 64.174 97.9223 64.3153 98.1267C64.4566 98.3311 64.5433 98.5682 64.5674 98.8156C64.5914 99.0629 64.5519 99.3123 64.4526 99.5401C64.3533 99.7679 64.1976 99.9666 64 100.117C63.4128 100.527 62.7477 100.812 62.046 100.955C61.3443 101.098 60.6207 101.095 59.92 100.947L59.23 101.527L63 103.017L65.76 104.117L67.82 104.927L66.82 105.767L63.04 104.287L56.77 101.837L59.3 99.6674L60.01 99.9074C60.4221 100.057 60.864 100.106 61.2988 100.051C61.7337 99.995 62.149 99.8361 62.51 99.5874C63.02 99.1574 62.91 98.5874 62.27 98.2074L62.12 98.1174L61.46 97.8274L64.11 95.5574L69.3 97.5574L72.47 98.8274Z" fill="white"/>
<path d="M64.43 103.587L65.76 104.107L62.98 103.017L68.33 98.4274L69.78 98.9974L64.43 103.587Z" fill="white"/>
<path d="M78.86 107.287L76.33 109.457L63.07 104.277L66.85 105.757L67.85 104.917L75.85 108.057L76.52 107.477C76.2834 107.373 76.0789 107.207 75.9272 106.998C75.7755 106.789 75.6822 106.543 75.6568 106.285C75.6313 106.028 75.6747 105.768 75.7825 105.533C75.8902 105.298 76.0585 105.096 76.27 104.947C76.8649 104.53 77.5408 104.242 78.254 104.103C78.9672 103.963 79.7017 103.975 80.41 104.137L81.2 103.457L71.5 99.6573L72.5 98.8273L69.3 97.5873L83.63 103.187L81 105.467L80.3 105.207C79.8815 105.049 79.431 104.995 78.9869 105.049C78.5428 105.103 78.1184 105.264 77.75 105.517C77.24 105.947 77.35 106.517 77.97 106.877C78.0469 106.923 78.1271 106.963 78.21 106.997L78.86 107.287Z" fill="white"/>
<path d="M288.161 44.2121L299 42.7342L290.568 33.8033L292.741 32.6768L290.334 30.1174L288.951 30.559L290.747 32.4965L280.034 38.0479C279.169 37.7274 278.223 37.699 277.34 37.9668C276.826 38.0943 276.381 38.4175 276.101 38.868C276.007 39.0563 275.978 39.27 276.017 39.4766C276.056 39.6832 276.161 39.8714 276.316 40.0125C276.445 40.1458 276.593 40.2582 276.756 40.346C277.699 40.8249 278.79 40.9186 279.8 40.6073C280.078 40.5216 280.342 40.3939 280.582 40.2288C280.721 40.1267 280.843 40.0018 280.941 39.8593C280.845 40.0038 280.723 40.1291 280.582 40.2288L283.384 43.1397C283.054 43.1557 282.729 43.2132 282.414 43.3109C281.174 43.6984 280.716 44.6087 281.399 45.3386C281.529 45.4708 281.677 45.5832 281.839 45.6721C282.78 46.1556 283.873 46.2495 284.883 45.9334C286.105 45.5459 286.562 44.6627 285.925 43.9418L281.04 38.7509L282.36 38.0569L288.161 44.2121ZM279.531 39.4177C279.422 39.5875 279.251 39.7073 279.055 39.7512C278.817 39.8253 278.564 39.8408 278.319 39.7963C278.168 39.773 278.022 39.7243 277.888 39.6521C277.828 39.6174 277.774 39.575 277.726 39.5259C277.665 39.4723 277.623 39.3995 277.609 39.3193C277.594 39.2391 277.607 39.1562 277.645 39.0843C277.752 38.9165 277.919 38.7969 278.112 38.7509C278.356 38.6742 278.614 38.6557 278.866 38.6968C279.01 38.7255 279.149 38.774 279.28 38.841C279.342 38.8789 279.399 38.9243 279.45 38.9762C279.509 39.0315 279.548 39.1042 279.563 39.1836C279.577 39.2631 279.566 39.3451 279.531 39.4177ZM284.587 44.8249C284.534 44.9107 284.465 44.985 284.383 45.0438C284.301 45.1026 284.209 45.1446 284.111 45.1674C283.869 45.2413 283.614 45.2567 283.366 45.2125C283.218 45.1878 283.075 45.1391 282.943 45.0683C282.884 45.0336 282.83 44.9912 282.782 44.9421C282.722 44.8879 282.68 44.8157 282.664 44.7362C282.648 44.6567 282.658 44.5741 282.692 44.5005C282.803 44.3328 282.973 44.2136 283.168 44.1671C283.409 44.0905 283.664 44.072 283.913 44.113C284.061 44.1377 284.203 44.1864 284.335 44.2572C284.396 44.2972 284.453 44.3424 284.506 44.3924C284.554 44.4432 284.587 44.5063 284.601 44.5747C284.615 44.6431 284.61 44.7141 284.587 44.7799V44.8249ZM285.485 43.6624L285.404 43.6083L285.485 43.6624ZM288.933 43.2028L287.703 41.833L294.654 40.0306L296.611 42.1033L288.933 43.2028ZM286.976 41.0039L285.629 39.571L291.986 37.1647L293.926 39.2375L286.976 41.0039ZM289.409 34.4341L291.205 36.3627L284.847 38.7599L283.599 37.4351L289.409 34.4341Z" fill="white"/>
<defs>
<filter id="filter0_d_1331_2557" x="225" y="22.1174" width="95.0362" height="56.7464" filterUnits="userSpaceOnUse" color-interpolation-filters="sRGB">
<feFlood flood-opacity="0" result="BackgroundImageFix"/>
<feColorMatrix in="SourceAlpha" type="matrix" values="0 0 0 0 0 0 0 0 0 0 0 0 0 0 0 0 0 0 127 0" result="hardAlpha"/>
<feOffset dy="15"/>
<feGaussianBlur stdDeviation="2.5"/>
<feComposite in2="hardAlpha" operator="out"/>
<feColorMatrix type="matrix" values="0 0 0 0 0 0 0 0 0 0 0 0 0 0 0 0 0 0 0.05 0"/>
<feBlend mode="normal" in2="BackgroundImageFix" result="effect1_dropShadow_1331_2557"/>
<feBlend mode="normal" in="SourceGraphic" in2="effect1_dropShadow_1331_2557" result="shape"/>
</filter>
<filter id="filter1_d_1331_2557" x="83.6363" y="21" width="163.454" height="80.1174" filterUnits="userSpaceOnUse" color-interpolation-filters="sRGB">
<feFlood flood-opacity="0" result="BackgroundImageFix"/>
<feColorMatrix in="SourceAlpha" type="matrix" values="0 0 0 0 0 0 0 0 0 0 0 0 0 0 0 0 0 0 127 0" result="hardAlpha"/>
<feOffset dy="15"/>
<feGaussianBlur stdDeviation="2"/>
<feComposite in2="hardAlpha" operator="out"/>
<feColorMatrix type="matrix" values="0 0 0 0 0 0 0 0 0 0 0 0 0 0 0 0 0 0 0.05 0"/>
<feBlend mode="normal" in2="BackgroundImageFix" result="effect1_dropShadow_1331_2557"/>
<feBlend mode="normal" in="SourceGraphic" in2="effect1_dropShadow_1331_2557" result="shape"/>
</filter>
<filter id="filter2_d_1331_2557" x="41" y="86.6189" width="91.2666" height="51.9485" filterUnits="userSpaceOnUse" color-interpolation-filters="sRGB">
<feFlood flood-opacity="0" result="BackgroundImageFix"/>
<feColorMatrix in="SourceAlpha" type="matrix" values="0 0 0 0 0 0 0 0 0 0 0 0 0 0 0 0 0 0 127 0" result="hardAlpha"/>
<feOffset dy="15"/>
<feGaussianBlur stdDeviation="2"/>
<feComposite in2="hardAlpha" operator="out"/>
<feColorMatrix type="matrix" values="0 0 0 0 0 0 0 0 0 0 0 0 0 0 0 0 0 0 0.05 0"/>
<feBlend mode="normal" in2="BackgroundImageFix" result="effect1_dropShadow_1331_2557"/>
<feBlend mode="normal" in="SourceGraphic" in2="effect1_dropShadow_1331_2557" result="shape"/>
</filter>
<filter id="filter3_d_1331_2557" x="95.77" y="77.8874" width="78.44" height="71.16" filterUnits="userSpaceOnUse" color-interpolation-filters="sRGB">
<feFlood flood-opacity="0" result="BackgroundImageFix"/>
<feColorMatrix in="SourceAlpha" type="matrix" values="0 0 0 0 0 0 0 0 0 0 0 0 0 0 0 0 0 0 127 0" result="hardAlpha"/>
<feOffset dy="15"/>
<feGaussianBlur stdDeviation="2"/>
<feComposite in2="hardAlpha" operator="out"/>
<feColorMatrix type="matrix" values="0 0 0 0 0 0 0 0 0 0 0 0 0 0 0 0 0 0 0.05 0"/>
<feBlend mode="normal" in2="BackgroundImageFix" result="effect1_dropShadow_1331_2557"/>
<feBlend mode="normal" in="SourceGraphic" in2="effect1_dropShadow_1331_2557" result="shape"/>
</filter>
<filter id="filter4_d_1331_2557" x="160.85" y="65.6374" width="113.154" height="80.1025" filterUnits="userSpaceOnUse" color-interpolation-filters="sRGB">
<feFlood flood-opacity="0" result="BackgroundImageFix"/>
<feColorMatrix in="SourceAlpha" type="matrix" values="0 0 0 0 0 0 0 0 0 0 0 0 0 0 0 0 0 0 127 0" result="hardAlpha"/>
<feOffset dy="15"/>
<feGaussianBlur stdDeviation="2"/>
<feComposite in2="hardAlpha" operator="out"/>
<feColorMatrix type="matrix" values="0 0 0 0 0 0 0 0 0 0 0 0 0 0 0 0 0 0 0.05 0"/>
<feBlend mode="normal" in2="BackgroundImageFix" result="effect1_dropShadow_1331_2557"/>
<feBlend mode="normal" in="SourceGraphic" in2="effect1_dropShadow_1331_2557" result="shape"/>
</filter>
</defs>
</svg>
